<svg width="63" height="64" viewBox="0 0 63 64" fill="none" xmlns="http://www.w3.org/2000/svg">
<rect y="0.575928" width="63" height="63" rx="8.62427" fill="#D37528"/>
<path d="M39.47 35.3306C39.1485 35.1698 37.0587 34.2053 36.7372 34.0445C36.4157 33.8838 36.0942 33.8838 35.7726 34.2053C35.4511 34.5268 34.8081 35.4913 34.4866 35.8128C34.3259 36.1343 34.0044 36.1343 33.6829 35.9736C32.5576 35.4913 31.4323 34.8483 30.4678 34.0445C29.664 33.2408 28.8603 32.2763 28.2172 31.3117C28.0565 30.9902 28.2172 30.6687 28.378 30.508C28.5388 30.3472 28.6995 30.0257 29.021 29.865C29.1818 29.7042 29.3425 29.3827 29.3425 29.222C29.5033 29.0612 29.5033 28.7397 29.3425 28.5789C29.1818 28.4182 28.378 26.4891 28.0565 25.6854C27.8957 24.5601 27.5742 24.5601 27.2527 24.5601H26.449C26.1275 24.5601 25.6452 24.8816 25.4844 25.0424C24.5199 26.0069 24.0377 27.1322 24.0377 28.4182C24.1984 29.865 24.6807 31.3117 25.6452 32.5978C27.4135 35.1698 29.664 37.2596 32.3968 38.5456C33.2006 38.8671 33.8436 39.1887 34.6474 39.3494C35.4511 39.6709 36.2549 39.6709 37.2194 39.5102C38.3447 39.3494 39.3092 38.5456 39.9522 37.5811C40.2737 36.9381 40.2737 36.2951 40.113 35.6521L39.47 35.3306ZM43.4888 20.702C37.2194 14.4327 27.092 14.4327 20.8226 20.702C15.6785 25.8461 14.714 33.723 18.2505 39.9924L16 48.1908L24.5199 45.9403C26.9312 47.2263 29.5033 47.8693 32.0753 47.8693C40.9168 47.8693 47.9899 40.7962 47.9899 31.9548C48.1506 27.7752 46.3824 23.7563 43.4888 20.702ZM39.1485 43.2075C37.0587 44.4935 34.6474 45.2973 32.0753 45.2973C29.664 45.2973 27.4135 44.6543 25.3237 43.529L24.8414 43.2075L19.8581 44.4935L21.1441 39.6709L20.8226 39.1887C16.9645 32.7585 18.8936 24.7209 25.1629 20.702C31.4323 16.6832 39.47 18.773 43.3281 24.8816C47.1861 31.151 45.4178 39.3494 39.1485 43.2075Z" fill="#210B01"/>
</svg>
