<svg width="146" height="146" viewBox="0 0 146 146" fill="none" xmlns="http://www.w3.org/2000/svg">
<path d="M60.8726 30.9661C65.1113 28.8468 69.7032 28.4935 74.2952 29.0822C76.5323 29.3177 78.7694 30.1419 81.0065 30.6129C81.4774 30.7306 82.3016 30.4952 82.4194 30.2597C83.5968 27.4339 87.129 26.6097 90.0726 28.1403C92.6629 29.4355 94.3113 31.6726 94.5468 34.6161C94.7823 36.971 93.7226 38.7371 91.6032 40.0322C92.7807 42.5048 93.9581 44.8597 94.9 47.3322C96.1952 50.629 97.3726 53.9258 97.0194 57.5758C96.5484 63.5806 93.2516 68.0548 88.6597 71.5871C76.7677 81.0064 59.5774 79.1226 49.8048 67.5839C45.4484 62.2855 44.3887 56.3984 46.8613 50.0403C48.0387 47.0968 49.3339 44.1532 50.629 41.3274C51.1 40.3855 50.9823 40.0322 50.1581 39.5613C48.2742 38.1484 47.6855 36.2645 48.2742 33.9097C49.3339 29.671 52.9839 27.0806 56.8694 27.7871C58.2823 27.7871 58.5177 28.0226 60.8726 30.9661ZM70.1742 74.7661C78.1806 74.6484 84.0677 72.0581 89.0129 67.3484C93.9581 62.6387 95.7242 56.8693 93.0161 50.2758C92.1919 48.2742 91.4855 46.3903 90.5436 44.5064C87.129 37.3242 81.8306 32.379 73.471 31.6726C65.229 30.9661 58.2823 33.5564 54.0435 40.8564C51.9242 44.3887 50.3935 48.3919 48.8629 52.2774C47.5677 55.6919 47.921 59.1064 49.6871 62.2855C54.3968 70.6452 62.05 74.0597 70.1742 74.7661Z" fill="black"/>
<path d="M70.1742 74.7661C62.05 74.0597 54.3968 70.6452 49.8048 62.1678C48.0387 58.9887 47.6855 55.5742 48.9806 52.1597C50.5113 48.2742 52.0419 44.271 54.1613 40.7387C58.5177 33.4387 65.3468 30.8484 73.5887 31.5548C81.9484 32.2613 87.129 37.2065 90.6613 44.3887C91.6032 46.2726 92.3097 48.2742 93.1339 50.1581C95.7242 56.7516 94.0758 62.521 89.1306 67.2307C84.0677 72.0581 78.1806 74.6484 70.1742 74.7661ZM80.6532 59.2242C80.4177 59.9307 80.1823 60.2839 80.0645 60.6371C79.1226 63.1097 76.65 64.5226 74.0597 63.6984C73.2355 63.4629 72.2936 62.7565 72.0581 62.05C71.7048 60.9903 71.8226 59.8129 73.2355 59.1065C73.9419 58.871 74.4129 58.0468 74.8839 57.3403C75.8258 55.8097 75.4726 54.5145 73.8242 53.9258C72.4113 53.4548 70.8806 53.3371 69.4677 53.5726C66.9952 54.0436 66.5242 55.9274 68.0548 57.929C68.4081 58.4 68.7613 58.871 69.2323 58.9887C70.8806 59.5774 70.8806 60.9903 70.4097 62.05C70.1742 62.7565 68.9968 63.4629 68.0548 63.6984C65.5823 64.2871 63.1097 62.7565 62.2855 60.4016C62.1677 60.0484 62.05 59.6952 61.8145 59.2242C60.0484 62.2855 61.3436 66.8774 64.4048 69.5855C68.1726 72.8823 73.7065 72.8823 77.8274 69.5855C81.0065 67.2307 82.4194 62.6387 80.6532 59.2242ZM59.6952 58.4C61.579 58.2823 62.4032 57.929 63.2274 56.6339C64.6403 54.1613 66.0532 51.6887 67.4661 49.2161C67.7016 48.6274 67.9371 48.0387 67.9371 47.3323C67.7016 42.8581 63.2274 40.5032 59.3419 42.7403C55.4565 44.9774 53.3371 49.6871 54.279 54.0436C54.9855 56.6339 57.1048 58.4 59.6952 58.4ZM82.7726 58.2823C85.3629 58.4 86.8936 57.2226 87.8355 54.9855C89.8371 50.3936 86.7758 43.5645 82.0661 42.0339C79.7113 41.3274 77.4742 41.9161 76.0613 43.5645C74.5306 45.4484 74.2952 47.45 75.5903 49.8048C76.7677 51.9242 78.0629 53.9258 79.1226 56.0452C79.9468 57.6936 81.1242 58.4 82.7726 58.2823Z" fill="white"/>
<path d="M80.6532 59.2242C82.4194 62.6387 81.0064 67.2306 77.9452 69.7032C73.8242 73 68.4081 73 64.5226 69.7032C61.3435 66.9952 60.1661 62.521 61.9323 59.3419C62.1677 59.8129 62.2855 60.1661 62.4032 60.5194C63.2274 62.8742 65.7 64.5226 68.1726 63.8161C68.9968 63.5806 70.1742 62.9919 70.5274 62.1677C70.9984 61.1081 70.9984 59.6952 69.35 59.1065C68.879 58.9887 68.5258 58.4 68.1726 58.0468C66.6419 56.0452 67.1129 54.1613 69.5855 53.6903C70.9984 53.4548 72.6468 53.5726 73.9419 54.0436C75.5903 54.5145 75.9436 55.8097 75.0016 57.4581C74.6484 58.1645 74.0597 58.9887 73.3532 59.2242C71.8226 59.8129 71.7048 60.9903 72.1758 62.1677C72.4113 62.8742 73.471 63.5806 74.1774 63.8161C76.65 64.6403 79.2403 63.2274 80.1823 60.7548C80.3 60.2839 80.4177 59.9306 80.6532 59.2242ZM75.8258 66.8774C74.4129 66.4065 73.1177 66.0532 71.7048 65.7C71.4694 65.7 71.2339 65.5823 71.1161 65.5823C69.7032 66.0532 68.2903 66.4065 66.8774 66.8774C68.1726 70.0565 74.1774 70.2919 75.8258 66.8774ZM59.6952 58.4C57.1048 58.5177 54.8677 56.7516 54.279 53.9258C53.3371 49.5694 55.4565 44.7419 59.3419 42.6226C63.2274 40.3855 67.7016 42.7403 67.9371 47.2145C67.9371 47.8032 67.8194 48.5097 67.4661 49.0984C66.0532 51.571 64.6403 54.0435 63.2274 56.5161C62.521 57.929 61.6968 58.2823 59.6952 58.4ZM61.6968 46.2726C59.9306 46.2726 58.6355 47.5677 58.6355 49.3339C58.6355 51.1 59.9306 52.3952 61.6968 52.5129C63.3452 52.5129 64.7581 51.1 64.8758 49.4516C64.7581 47.6855 63.4629 46.2726 61.6968 46.2726ZM82.7726 58.2823C81.1242 58.4 79.9468 57.6936 79.1226 56.1629C78.0629 54.0436 76.7677 52.0419 75.5903 49.9226C74.2952 47.5677 74.4129 45.5661 76.0613 43.6823C77.4742 41.9161 79.7113 41.3274 82.0661 42.1516C86.8935 43.6823 89.9548 50.5113 87.8355 55.1032C86.8935 57.2226 85.3629 58.4 82.7726 58.2823ZM81.0065 46.2726C79.2403 46.2726 77.8274 47.5677 77.8274 49.2161C77.8274 50.9823 79.2403 52.3952 81.0065 52.3952C82.6548 52.3952 83.95 50.9823 83.95 49.3339C84.0677 47.6855 82.7726 46.2726 81.0065 46.2726Z" fill="black"/>
<path d="M75.8258 66.8774C74.1774 70.2919 68.2903 69.9387 66.8774 66.8774C68.2903 66.4065 69.7032 66.0532 71.1161 65.5823C71.3516 65.5823 71.5871 65.5823 71.7048 65.7C73 66.0532 74.4129 66.5242 75.8258 66.8774ZM61.6968 46.2726C63.4629 46.2726 64.7581 47.6855 64.7581 49.3339C64.7581 50.9823 63.3452 52.3952 61.579 52.3952C59.8129 52.3952 58.5177 50.9823 58.5177 49.2161C58.6355 47.5677 59.9306 46.2726 61.6968 46.2726ZM61.8145 47.45C61.579 47.45 61.3435 47.45 61.1081 47.45C60.6371 48.0387 59.9306 48.7452 59.9306 49.3339C59.8129 50.2758 60.5194 51.1 61.579 51.1C62.6387 51.1 63.4629 50.3936 63.2274 49.3339C63.1097 48.6274 62.4032 48.1565 61.8145 47.45ZM81.0065 46.2726C82.6548 46.2726 84.0677 47.6855 83.95 49.4516C83.95 51.1 82.5371 52.3952 81.0065 52.5129C79.2403 52.5129 77.8274 51.1 77.8274 49.3339C77.9452 47.5677 79.2403 46.2726 81.0065 46.2726ZM80.6532 51.4532C80.8887 51.4532 81.1242 51.4532 81.4774 51.4532C81.9484 50.7468 82.7726 50.0403 82.6548 49.4516C82.6548 48.8629 81.5952 47.8032 81.1242 47.921C80.4177 48.0387 79.4758 48.8629 79.3581 49.4516C79.2403 50.0403 80.1823 50.7468 80.6532 51.4532Z" fill="white"/>
<path d="M61.8145 47.45C62.2855 48.0387 63.1097 48.6274 63.2274 49.3339C63.4629 50.3936 62.6387 50.9823 61.579 51.1C60.4016 51.1 59.8129 50.3936 59.9306 49.3339C60.0484 48.6274 60.7548 48.0387 61.1081 47.45C61.3435 47.45 61.579 47.45 61.8145 47.45ZM80.6532 51.4532C80.1823 50.7468 79.2403 50.0403 79.3581 49.4516C79.4758 48.8629 80.4177 47.921 81.1242 47.921C81.5952 47.8032 82.6548 48.8629 82.6548 49.4516C82.6548 50.0403 81.8306 50.7468 81.4774 51.4532C81.2419 51.4532 80.8887 51.4532 80.6532 51.4532Z" fill="black"/>
<path d="M17.4258 83.479V87.4823H15.3065C14.7177 87.4823 14.2468 87.6 14.0113 87.9532C13.8935 88.1887 13.7758 88.5419 13.7758 89.1306V90.8968H17.4258L16.9548 94.9H13.7758V106.321H9.06613V94.9H6.71129V90.8968H9.06613V88.5419C9.06613 86.0694 9.89032 84.5387 11.5387 83.8323C12.3629 83.479 13.0694 83.479 13.7758 83.479H17.4258ZM32.2613 97.2548V100.081C32.2613 103.024 31.2016 105.026 29.0823 105.968C28.0226 106.439 26.8452 106.674 25.3145 106.674C22.1355 106.674 20.0161 105.615 19.0742 103.613C18.6032 102.789 18.3677 101.729 18.3677 100.434V97.0194C18.3677 93.9581 19.6629 92.0742 22.2532 91.25C23.1952 91.0145 24.0194 90.779 25.079 90.779H25.55C28.8468 90.779 30.9661 92.0742 31.9081 94.5468C32.1435 95.1355 32.2613 96.0774 32.2613 97.2548ZM26.3742 94.9C26.1387 94.7823 25.7855 94.7823 25.4323 94.7823H25.079C24.2548 94.7823 23.6661 95.1355 23.3129 95.8419C23.1952 96.0774 23.1952 96.4306 23.1952 96.7839V100.669C23.1952 101.965 23.9016 102.671 25.3145 102.671H25.4323C26.4919 102.671 27.1984 102.2 27.5516 101.258C27.5516 101.023 27.5516 100.669 27.5516 100.316V97.1371C27.4339 95.8419 27.0806 95.1355 26.3742 94.9ZM46.8613 97.2548V100.081C46.8613 103.024 45.8016 105.026 43.6823 105.968C42.6226 106.439 41.4452 106.674 39.9145 106.674C36.7355 106.674 34.6161 105.615 33.6742 103.613C33.2032 102.789 32.9677 101.729 32.9677 100.434V97.0194C32.9677 93.9581 34.2629 92.0742 36.8532 91.25C37.7952 91.0145 38.6194 90.779 39.679 90.779H40.15C43.4468 90.779 45.5661 92.0742 46.5081 94.5468C46.7435 95.1355 46.8613 96.0774 46.8613 97.2548ZM41.0919 94.9C40.8565 94.7823 40.5032 94.7823 40.15 94.7823H39.7968C38.9726 94.7823 38.3839 95.1355 38.0306 95.8419C37.9129 96.0774 37.9129 96.4306 37.9129 96.7839V100.669C37.9129 101.965 38.6194 102.671 40.0323 102.671C41.0919 102.671 41.7984 102.2 42.1516 101.258C42.1516 101.023 42.1516 100.669 42.1516 100.316V97.1371C42.1516 95.8419 41.7984 95.1355 41.0919 94.9ZM48.8629 92.8984C49.4516 91.4855 51.2177 90.779 53.9258 90.779C54.9855 90.779 56.2806 91.0145 57.3403 91.3677C57.3403 92.0742 57.3403 90.4258 57.3403 88.5419C57.3403 87.4823 57.3403 86.1871 57.3403 84.7742L62.05 83.95V105.968C59.6952 106.321 57.6935 106.556 55.6919 106.556C52.8661 106.556 50.8645 105.968 49.6871 104.908C49.0984 104.319 48.8629 103.848 48.7452 103.495C48.3919 102.906 48.1565 101.376 48.1565 98.7855V97.2548C48.2742 95.0177 48.5097 93.4871 48.8629 92.8984ZM53.2194 101.376C53.4548 102.318 54.279 102.671 55.6919 102.671H56.0452H57.4581V95.371C56.7516 94.9 56.0452 94.6645 55.221 94.6645H54.8677H54.5145C53.5726 94.7823 53.1016 95.371 53.1016 96.4306V100.316C53.1016 100.787 53.1016 101.023 53.2194 101.376ZM64.1694 90.8968H68.1726C68.1726 91.0145 68.1726 91.1323 68.2903 91.25C68.2903 91.4855 68.2903 91.721 68.2903 91.8387C69.821 91.0145 72.0581 90.1903 74.6484 91.0145C76.2968 91.6032 77.121 92.8984 77.3565 93.6048C77.7097 94.6645 77.9452 95.7242 77.9452 98.3145V99.8452C77.9452 102.2 77.7097 103.731 77.3565 104.319C76.7677 105.732 75.0016 106.439 72.2935 106.439C71.2339 106.439 70.4097 106.321 69.821 106.203C69.4677 106.085 69.1145 106.085 68.879 105.968V106.439V113.385H64.0516V94.5468V91.25V90.8968H64.1694ZM71.1161 102.435H71.3516H71.7048C72.6468 102.2 73 101.611 73 100.669V97.0194C73 96.6661 73 96.3129 72.8823 96.0774C72.6468 95.1355 71.8226 94.7823 70.5274 94.9C70.4097 94.9 70.1742 94.9 70.0565 95.0177C69.7032 95.1355 69.2323 95.1355 68.7613 95.371V101.729C69.7032 102.2 70.4097 102.435 71.1161 102.435ZM93.0161 96.9016V106.439H89.0129C89.0129 106.321 89.0129 106.203 88.8952 106.203C88.7774 105.968 88.7774 105.732 88.7774 105.497C87.3645 106.203 85.9516 106.674 84.5387 106.674H84.1855C82.7726 106.674 81.5952 106.085 80.771 105.026C80.1823 104.202 79.9468 103.26 79.9468 102.2V102.082C79.9468 100.198 80.6532 99.021 81.9484 98.3145C82.5371 97.9613 83.8323 97.7258 86.0694 97.7258H88.3065V97.2548C88.3065 96.1952 88.1887 95.6065 87.8355 95.371C87.4823 95.1355 86.8936 95.0177 86.0694 95.0177H81.5952L82.0661 91.0145H86.8936C89.9548 91.0145 91.8387 91.721 92.5452 93.2516C92.7806 94.0758 93.0161 95.371 93.0161 96.9016ZM86.5403 100.787C85.5984 100.787 85.0097 100.905 84.8919 101.023C84.7742 101.14 84.6565 101.376 84.6565 101.847C84.6565 102.671 85.1274 103.142 85.9516 103.142C86.5403 103.142 87.3645 102.906 88.1887 102.553V100.787H86.5403ZM108.676 97.3726V106.439H103.848V96.5484C103.848 95.6065 103.377 95.0177 102.435 94.7823C102.2 94.7823 101.847 94.7823 101.494 94.7823C100.905 94.9 100.198 95.0177 99.4919 95.4887V106.556H94.7823V90.8968H98.7855L98.9032 91.1323C99.021 91.3677 99.1387 91.4855 99.1387 91.8387C99.4919 91.721 101.023 90.779 103.377 90.6613C105.261 90.5435 106.91 90.779 108.087 92.7807C108.558 93.6048 108.676 94.9 108.676 97.3726ZM111.266 92.8984C111.855 91.4855 113.621 90.779 116.329 90.779C117.389 90.779 118.684 91.0145 119.744 91.3677C119.744 92.0742 119.744 90.4258 119.744 88.5419C119.744 87.4823 119.744 86.1871 119.744 84.7742L124.453 83.95V105.968C122.098 106.321 120.097 106.556 118.095 106.556C115.269 106.556 113.268 105.968 112.09 104.908C111.502 104.319 111.266 103.848 111.148 103.495C110.795 102.906 110.56 101.376 110.56 98.7855V97.2548C110.677 95.0177 110.913 93.4871 111.266 92.8984ZM115.623 101.376C115.858 102.318 116.682 102.671 118.095 102.671H118.448H119.861V95.371C119.155 94.9 118.448 94.6645 117.624 94.6645H117.271H116.918C115.976 94.7823 115.505 95.371 115.505 96.4306V100.316C115.505 100.787 115.505 101.023 115.623 101.376ZM139.524 96.9016V106.439H135.521C135.521 106.321 135.521 106.203 135.403 106.203C135.285 105.968 135.285 105.732 135.285 105.497C133.873 106.203 132.46 106.674 131.047 106.674H130.694C129.281 106.674 128.103 106.085 127.279 105.026C126.69 104.202 126.455 103.26 126.455 102.2V102.082C126.455 100.198 127.161 99.021 128.456 98.3145C129.045 97.9613 130.34 97.7258 132.577 97.7258H134.815V97.2548C134.815 96.1952 134.697 95.6065 134.344 95.371C133.99 95.1355 133.402 95.0177 132.577 95.0177H128.103L128.574 91.0145H133.402C136.463 91.0145 138.347 91.721 139.053 93.2516C139.289 94.0758 139.524 95.371 139.524 96.9016ZM133.166 100.787C132.224 100.787 131.635 100.905 131.518 101.023C131.4 101.14 131.282 101.376 131.282 101.847C131.282 102.671 131.753 103.142 132.577 103.142C133.166 103.142 133.99 102.906 134.815 102.553V100.787H133.166Z" fill="#ED5B34"/>
</svg>
