<svg width="197" height="101" viewBox="0 0 197 101" fill="none" xmlns="http://www.w3.org/2000/svg">
<path d="M11.1913 1.6485H13.9723V11.6779C13.9723 12.7773 13.7124 13.7443 13.1927 14.5788C12.678 15.4134 11.9534 16.0655 11.0189 16.5353C10.0844 17 8.99252 17.2324 7.74321 17.2324C6.48891 17.2324 5.39451 17 4.46003 16.5353C3.52555 16.0655 2.80095 15.4134 2.28623 14.5788C1.77152 13.7443 1.51416 12.7773 1.51416 11.6779V1.6485H4.29512V11.4456C4.29512 12.0852 4.43504 12.6549 4.71489 13.1546C4.99973 13.6544 5.39951 14.0466 5.91423 14.3315C6.42894 14.6113 7.0386 14.7512 7.74321 14.7512C8.44782 14.7512 9.05749 14.6113 9.5722 14.3315C10.0919 14.0466 10.4917 13.6544 10.7715 13.1546C11.0514 12.6549 11.1913 12.0852 11.1913 11.4456V1.6485ZM16.995 17V1.6485H22.7518C23.9311 1.6485 24.9206 1.86838 25.7201 2.30813C26.5247 2.74789 27.1319 3.35255 27.5416 4.12213C27.9564 4.88671 28.1638 5.75622 28.1638 6.73068C28.1638 7.71514 27.9564 8.58966 27.5416 9.35423C27.1269 10.1188 26.5147 10.721 25.7051 11.1607C24.8956 11.5955 23.8986 11.8129 22.7143 11.8129H18.8989V9.52664H22.3395C23.0291 9.52664 23.5938 9.4067 24.0336 9.16684C24.4733 8.92697 24.7981 8.59715 25.008 8.17738C25.2229 7.75762 25.3304 7.27538 25.3304 6.73068C25.3304 6.18599 25.2229 5.70625 25.008 5.29148C24.7981 4.87671 24.4708 4.55439 24.0261 4.32452C23.5863 4.08965 23.0191 3.97221 22.3245 3.97221H19.7759V17H16.995ZM29.9047 3.97971V1.6485H42.1529V3.97971H37.408V17H34.6496V3.97971H29.9047ZM57.5513 9.32425C57.5513 10.9783 57.2414 12.395 56.6218 13.5744C56.0071 14.7487 55.1676 15.6482 54.1032 16.2729C53.0438 16.8976 51.8419 17.2099 50.4977 17.2099C49.1534 17.2099 47.9491 16.8976 46.8847 16.2729C45.8253 15.6433 44.9857 14.7413 44.3661 13.5669C43.7514 12.3876 43.4441 10.9733 43.4441 9.32425C43.4441 7.67016 43.7514 6.25595 44.3661 5.0816C44.9857 3.90225 45.8253 3.00025 46.8847 2.3756C47.9491 1.75094 49.1534 1.43861 50.4977 1.43861C51.8419 1.43861 53.0438 1.75094 54.1032 2.3756C55.1676 3.00025 56.0071 3.90225 56.6218 5.0816C57.2414 6.25595 57.5513 7.67016 57.5513 9.32425ZM54.7553 9.32425C54.7553 8.15989 54.5729 7.17794 54.2081 6.37838C53.8483 5.57383 53.3486 4.96666 52.7089 4.55689C52.0693 4.14212 51.3322 3.93473 50.4977 3.93473C49.6631 3.93473 48.926 4.14212 48.2864 4.55689C47.6467 4.96666 47.1445 5.57383 46.7797 6.37838C46.4199 7.17794 46.24 8.15989 46.24 9.32425C46.24 10.4886 46.4199 11.4731 46.7797 12.2776C47.1445 13.0772 47.6467 13.6843 48.2864 14.0991C48.926 14.5089 49.6631 14.7138 50.4977 14.7138C51.3322 14.7138 52.0693 14.5089 52.7089 14.0991C53.3486 13.6843 53.8483 13.0772 54.2081 12.2776C54.5729 11.4731 54.7553 10.4886 54.7553 9.32425ZM29.0286 94.874C24.1593 94.874 19.8414 94.0416 16.075 92.3769C12.3294 90.6914 9.37448 88.3711 7.21034 85.4163C5.0462 82.4614 3.94332 79.0591 3.9017 75.2094H19.4461C19.5085 76.6036 19.9559 77.8418 20.7883 78.9238C21.6206 79.9851 22.7547 80.8175 24.1905 81.4209C25.6264 82.0244 27.2599 82.3261 29.0911 82.3261C30.9223 82.3261 32.535 82.0036 33.9292 81.3585C35.3442 80.6926 36.4471 79.7874 37.2378 78.6429C38.0286 77.4776 38.4135 76.1458 38.3927 74.6476C38.4135 73.1493 37.9869 71.8175 37.113 70.6522C36.239 69.4869 35.0008 68.5817 33.3985 67.9366C31.8171 67.2916 29.9442 66.969 27.7801 66.969H21.5686V55.9818H27.7801C29.6737 55.9818 31.3385 55.6697 32.7743 55.0454C34.2309 54.4212 35.365 53.5472 36.1766 52.4235C36.9881 51.279 37.3835 49.968 37.3627 48.4906C37.3835 47.0548 37.0401 45.7958 36.3326 44.7137C35.6459 43.6109 34.6783 42.7577 33.4298 42.1542C32.202 41.5508 30.7766 41.249 29.1535 41.249C27.4472 41.249 25.8969 41.5508 24.5027 42.1542C23.1293 42.7577 22.0368 43.6109 21.2252 44.7137C20.4137 45.8166 19.9871 47.0964 19.9455 48.553H5.18146C5.22308 44.7449 6.28434 41.3947 8.36524 38.5022C10.4462 35.589 13.2762 33.3104 16.8553 31.6665C20.4553 30.0225 24.5547 29.2006 29.1535 29.2006C33.7315 29.2006 37.758 30.0017 41.2332 31.604C44.7083 33.2063 47.4135 35.3913 49.3487 38.1589C51.2839 40.9057 52.2516 44.0166 52.2516 47.4917C52.2724 51.0917 51.0967 54.057 48.7244 56.3876C46.373 58.7182 43.3453 60.1541 39.6413 60.6951V61.1945C44.5938 61.7772 48.3291 63.3795 50.8469 66.0014C53.3857 68.6233 54.6446 71.9008 54.6238 75.8337C54.6238 79.5377 53.5313 82.8255 51.3464 85.6972C49.1822 88.548 46.1649 90.7954 42.2944 92.4393C38.4447 94.0624 34.0228 94.874 29.0286 94.874ZM89.7781 95.5607C84.2013 95.5607 79.3944 94.2393 75.3574 91.5966C71.3205 88.933 68.2095 85.1145 66.0246 80.1412C63.8396 75.147 62.7575 69.1436 62.7783 62.1309C62.7992 55.1183 63.8916 49.1669 66.0558 44.2767C68.2407 39.3658 71.3413 35.6306 75.3574 33.0711C79.3944 30.4907 84.2013 29.2006 89.7781 29.2006C95.3549 29.2006 100.162 30.4907 104.199 33.0711C108.257 35.6306 111.378 39.3658 113.563 44.2767C115.748 49.1877 116.83 55.1391 116.809 62.1309C116.809 69.1644 115.717 75.1782 113.532 80.1724C111.347 85.1666 108.236 88.985 104.199 91.6278C100.183 94.2497 95.3757 95.5607 89.7781 95.5607ZM89.7781 82.9192C93.1076 82.9192 95.8023 81.2232 97.8624 77.8314C99.9225 74.4187 100.942 69.1852 100.921 62.1309C100.921 57.5113 100.453 53.7032 99.5167 50.7067C98.5803 47.6894 97.2798 45.442 95.615 43.9646C93.9503 42.4872 92.0047 41.7484 89.7781 41.7484C86.4695 41.7484 83.7955 43.4236 81.7562 46.7738C79.7169 50.1033 78.6869 55.2223 78.6661 62.1309C78.6453 66.813 79.0926 70.6938 80.0082 73.7736C80.9447 76.8533 82.2556 79.1527 83.9412 80.6718C85.6267 82.17 87.5723 82.9192 89.7781 82.9192Z" fill="#D37528"/>
<path d="M144.661 64.2848V62.9586C144.661 61.9517 144.874 61.0267 145.299 60.1835C145.733 59.3321 146.36 58.6527 147.178 58.1451C148.005 57.6294 149.012 57.3715 150.199 57.3715C151.402 57.3715 152.413 57.6253 153.232 58.1329C154.059 58.6404 154.681 59.3198 155.098 60.1712C155.524 61.0144 155.737 61.9435 155.737 62.9586V64.2848C155.737 65.2917 155.524 66.2208 155.098 67.0722C154.673 67.9153 154.046 68.5907 153.22 69.0982C152.393 69.614 151.386 69.8718 150.199 69.8718C148.996 69.8718 147.985 69.614 147.166 69.0982C146.347 68.5907 145.725 67.9153 145.299 67.0722C144.874 66.2208 144.661 65.2917 144.661 64.2848ZM148.234 62.9586V64.2848C148.234 64.866 148.373 65.4145 148.652 65.9302C148.938 66.4459 149.454 66.7038 150.199 66.7038C150.944 66.7038 151.451 66.45 151.722 65.9425C152 65.4349 152.139 64.8824 152.139 64.2848V62.9586C152.139 62.361 152.008 61.8044 151.746 61.2886C151.484 60.7729 150.968 60.515 150.199 60.515C149.462 60.515 148.951 60.7729 148.664 61.2886C148.377 61.8044 148.234 62.361 148.234 62.9586ZM131.755 49.8935V48.5673C131.755 47.5522 131.972 46.6231 132.406 45.7799C132.84 44.9286 133.466 44.2491 134.285 43.7416C135.112 43.234 136.11 42.9802 137.281 42.9802C138.493 42.9802 139.508 43.234 140.326 43.7416C141.145 44.2491 141.767 44.9286 142.193 45.7799C142.619 46.6231 142.831 47.5522 142.831 48.5673V49.8935C142.831 50.9086 142.614 51.8377 142.181 52.6809C141.755 53.524 141.129 54.1994 140.302 54.7069C139.483 55.2063 138.476 55.456 137.281 55.456C136.086 55.456 135.075 55.2022 134.248 54.6947C133.43 54.1789 132.807 53.5036 132.382 52.6686C131.964 51.8254 131.755 50.9004 131.755 49.8935ZM135.353 48.5673V49.8935C135.353 50.4911 135.492 51.0436 135.771 51.5512C136.057 52.0587 136.561 52.3125 137.281 52.3125C138.034 52.3125 138.546 52.0587 138.816 51.5512C139.094 51.0436 139.234 50.4911 139.234 49.8935V48.5673C139.234 47.9697 139.103 47.4131 138.841 46.8973C138.579 46.3816 138.059 46.1237 137.281 46.1237C136.553 46.1237 136.049 46.3857 135.771 46.9096C135.492 47.4335 135.353 47.9861 135.353 48.5673ZM133.376 69L150.666 43.8521H153.883L136.593 69H133.376ZM154.153 86.426C154.153 89.1684 153.633 91.5015 152.593 93.4252C151.562 95.349 150.154 96.8184 148.369 97.8335C146.593 98.8404 144.595 99.3438 142.377 99.3438C140.142 99.3438 138.137 98.8363 136.36 97.8212C134.584 96.8061 133.18 95.3367 132.148 93.4129C131.117 91.4892 130.601 89.1602 130.601 86.426C130.601 83.6837 131.117 81.3506 132.148 79.4269C133.18 77.5031 134.584 76.0378 136.36 75.0309C138.137 74.0158 140.142 73.5083 142.377 73.5083C144.595 73.5083 146.593 74.0158 148.369 75.0309C150.154 76.0378 151.562 77.5031 152.593 79.4269C153.633 81.3506 154.153 83.6837 154.153 86.426ZM148.762 86.426C148.762 84.6496 148.496 83.1516 147.964 81.9318C147.44 80.7121 146.699 79.787 145.742 79.1567C144.784 78.5264 143.662 78.2112 142.377 78.2112C141.092 78.2112 139.97 78.5264 139.012 79.1567C138.055 79.787 137.31 80.7121 136.778 81.9318C136.254 83.1516 135.992 84.6496 135.992 86.426C135.992 88.2024 136.254 89.7005 136.778 90.9202C137.31 92.14 138.055 93.065 139.012 93.6954C139.97 94.3257 141.092 94.6409 142.377 94.6409C143.662 94.6409 144.784 94.3257 145.742 93.6954C146.699 93.065 147.44 92.14 147.964 90.9202C148.496 89.7005 148.762 88.2024 148.762 86.426ZM158.091 99V73.8521H174.742V78.2358H163.408V84.228H173.637V88.6117H163.408V99H158.091ZM178.318 99V73.8521H194.969V78.2358H183.635V84.228H193.864V88.6117H183.635V99H178.318Z" fill="#D37528"/>
</svg>
