<svg width="30" height="30" viewBox="0 0 30 30" fill="none" xmlns="http://www.w3.org/2000/svg">
<path d="M22.9838 5.20248C22.629 5.20248 22.2821 5.3077 21.9871 5.50484C21.692 5.70198 21.4621 5.98219 21.3263 6.31002C21.1905 6.63785 21.1549 6.99859 21.2242 7.34661C21.2934 7.69464 21.4643 8.01432 21.7152 8.26523C21.9661 8.51614 22.2858 8.68702 22.6338 8.75624C22.9818 8.82547 23.3426 8.78994 23.6704 8.65415C23.9982 8.51835 24.2784 8.2884 24.4756 7.99336C24.6727 7.69832 24.7779 7.35144 24.7779 6.9966C24.7779 6.52077 24.5889 6.06443 24.2524 5.72797C23.916 5.3915 23.4596 5.20248 22.9838 5.20248ZM29.8613 8.82062C29.8322 7.58013 29.5999 6.35281 29.1735 5.18753C28.7934 4.1905 28.2017 3.28768 27.4392 2.54121C26.6989 1.77486 25.7939 1.18691 24.7929 0.821844C23.6307 0.382525 22.402 0.144878 21.1598 0.119148C19.575 0.0294417 19.0667 0.0294418 15 0.0294418C10.9333 0.0294418 10.425 0.0294417 8.84019 0.119148C7.59799 0.144878 6.3693 0.382525 5.2071 0.821844C4.20789 1.19061 3.30374 1.77805 2.56078 2.54121C1.79443 3.28155 1.20648 4.18647 0.841413 5.18753C0.402095 6.34973 0.164448 7.57842 0.138717 8.82062C0.0490111 10.4054 0.0490112 10.9138 0.0490112 14.9804C0.0490112 19.0471 0.0490111 19.5554 0.138717 21.1402C0.164448 22.3824 0.402095 23.6111 0.841413 24.7733C1.20648 25.7744 1.79443 26.6793 2.56078 27.4196C3.30374 28.1828 4.20789 28.7702 5.2071 29.139C6.3693 29.5783 7.59799 29.816 8.84019 29.8417C10.425 29.9314 10.9333 29.9314 15 29.9314C19.0667 29.9314 19.575 29.9314 21.1598 29.8417C22.402 29.816 23.6307 29.5783 24.7929 29.139C25.7939 28.7739 26.6989 28.186 27.4392 27.4196C28.2051 26.6759 28.7973 25.7723 29.1735 24.7733C29.5999 23.608 29.8322 22.3807 29.8613 21.1402C29.8613 19.5554 29.951 19.0471 29.951 14.9804C29.951 10.9138 29.951 10.4054 29.8613 8.82062ZM27.1701 20.9608C27.1592 21.9099 26.9873 22.8502 26.6618 23.7417C26.423 24.3924 26.0396 24.9803 25.5404 25.4611C25.0555 25.9552 24.4688 26.3378 23.8211 26.5824C22.9295 26.9079 21.9892 27.0798 21.0402 27.0907C19.5451 27.1655 18.9919 27.1804 15.0598 27.1804C11.1277 27.1804 10.5745 27.1804 9.0794 27.0907C8.09397 27.1092 7.11274 26.9574 6.17891 26.6422C5.55962 26.3851 4.99981 26.0035 4.53431 25.5209C4.03807 25.0406 3.65944 24.4522 3.42793 23.8015C3.06291 22.8972 2.86046 21.9355 2.82989 20.9608C2.82989 19.4657 2.74019 18.9125 2.74019 14.9804C2.74019 11.0483 2.74019 10.4951 2.82989 9.00003C2.8366 8.02979 3.01372 7.06828 3.35318 6.15934C3.61639 5.52828 4.02039 4.96574 4.53431 4.51474C4.98854 4.00067 5.54991 3.5924 6.17891 3.31866C7.09025 2.9898 8.05077 2.81792 9.0196 2.81032C10.5147 2.81032 11.0679 2.72062 15 2.72062C18.9321 2.72062 19.4853 2.72062 20.9804 2.81032C21.9294 2.82121 22.8697 2.99309 23.7613 3.31866C24.4407 3.57081 25.0505 3.98076 25.5404 4.51474C26.0304 4.974 26.4132 5.53549 26.6618 6.15934C26.994 7.06976 27.166 8.03088 27.1701 9.00003C27.2448 10.4951 27.2598 11.0483 27.2598 14.9804C27.2598 18.9125 27.2448 19.4657 27.1701 20.9608ZM15 7.31057C13.4837 7.31352 12.0023 7.76587 10.7429 8.61043C9.4836 9.455 8.50286 10.6539 7.92464 12.0556C7.34642 13.4574 7.19666 14.9991 7.49429 16.4859C7.79192 17.9727 8.52358 19.3379 9.59682 20.4091C10.6701 21.4802 12.0367 22.2092 13.5241 22.504C15.0115 22.7987 16.5529 22.6459 17.9535 22.065C19.3541 21.484 20.5511 20.501 21.3932 19.24C22.2353 17.979 22.6848 16.4967 22.6848 14.9804C22.6868 13.9714 22.4892 12.9719 22.1036 12.0395C21.7179 11.1071 21.1517 10.2601 20.4375 9.54731C19.7233 8.83451 18.8752 8.26994 17.942 7.88608C17.0089 7.50221 16.009 7.30663 15 7.31057ZM15 19.9591C14.0153 19.9591 13.0527 19.6671 12.234 19.12C11.4152 18.573 10.7771 17.7954 10.4003 16.8857C10.0235 15.9759 9.92488 14.9749 10.117 14.0091C10.3091 13.0434 10.7833 12.1562 11.4795 11.46C12.1758 10.7637 13.0629 10.2895 14.0287 10.0974C14.9945 9.90531 15.9955 10.0039 16.9052 10.3807C17.815 10.7575 18.5925 11.3957 19.1396 12.2144C19.6867 13.0332 19.9787 13.9957 19.9787 14.9804C19.9787 15.6342 19.8499 16.2816 19.5997 16.8857C19.3495 17.4897 18.9828 18.0386 18.5204 18.5009C18.0581 18.9632 17.5093 19.3299 16.9052 19.5801C16.3012 19.8303 15.6538 19.9591 15 19.9591Z" fill="#210B01"/>
</svg>
