<svg width="29" height="29" viewBox="0 0 29 29" fill="none" xmlns="http://www.w3.org/2000/svg">
<path d="M19.9591 13.6842C19.9591 14.0131 20.2282 14.2823 20.5571 14.2823C20.886 14.2823 21.1551 14.0131 21.1551 13.6842C21.1551 10.3292 18.4281 7.60216 15.0731 7.60216C14.7441 7.60216 14.475 7.87128 14.475 8.2002C14.475 8.5351 14.7441 8.79824 15.0731 8.79824C17.7702 8.79824 19.9591 10.993 19.9591 13.6842ZM15.0731 0.294124C14.7441 0.294124 14.475 0.563241 14.475 0.892163C14.475 1.22108 14.7441 1.4902 15.0731 1.4902C21.801 1.4902 27.2731 6.96226 27.2731 13.6842C27.2731 14.0131 27.5362 14.2823 27.8711 14.2823C28.2 14.2823 28.4692 14.0131 28.4692 13.6842C28.4692 6.29844 22.4589 0.294124 15.0731 0.294124ZM20.9159 19.9876L20.1325 20.4122C18.8108 21.1358 17.1363 20.8906 16.0658 19.8201L9.75052 13.5048C8.68003 12.4343 8.43483 10.7598 9.15846 9.43217L9.58307 8.65471C10.0615 7.76962 10.2349 6.77687 10.0914 5.78412C9.95583 4.79338 9.49763 3.8749 8.78768 3.17069C7.91454 2.29756 6.75434 1.81912 5.5164 1.81912C4.27846 1.81912 3.11228 2.29756 2.23915 3.17069L1.93415 3.48167C0.319442 5.09638 0.134049 7.87726 1.40787 11.322C2.60993 14.6112 5.03199 18.1755 8.21356 21.3571C13.0637 26.2072 18.464 29 22.3392 29C23.8702 29 25.168 28.5634 26.089 27.6425L26.3999 27.3315C26.8306 26.9013 27.1722 26.3904 27.4051 25.8281C27.6381 25.2657 27.7578 24.6629 27.7575 24.0542C27.7491 22.8284 27.2619 21.6545 26.3999 20.783C24.9587 19.3417 22.7041 19.0187 20.9159 19.9876Z" fill="#210B01"/>
</svg>
