<svg width="31" height="31" viewBox="0 0 31 31" fill="none" xmlns="http://www.w3.org/2000/svg">
<path d="M22.3569 18.6373C22.0579 18.4878 20.1143 17.5907 19.8153 17.4412C19.5163 17.2917 19.2172 17.2917 18.9182 17.5907C18.6192 17.8897 18.0212 18.7868 17.7221 19.0858C17.5726 19.3848 17.2736 19.3848 16.9746 19.2353C15.928 18.7868 14.8814 18.1887 13.9844 17.4412C13.2368 16.6936 12.4893 15.7966 11.8913 14.8995C11.7417 14.6005 11.8912 14.3015 12.0408 14.152C12.1903 14.0025 12.3398 13.7034 12.6388 13.5539C12.7883 13.4044 12.9378 13.1054 12.9378 12.9559C13.0873 12.8064 13.0873 12.5074 12.9378 12.3579C12.7883 12.2083 12.0408 10.4142 11.7417 9.66668C11.5922 8.62011 11.2932 8.62011 10.9942 8.62011H10.2466C9.94762 8.62011 9.49909 8.91913 9.34958 9.06864C8.45252 9.9657 8.00399 11.0123 8.00399 12.2083C8.1535 13.5539 8.60203 14.8995 9.49909 16.0956C11.1437 18.4878 13.2368 20.4314 15.7785 21.6275C16.5261 21.9265 17.1241 22.2255 17.8716 22.375C18.6192 22.674 19.3667 22.674 20.2638 22.5245C21.3104 22.375 22.2074 21.6275 22.8055 20.7304C23.1045 20.1324 23.1045 19.5343 22.955 18.9363L22.3569 18.6373ZM26.0947 5.03188C20.2638 -0.799003 10.8447 -0.799003 5.0138 5.03188C0.229484 9.81619 -0.667575 17.1422 2.62164 22.9731L0.528503 30.5981L8.45252 28.5049C10.6952 29.701 13.0873 30.299 15.4795 30.299C23.7025 30.299 30.281 23.7206 30.281 15.4976C30.4305 11.6103 28.7859 7.87257 26.0947 5.03188ZM22.0579 25.9633C20.1143 27.1593 17.8716 27.9069 15.4795 27.9069C13.2368 27.9069 11.1437 27.3088 9.20007 26.2623L8.75154 25.9633L4.11674 27.1593L5.31282 22.674L5.0138 22.2255C1.42556 16.2451 3.21968 8.76962 9.05056 5.03188C14.8814 1.29413 22.3569 3.23776 25.9452 8.91913C29.5334 14.75 27.8888 22.375 22.0579 25.9633Z" fill="#210B01"/>
</svg>
