<svg width="235" height="43" viewBox="0 0 235 43" fill="none" xmlns="http://www.w3.org/2000/svg">
<path d="M21.3096 18.038C21.3096 18.4368 21.63 18.7501 22.0217 18.7501C22.8335 18.7501 23.4887 19.4124 23.4887 20.2171C23.4887 20.6088 23.8091 20.9292 24.2008 20.9292C24.5925 20.9292 24.9129 20.6088 24.9129 20.2171C24.9129 18.622 23.6168 17.3259 22.0217 17.3259C21.63 17.3259 21.3096 17.6464 21.3096 18.038ZM32.9029 20.9292C33.3017 20.9292 33.615 20.6088 33.615 20.2171C33.615 13.8223 28.4165 8.62378 22.0217 8.62378C21.63 8.62378 21.3096 8.94423 21.3096 9.3359C21.3096 9.72757 21.63 10.048 22.0217 10.048C27.6332 10.048 32.1908 14.6127 32.1908 20.2171C32.1908 20.6088 32.5112 20.9292 32.9029 20.9292Z" fill="#FFF9F2"/>
<path d="M27.8397 20.2171C27.8397 20.6088 28.1602 20.9292 28.5518 20.9292C28.9435 20.9292 29.264 20.6088 29.264 20.2171C29.264 16.2221 26.0167 12.9748 22.0217 12.9748C21.63 12.9748 21.3096 13.2953 21.3096 13.687C21.3096 14.0858 21.63 14.3991 22.0217 14.3991C25.2334 14.3991 27.8397 17.0126 27.8397 20.2171ZM22.0217 4.27272C21.63 4.27272 21.3096 4.59317 21.3096 4.98484C21.3096 5.37651 21.63 5.69696 22.0217 5.69696C30.0331 5.69696 36.549 12.2129 36.549 20.2171C36.549 20.6088 36.8623 20.9292 37.2611 20.9292C37.6528 20.9292 37.9732 20.6088 37.9732 20.2171C37.9732 11.4224 30.8164 4.27272 22.0217 4.27272ZM28.9791 27.7229L28.0462 28.2285C26.4725 29.0901 24.4785 28.7982 23.2038 27.5235L15.6838 20.0035C14.4091 18.7288 14.1171 16.7348 14.9788 15.1539L15.4844 14.2282C16.0541 13.1742 16.2606 11.9921 16.0897 10.81C15.9283 9.63026 15.3827 8.53657 14.5373 7.69802C13.4976 6.65833 12.1161 6.08863 10.642 6.08863C9.16791 6.08863 7.77927 6.65833 6.73957 7.69802L6.37639 8.06833C4.45366 9.99105 4.23291 13.3024 5.74972 17.4042C7.18109 21.3209 10.0652 25.5651 13.8537 29.3536C19.629 35.1289 26.0594 38.4545 30.674 38.4545C32.497 38.4545 34.0423 37.9347 35.139 36.838L35.5093 36.4677C36.0221 35.9555 36.4288 35.3471 36.7062 34.6775C36.9836 34.0079 37.1262 33.2901 37.1258 32.5653C37.1158 31.1057 36.5357 29.7078 35.5093 28.67C33.7931 26.9538 31.1084 26.5692 28.9791 27.7229Z" fill="#FFF9F2"/>
<path d="M58.3801 29.5859C56.4831 29.5859 55.0307 28.9561 54.0229 27.6963C53.0299 26.4218 52.5335 24.6952 52.5335 22.5166C52.5335 20.9753 52.8225 19.6711 53.4005 18.604C53.9784 17.5221 54.7417 16.7144 55.6902 16.1809C56.6535 15.6325 57.7206 15.3583 58.8914 15.3583C60.8032 15.3583 62.2408 15.966 63.2041 17.1813C64.1675 18.3817 64.6491 20.0861 64.6491 22.2943C64.6491 23.8208 64.3676 25.1398 63.8044 26.2513C63.256 27.3481 62.5076 28.178 61.5591 28.7412C60.6106 29.3044 59.5509 29.5859 58.3801 29.5859ZM58.6024 28.2521C59.5361 28.2521 60.2178 27.7778 60.6476 26.8293C61.0922 25.866 61.3145 24.4358 61.3145 22.5388C61.3145 20.5233 61.1071 19.0486 60.6921 18.1149C60.2919 17.1664 59.6028 16.6922 58.6246 16.6922C56.7869 16.6922 55.868 18.5521 55.868 22.2721C55.868 24.258 56.0829 25.7549 56.5127 26.7627C56.9573 27.7556 57.6539 28.2521 58.6024 28.2521ZM67.0995 25.3177C67.0995 24.4581 67.3811 23.6726 67.9443 22.9612C68.5075 22.235 69.3374 21.6348 70.4341 21.1605C69.6042 20.627 68.9595 20.0342 68.5001 19.3821C68.0406 18.7152 67.8109 17.8926 67.8109 16.9145C67.8109 16.0253 68.048 15.262 68.5223 14.6247C69.0114 13.9726 69.6635 13.4762 70.4786 13.1353C71.2937 12.7944 72.1904 12.624 73.1685 12.624C74.2059 12.624 75.1026 12.7796 75.8584 13.0908C76.6142 13.4021 77.1922 13.8393 77.5924 14.4024C77.9925 14.9656 78.1926 15.6103 78.1926 16.3365C78.1926 17.1516 77.9407 17.9 77.4368 18.5818C76.9329 19.2487 76.2067 19.8193 75.2582 20.2935C76.429 20.9605 77.3479 21.657 78.0148 22.3832C78.6817 23.1094 79.0151 24.0061 79.0151 25.0731C79.0151 25.992 78.7484 26.7923 78.2148 27.474C77.6961 28.1558 76.9699 28.6819 76.0362 29.0524C75.1174 29.4229 74.08 29.6082 72.924 29.6082C71.2937 29.6082 69.9154 29.2599 68.7891 28.5633C67.6627 27.852 67.0995 26.7701 67.0995 25.3177ZM70.5897 16.2253C70.5897 16.7144 70.738 17.159 71.0344 17.5592C71.3456 17.9445 71.7235 18.2854 72.1681 18.5818C72.6276 18.8634 73.2574 19.2191 74.0577 19.6489C74.6061 19.308 75.0285 18.893 75.3249 18.4039C75.6361 17.9149 75.7917 17.3887 75.7917 16.8256C75.7917 15.8919 75.5546 15.1731 75.0803 14.6692C74.6209 14.1653 73.9762 13.9134 73.1463 13.9134C72.4349 13.9134 71.8273 14.1208 71.3234 14.5358C70.8343 14.936 70.5897 15.4991 70.5897 16.2253ZM75.8584 25.6511C75.8584 25.1472 75.7102 24.71 75.4138 24.3395C75.1174 23.9542 74.7469 23.6207 74.3023 23.3391C73.8725 23.0575 73.2648 22.7093 72.4793 22.2943C72.0644 22.0868 71.7532 21.9238 71.5457 21.8052C70.9973 22.1609 70.5527 22.5981 70.2118 23.1168C69.8858 23.6355 69.7228 24.2061 69.7228 24.8286C69.7228 25.8512 70.0118 26.6737 70.5897 27.2962C71.1826 27.9186 71.9903 28.2299 73.0129 28.2299C73.502 28.2299 73.9614 28.1261 74.3912 27.9186C74.8358 27.6963 75.1915 27.3925 75.4583 27.0072C75.725 26.6219 75.8584 26.1698 75.8584 25.6511ZM84.0976 18.4706C83.8457 18.5596 83.3937 18.6781 82.7416 18.8263C82.0895 18.9597 81.5782 19.0486 81.2076 19.0931L80.9631 17.5369C81.7634 17.3739 82.5934 17.0849 83.4529 16.67C84.3273 16.2402 85.0387 15.7956 85.5871 15.3361H85.6093L87.3655 15.5807V27.8075L89.8998 28.052V29.3636H81.4299V28.052L84.0976 27.8297V18.4706ZM92.3231 31.3866C92.8863 31.4163 93.3161 31.4311 93.6125 31.4311C94.6351 31.4311 95.5614 31.2236 96.3913 30.8086C97.2361 30.3937 97.903 29.8305 98.3921 29.1191C98.8811 28.3929 99.1257 27.5926 99.1257 26.7182C99.1257 25.6067 98.8589 24.8064 98.3254 24.3173C97.7918 23.8282 97.0212 23.5837 96.0134 23.5837C95.5243 23.5837 94.9834 23.6504 94.3906 23.7837C93.8126 23.9171 93.3309 24.0727 92.9456 24.2506L92.212 23.7393L93.279 15.5362H100.148L100.371 15.1138H101.905L101.438 17.8926H95.3465L94.435 22.5166C94.8648 22.2943 95.3761 22.1016 95.9689 21.9386C96.5766 21.7608 97.2213 21.6718 97.903 21.6718C99.4147 21.6718 100.571 22.0646 101.371 22.8501C102.186 23.6355 102.594 24.7471 102.594 26.1847C102.594 27.4592 102.216 28.6078 101.46 29.6304C100.719 30.6678 99.6815 31.4755 98.3476 32.0535C97.0286 32.6464 95.5391 32.9428 93.8793 32.9428C93.3161 32.9428 92.7974 32.8909 92.3231 32.7871V31.3866ZM115.472 23.2947H106.424V21.205H115.472V23.2947ZM125.05 29.5859C123.153 29.5859 121.701 28.9561 120.693 27.6963C119.7 26.4218 119.204 24.6952 119.204 22.5166C119.204 20.9753 119.493 19.6711 120.071 18.604C120.649 17.5221 121.412 16.7144 122.36 16.1809C123.324 15.6325 124.391 15.3583 125.562 15.3583C127.473 15.3583 128.911 15.966 129.874 17.1813C130.838 18.3817 131.319 20.0861 131.319 22.2943C131.319 23.8208 131.038 25.1398 130.474 26.2513C129.926 27.3481 129.178 28.178 128.229 28.7412C127.281 29.3044 126.221 29.5859 125.05 29.5859ZM125.273 28.2521C126.206 28.2521 126.888 27.7778 127.318 26.8293C127.762 25.866 127.985 24.4358 127.985 22.5388C127.985 20.5233 127.777 19.0486 127.362 18.1149C126.962 17.1664 126.273 16.6922 125.295 16.6922C123.457 16.6922 122.538 18.5521 122.538 22.2721C122.538 24.258 122.753 25.7549 123.183 26.7627C123.627 27.7556 124.324 28.2521 125.273 28.2521ZM139.661 29.5859C137.764 29.5859 136.311 28.9561 135.304 27.6963C134.311 26.4218 133.814 24.6952 133.814 22.5166C133.814 20.9753 134.103 19.6711 134.681 18.604C135.259 17.5221 136.022 16.7144 136.971 16.1809C137.934 15.6325 139.001 15.3583 140.172 15.3583C142.084 15.3583 143.521 15.966 144.485 17.1813C145.448 18.3817 145.93 20.0861 145.93 22.2943C145.93 23.8208 145.648 25.1398 145.085 26.2513C144.537 27.3481 143.788 28.178 142.84 28.7412C141.891 29.3044 140.832 29.5859 139.661 29.5859ZM139.883 28.2521C140.817 28.2521 141.499 27.7778 141.928 26.8293C142.373 25.866 142.595 24.4358 142.595 22.5388C142.595 20.5233 142.388 19.0486 141.973 18.1149C141.573 17.1664 140.883 16.6922 139.905 16.6922C138.068 16.6922 137.149 18.5521 137.149 22.2721C137.149 24.258 137.364 25.7549 137.793 26.7627C138.238 27.7556 138.935 28.2521 139.883 28.2521ZM154.271 29.5859C152.374 29.5859 150.922 28.9561 149.914 27.6963C148.921 26.4218 148.425 24.6952 148.425 22.5166C148.425 20.9753 148.714 19.6711 149.292 18.604C149.87 17.5221 150.633 16.7144 151.581 16.1809C152.545 15.6325 153.612 15.3583 154.783 15.3583C156.694 15.3583 158.132 15.966 159.095 17.1813C160.059 18.3817 160.54 20.0861 160.54 22.2943C160.54 23.8208 160.259 25.1398 159.696 26.2513C159.147 27.3481 158.399 28.178 157.45 28.7412C156.502 29.3044 155.442 29.5859 154.271 29.5859ZM154.494 28.2521C155.427 28.2521 156.109 27.7778 156.539 26.8293C156.983 25.866 157.206 24.4358 157.206 22.5388C157.206 20.5233 156.998 19.0486 156.583 18.1149C156.183 17.1664 155.494 16.6922 154.516 16.6922C152.678 16.6922 151.759 18.5521 151.759 22.2721C151.759 24.258 151.974 25.7549 152.404 26.7627C152.849 27.7556 153.545 28.2521 154.494 28.2521ZM173.328 23.2947H164.28V21.205H173.328V23.2947ZM182.906 29.5859C181.009 29.5859 179.557 28.9561 178.549 27.6963C177.556 26.4218 177.06 24.6952 177.06 22.5166C177.06 20.9753 177.349 19.6711 177.927 18.604C178.505 17.5221 179.268 16.7144 180.216 16.1809C181.18 15.6325 182.247 15.3583 183.418 15.3583C185.329 15.3583 186.767 15.966 187.73 17.1813C188.694 18.3817 189.175 20.0861 189.175 22.2943C189.175 23.8208 188.894 25.1398 188.331 26.2513C187.782 27.3481 187.034 28.178 186.085 28.7412C185.137 29.3044 184.077 29.5859 182.906 29.5859ZM183.129 28.2521C184.062 28.2521 184.744 27.7778 185.174 26.8293C185.618 25.866 185.841 24.4358 185.841 22.5388C185.841 20.5233 185.633 19.0486 185.218 18.1149C184.818 17.1664 184.129 16.6922 183.151 16.6922C181.313 16.6922 180.394 18.5521 180.394 22.2721C180.394 24.258 180.609 25.7549 181.039 26.7627C181.483 27.7556 182.18 28.2521 183.129 28.2521ZM197.517 29.5859C195.62 29.5859 194.167 28.9561 193.16 27.6963C192.167 26.4218 191.67 24.6952 191.67 22.5166C191.67 20.9753 191.959 19.6711 192.537 18.604C193.115 17.5221 193.878 16.7144 194.827 16.1809C195.79 15.6325 196.857 15.3583 198.028 15.3583C199.94 15.3583 201.378 15.966 202.341 17.1813C203.304 18.3817 203.786 20.0861 203.786 22.2943C203.786 23.8208 203.504 25.1398 202.941 26.2513C202.393 27.3481 201.644 28.178 200.696 28.7412C199.747 29.3044 198.688 29.5859 197.517 29.5859ZM197.739 28.2521C198.673 28.2521 199.355 27.7778 199.784 26.8293C200.229 25.866 200.451 24.4358 200.451 22.5388C200.451 20.5233 200.244 19.0486 199.829 18.1149C199.429 17.1664 198.739 16.6922 197.761 16.6922C195.924 16.6922 195.005 18.5521 195.005 22.2721C195.005 24.258 195.22 25.7549 195.649 26.7627C196.094 27.7556 196.791 28.2521 197.739 28.2521ZM212.127 29.5859C210.23 29.5859 208.778 28.9561 207.77 27.6963C206.777 26.4218 206.281 24.6952 206.281 22.5166C206.281 20.9753 206.57 19.6711 207.148 18.604C207.726 17.5221 208.489 16.7144 209.437 16.1809C210.401 15.6325 211.468 15.3583 212.639 15.3583C214.55 15.3583 215.988 15.966 216.951 17.1813C217.915 18.3817 218.396 20.0861 218.396 22.2943C218.396 23.8208 218.115 25.1398 217.552 26.2513C217.003 27.3481 216.255 28.178 215.306 28.7412C214.358 29.3044 213.298 29.5859 212.127 29.5859ZM212.35 28.2521C213.283 28.2521 213.965 27.7778 214.395 26.8293C214.839 25.866 215.062 24.4358 215.062 22.5388C215.062 20.5233 214.854 19.0486 214.439 18.1149C214.039 17.1664 213.35 16.6922 212.372 16.6922C210.534 16.6922 209.615 18.5521 209.615 22.2721C209.615 24.258 209.83 25.7549 210.26 26.7627C210.705 27.7556 211.401 28.2521 212.35 28.2521ZM226.738 29.5859C224.841 29.5859 223.388 28.9561 222.381 27.6963C221.388 26.4218 220.891 24.6952 220.891 22.5166C220.891 20.9753 221.18 19.6711 221.758 18.604C222.336 17.5221 223.099 16.7144 224.048 16.1809C225.011 15.6325 226.078 15.3583 227.249 15.3583C229.161 15.3583 230.599 15.966 231.562 17.1813C232.525 18.3817 233.007 20.0861 233.007 22.2943C233.007 23.8208 232.725 25.1398 232.162 26.2513C231.614 27.3481 230.865 28.178 229.917 28.7412C228.968 29.3044 227.909 29.5859 226.738 29.5859ZM226.96 28.2521C227.894 28.2521 228.576 27.7778 229.005 26.8293C229.45 25.866 229.672 24.4358 229.672 22.5388C229.672 20.5233 229.465 19.0486 229.05 18.1149C228.65 17.1664 227.961 16.6922 226.982 16.6922C225.145 16.6922 224.226 18.5521 224.226 22.2721C224.226 24.258 224.441 25.7549 224.871 26.7627C225.315 27.7556 226.012 28.2521 226.96 28.2521Z" fill="#FFCA6C"/>
</svg>
