<svg width="302" height="143" viewBox="0 0 302 143" fill="none" xmlns="http://www.w3.org/2000/svg">
<path d="M157.191 28.5583C156.834 25.2095 155.659 22.6088 153.664 20.7563C151.704 18.9038 149.175 17.9775 146.076 17.9775C144.187 17.9775 142.406 18.3872 140.732 19.2066C139.093 19.9904 137.65 21.1304 136.403 22.6266C135.156 24.1229 134.177 25.922 133.464 28.0239C132.752 30.1258 132.395 32.4949 132.395 35.1311C132.395 38.4799 133.037 41.4368 134.319 44.0019C135.602 46.5669 137.33 48.5619 139.503 49.9869C141.676 51.4119 144.081 52.1244 146.717 52.1244C149.032 52.1244 151.312 51.6079 153.557 50.5747C155.801 49.506 157.636 47.9741 159.061 45.9791L160.45 47.1013C158.918 49.2032 157.262 50.8241 155.481 51.9641C153.699 53.1041 151.918 53.8701 150.137 54.262C148.391 54.6895 146.788 54.9032 145.327 54.9032C142.656 54.9032 140.197 54.4223 137.953 53.4604C135.744 52.4985 133.82 51.1626 132.182 49.4525C130.579 47.7069 129.332 45.6941 128.441 43.414C127.586 41.0984 127.158 38.6046 127.158 35.9327C127.158 33.4033 127.533 30.9452 128.281 28.5583C129.064 26.1714 130.222 24.016 131.754 22.0923C133.286 20.1685 135.21 18.6366 137.525 17.4966C139.877 16.3566 142.602 15.7866 145.701 15.7866C147.696 15.7866 149.585 16.0538 151.366 16.5881C153.147 17.1225 154.857 17.9419 156.496 19.0463L156.229 16.1606H159.114V28.5583H157.191Z" fill="#FFCA6C"/>
<path d="M159.462 67.2881L147.331 38.8591C146.548 37.0422 145.995 35.5815 145.675 34.4771C145.354 33.3371 145.14 32.3752 145.033 31.5915C144.535 31.6271 144.036 31.6449 143.537 31.6449C143.038 31.6449 142.54 31.6627 142.041 31.6984V29.3471H154.439L154.385 31.164C152.604 31.2708 151.535 31.823 151.179 32.8206C150.823 33.7824 151.001 35.154 151.713 36.9353C152.568 39.0372 153.388 41.0678 154.171 43.0272C154.955 44.9866 155.828 47.1063 156.79 49.3864C157.645 51.3814 158.464 53.3051 159.248 55.1577C160.067 56.9746 160.691 58.4886 161.118 59.6999H161.225C161.617 58.453 162.009 57.2596 162.401 56.1195C162.828 54.9795 163.327 53.6258 163.897 52.0583C164.966 49.0657 165.857 46.5363 166.569 44.4701C167.317 42.4038 167.958 40.6403 168.493 39.1797C169.027 37.719 169.472 36.4722 169.829 35.439C170.149 34.5128 170.434 33.729 170.684 33.0877C170.933 32.4465 171.165 31.9121 171.378 31.4846C170.702 31.5202 170.025 31.5559 169.348 31.5915C168.671 31.6271 167.976 31.6627 167.264 31.6984V29.3471H178.112V31.1105C176.544 31.1818 175.333 31.5915 174.478 32.3396C173.658 33.0877 172.91 34.4237 172.233 36.3475C172.162 36.5256 172.073 36.775 171.966 37.0956C171.859 37.3806 171.681 37.8615 171.432 38.5384C171.183 39.2153 170.826 40.2128 170.363 41.531C169.9 42.8135 169.259 44.5591 168.439 46.7679C167.656 48.9767 166.64 51.7554 165.393 55.1042C164.182 58.453 162.704 62.5143 160.958 67.2881H159.462Z" fill="#FFCA6C"/>
<path d="M159.462 67.2881L157.994 67.9144L158.408 68.884H159.462V67.2881ZM147.331 38.8591L148.799 38.2327L148.797 38.227L147.331 38.8591ZM145.675 34.4771L144.138 34.9092L144.142 34.9221L145.675 34.4771ZM145.033 31.5915L146.615 31.3759L146.412 29.893L144.92 29.9997L145.033 31.5915ZM142.041 31.6984H140.445V33.4123L142.155 33.2902L142.041 31.6984ZM142.041 29.3471V27.7512H140.445V29.3471H142.041ZM154.439 29.3471L156.034 29.394L156.082 27.7512H154.439V29.3471ZM154.385 31.164L154.481 32.757L155.937 32.6696L155.98 31.2109L154.385 31.164ZM151.179 32.8206L152.675 33.3748L152.679 33.3661L152.682 33.3573L151.179 32.8206ZM151.713 36.9353L150.231 37.528L150.235 37.5366L151.713 36.9353ZM154.171 43.0272L155.653 42.4345L154.171 43.0272ZM156.79 49.3864L155.319 50.0067L155.323 50.015L156.79 49.3864ZM159.248 55.1577L157.778 55.7795L157.786 55.7967L157.793 55.8137L159.248 55.1577ZM161.118 59.6999L159.613 60.231L159.989 61.2958H161.118V59.6999ZM161.225 59.6999V61.2958H162.396L162.748 60.1784L161.225 59.6999ZM162.401 56.1195L160.907 55.5592L160.899 55.5799L160.892 55.6008L162.401 56.1195ZM163.897 52.0583L165.397 52.6036L165.4 52.595L163.897 52.0583ZM166.569 44.4701L165.068 43.9268L165.064 43.9383L165.06 43.9498L166.569 44.4701ZM168.493 39.1797L166.994 38.6314L168.493 39.1797ZM169.829 35.439L168.321 34.917L168.32 34.9188L169.829 35.439ZM170.684 33.0877L169.196 32.5093L169.196 32.5093L170.684 33.0877ZM171.378 31.4846L172.806 32.1983L174.032 29.7469L171.295 29.891L171.378 31.4846ZM169.348 31.5915L169.264 29.9978H169.264L169.348 31.5915ZM167.264 31.6984H165.668V33.376L167.343 33.2922L167.264 31.6984ZM167.264 29.3471V27.7512H165.668V29.3471H167.264ZM178.112 29.3471H179.707V27.7512H178.112V29.3471ZM178.112 31.1105L178.184 32.7047L179.707 32.6355V31.1105H178.112ZM174.478 32.3396L173.427 31.1386L173.414 31.1497L173.402 31.1611L174.478 32.3396ZM172.233 36.3475L173.715 36.9402L173.728 36.9089L173.739 36.8771L172.233 36.3475ZM171.966 37.0956L173.461 37.6559L173.471 37.6283L173.48 37.6002L171.966 37.0956ZM171.432 38.5384L169.934 37.9867V37.9867L171.432 38.5384ZM170.363 41.531L171.864 42.073L171.869 42.06L170.363 41.531ZM168.439 46.7679L166.943 46.2128L166.939 46.2235L166.935 46.2342L168.439 46.7679ZM165.393 55.1042L163.898 54.5474L163.895 54.5544L163.893 54.5614L165.393 55.1042ZM160.958 67.2881V68.884H162.074L162.457 67.8362L160.958 67.2881ZM160.93 66.6618L148.799 38.2327L145.863 39.4854L157.994 67.9144L160.93 66.6618ZM148.797 38.227C148.023 36.4343 147.501 35.0435 147.207 34.0322L144.142 34.9221C144.49 36.1196 145.072 37.65 145.866 39.4912L148.797 38.227ZM147.211 34.0451C146.902 32.9449 146.708 32.0602 146.615 31.3759L143.452 31.8071C143.573 32.6903 143.807 33.7294 144.138 34.9092L147.211 34.0451ZM144.92 29.9997C144.459 30.0326 143.998 30.0491 143.537 30.0491V33.2408C144.074 33.2408 144.611 33.2216 145.147 33.1833L144.92 29.9997ZM143.537 30.0491C143 30.0491 142.464 30.0682 141.927 30.1066L142.155 33.2902C142.616 33.2572 143.076 33.2408 143.537 33.2408V30.0491ZM143.637 31.6984V29.3471H140.445V31.6984H143.637ZM142.041 30.9429H154.439V27.7512H142.041V30.9429ZM152.843 29.3002L152.79 31.1171L155.98 31.2109L156.034 29.394L152.843 29.3002ZM154.29 29.571C152.347 29.6876 150.372 30.3354 149.676 32.2838L152.682 33.3573C152.705 33.2914 152.752 33.1938 152.98 33.0761C153.245 32.9392 153.714 32.8029 154.481 32.757L154.29 29.571ZM149.682 32.2663C149.111 33.8096 149.485 35.6621 150.232 37.528L153.195 36.3426C152.516 34.646 152.534 33.7552 152.675 33.3748L149.682 32.2663ZM150.235 37.5366C151.089 39.6358 151.907 41.6636 152.69 43.6199L155.653 42.4345C154.868 40.4721 154.048 38.4385 153.191 36.334L150.235 37.5366ZM152.69 43.6199C153.478 45.59 154.354 47.719 155.319 50.0067L158.26 48.766C157.302 46.4937 156.433 44.3833 155.653 42.4345L152.69 43.6199ZM155.323 50.015C156.177 52.0079 156.996 53.9294 157.778 55.7795L160.718 54.5359C159.933 52.6809 159.113 50.7548 158.257 48.7577L155.323 50.015ZM157.793 55.8137C158.603 57.6093 159.207 59.0784 159.613 60.231L162.623 59.1688C162.175 57.8988 161.532 56.3398 160.703 54.5016L157.793 55.8137ZM161.118 61.2958H161.225V58.104H161.118V61.2958ZM162.748 60.1784C163.136 58.9439 163.523 57.7639 163.91 56.6383L160.892 55.6008C160.495 56.7552 160.099 57.9622 159.703 59.2214L162.748 60.1784ZM163.895 56.6799C164.325 55.5335 164.826 54.1745 165.397 52.6036L162.397 51.5129C161.829 53.0771 161.332 54.4256 160.907 55.5592L163.895 56.6799ZM165.4 52.595C166.47 49.5992 167.363 47.0639 168.078 44.9903L165.06 43.9498C164.35 46.0087 163.462 48.5323 162.394 51.5215L165.4 52.595ZM168.07 45.0133C168.817 42.9481 169.458 41.1864 169.991 39.728L166.994 38.6314C166.459 40.0942 165.817 41.8594 165.068 43.9268L168.07 45.0133ZM169.991 39.728C170.528 38.2616 170.977 37.0048 171.337 35.9593L168.32 34.9188C167.968 35.9395 167.526 37.1765 166.994 38.6314L169.991 39.728ZM171.337 35.961C171.653 35.0465 171.931 34.2828 172.171 33.6662L169.196 32.5093C168.937 33.1752 168.645 33.979 168.321 34.917L171.337 35.961ZM172.171 33.6662C172.41 33.0528 172.621 32.5672 172.806 32.1983L169.951 30.7709C169.708 31.2571 169.457 31.8402 169.196 32.5093L172.171 33.6662ZM171.295 29.891C171.235 29.8941 171.347 29.8882 171.287 29.8914C171.281 29.8917 171.284 29.8915 171.279 29.8918C171.271 29.8922 171.27 29.8922 171.263 29.8926C171.257 29.8929 171.253 29.8931 171.247 29.8935C171.232 29.8942 171.246 29.8935 171.231 29.8943C171.218 29.895 171.228 29.8944 171.215 29.8951C171.207 29.8955 171.207 29.8955 171.199 29.896C171.193 29.8963 171.19 29.8965 171.184 29.8968C171.169 29.8976 171.182 29.8969 171.168 29.8976C171.115 29.9004 171.213 29.8953 171.16 29.8981C171.154 29.8983 171.158 29.8982 171.152 29.8985C171.144 29.8989 171.144 29.8989 171.136 29.8993C171.13 29.8996 171.126 29.8998 171.12 29.9001C171.12 29.9002 171.105 29.9009 171.104 29.901C171.091 29.9017 171.102 29.9011 171.088 29.9018C171.081 29.9022 171.08 29.9022 171.072 29.9026C171.066 29.903 171.063 29.9031 171.057 29.9035C171.042 29.9042 171.055 29.9035 171.041 29.9043C170.981 29.9075 171.093 29.9016 171.033 29.9047C171.027 29.905 171.031 29.9048 171.025 29.9051C171.017 29.9055 171.017 29.9056 171.009 29.906C171.003 29.9063 170.999 29.9065 170.993 29.9068C170.978 29.9076 170.992 29.9069 170.977 29.9077C170.964 29.9083 170.975 29.9078 170.961 29.9085C170.953 29.9089 170.954 29.9089 170.946 29.9093C170.939 29.9096 170.936 29.9098 170.93 29.9102C170.915 29.9109 170.928 29.9102 170.914 29.911C170.861 29.9138 170.959 29.9086 170.906 29.9114C170.9 29.9117 170.904 29.9115 170.898 29.9118C170.89 29.9122 170.89 29.9123 170.882 29.9127C170.876 29.913 170.872 29.9132 170.866 29.9135C170.866 29.9135 170.851 29.9143 170.85 29.9143C170.837 29.915 170.848 29.9145 170.835 29.9152C170.827 29.9156 170.826 29.9156 170.819 29.916C170.812 29.9163 170.809 29.9165 170.803 29.9168C170.788 29.9176 170.802 29.9169 170.787 29.9177C170.727 29.9208 170.839 29.9149 170.779 29.9181C170.773 29.9184 170.777 29.9182 170.771 29.9185C170.763 29.9189 170.763 29.9189 170.755 29.9193C170.749 29.9197 170.745 29.9199 170.739 29.9202C170.725 29.9209 170.738 29.9202 170.723 29.921C170.71 29.9217 170.721 29.9212 170.708 29.9218C170.7 29.9223 170.7 29.9223 170.692 29.9227C170.686 29.923 170.682 29.9232 170.676 29.9235C170.661 29.9243 170.675 29.9236 170.66 29.9244C170.607 29.9271 170.705 29.922 170.652 29.9248C170.646 29.9251 170.65 29.9249 170.644 29.9252C170.637 29.9256 170.636 29.9256 170.628 29.926C170.622 29.9263 170.619 29.9265 170.612 29.9269C170.612 29.9269 170.597 29.9277 170.597 29.9277C170.583 29.9284 170.594 29.9278 170.581 29.9285C170.573 29.9289 170.572 29.929 170.565 29.9294C170.558 29.9297 170.555 29.9299 170.549 29.9302C170.534 29.931 170.548 29.9303 170.533 29.931C170.473 29.9342 170.585 29.9283 170.525 29.9314C170.519 29.9317 170.523 29.9316 170.517 29.9319C170.51 29.9323 170.509 29.9323 170.501 29.9327C170.495 29.933 170.492 29.9332 170.485 29.9335C170.471 29.9343 170.484 29.9336 170.47 29.9344C170.456 29.9351 170.467 29.9345 170.454 29.9352C170.446 29.9356 170.446 29.9356 170.438 29.936C170.432 29.9364 170.428 29.9366 170.422 29.9369C170.407 29.9376 170.421 29.9369 170.406 29.9377C170.353 29.9405 170.451 29.9353 170.398 29.9381C170.393 29.9384 170.396 29.9382 170.39 29.9385C170.383 29.9389 170.382 29.939 170.374 29.9394C170.368 29.9397 170.365 29.9399 170.359 29.9402C170.358 29.9402 170.343 29.941 170.343 29.941C170.329 29.9418 170.34 29.9412 170.327 29.9419C170.319 29.9423 170.319 29.9423 170.311 29.9427C170.304 29.9431 170.302 29.9432 170.295 29.9436C170.28 29.9443 170.294 29.9436 170.279 29.9444C170.219 29.9475 170.331 29.9417 170.271 29.9448C170.266 29.9451 170.269 29.9449 170.263 29.9452C170.256 29.9456 170.255 29.9457 170.248 29.9461C170.241 29.9464 170.238 29.9466 170.232 29.9469C170.217 29.9477 170.23 29.947 170.216 29.9477C170.203 29.9484 170.213 29.9479 170.2 29.9486C170.192 29.949 170.192 29.949 170.184 29.9494C170.178 29.9497 170.174 29.9499 170.168 29.9502C170.154 29.951 170.167 29.9503 170.152 29.9511C170.099 29.9539 170.197 29.9487 170.144 29.9515C170.139 29.9518 170.142 29.9516 170.136 29.9519C170.129 29.9523 170.128 29.9523 170.121 29.9527C170.114 29.9531 170.111 29.9533 170.105 29.9536C170.104 29.9536 170.089 29.9544 170.089 29.9544C170.075 29.9551 170.087 29.9545 170.073 29.9552C170.065 29.9556 170.065 29.9557 170.057 29.9561C170.051 29.9564 170.048 29.9566 170.041 29.9569C170.027 29.9577 170.04 29.957 170.025 29.9577C169.965 29.9609 170.077 29.955 170.017 29.9582C170.012 29.9585 170.015 29.9583 170.01 29.9586C170.002 29.959 170.001 29.959 169.994 29.9594C169.988 29.9597 169.984 29.9599 169.978 29.9603C169.963 29.961 169.977 29.9603 169.962 29.9611C169.949 29.9618 169.959 29.9612 169.946 29.9619C169.938 29.9623 169.938 29.9623 169.93 29.9628C169.924 29.9631 169.92 29.9633 169.914 29.9636C169.9 29.9644 169.913 29.9637 169.899 29.9644C169.846 29.9672 169.943 29.9621 169.891 29.9648C169.885 29.9651 169.888 29.965 169.883 29.9653C169.875 29.9657 169.874 29.9657 169.867 29.9661C169.861 29.9664 169.857 29.9666 169.851 29.9669C169.85 29.967 169.836 29.9677 169.835 29.9678C169.821 29.9685 169.833 29.9679 169.819 29.9686C169.812 29.969 169.811 29.969 169.803 29.9694C169.797 29.9698 169.794 29.9699 169.787 29.9703C169.773 29.971 169.786 29.9703 169.772 29.9711C169.712 29.9743 169.824 29.9684 169.764 29.9715C169.758 29.9718 169.761 29.9716 169.756 29.9719C169.748 29.9723 169.747 29.9724 169.74 29.9728C169.734 29.9731 169.73 29.9733 169.724 29.9736C169.709 29.9744 169.723 29.9737 169.708 29.9744C169.695 29.9751 169.705 29.9746 169.692 29.9753C169.684 29.9757 169.684 29.9757 169.676 29.9761C169.67 29.9764 169.667 29.9766 169.661 29.977C169.646 29.9777 169.659 29.977 169.645 29.9778C169.592 29.9806 169.69 29.9754 169.637 29.9782C169.631 29.9785 169.635 29.9783 169.629 29.9786C169.621 29.979 169.621 29.9791 169.613 29.9795C169.607 29.9798 169.603 29.98 169.597 29.9803C169.597 29.9803 169.582 29.9811 169.581 29.9811C169.568 29.9818 169.579 29.9813 169.565 29.982C169.558 29.9824 169.557 29.9824 169.549 29.9828C169.543 29.9831 169.54 29.9833 169.534 29.9836C169.519 29.9844 169.532 29.9837 169.518 29.9845C169.458 29.9876 169.57 29.9817 169.51 29.9849C169.504 29.9852 169.508 29.985 169.502 29.9853C169.494 29.9857 169.494 29.9857 169.486 29.9861C169.48 29.9865 169.476 29.9867 169.47 29.987C169.456 29.9877 169.469 29.987 169.454 29.9878C169.441 29.9885 169.452 29.9879 169.438 29.9886C169.43 29.9891 169.431 29.9891 169.423 29.9895C169.416 29.9898 169.413 29.99 169.407 29.9903C169.392 29.9911 169.405 29.9904 169.391 29.9911C169.338 29.9939 169.436 29.9888 169.383 29.9916C169.377 29.9919 169.381 29.9917 169.375 29.992C169.367 29.9924 169.367 29.9924 169.359 29.9928C169.353 29.9931 169.349 29.9933 169.343 29.9937C169.343 29.9937 169.328 29.9945 169.327 29.9945C169.314 29.9952 169.325 29.9946 169.312 29.9953C169.304 29.9957 169.303 29.9958 169.296 29.9962C169.289 29.9965 169.286 29.9967 169.28 29.997C169.265 29.9978 169.279 29.9971 169.264 29.9978L169.432 33.1851C169.492 33.182 169.38 33.1879 169.44 33.1847C169.445 33.1844 169.442 33.1846 169.448 33.1843C169.455 33.1839 169.456 33.1839 169.463 33.1835C169.47 33.1831 169.473 33.1829 169.479 33.1826C169.494 33.1818 169.48 33.1826 169.495 33.1818C169.508 33.1811 169.498 33.1816 169.511 33.181C169.519 33.1805 169.519 33.1805 169.527 33.1801C169.533 33.1798 169.537 33.1796 169.543 33.1793C169.557 33.1785 169.544 33.1792 169.559 33.1784C169.611 33.1757 169.514 33.1808 169.567 33.178C169.572 33.1777 169.569 33.1779 169.574 33.1776C169.582 33.1772 169.583 33.1772 169.59 33.1768C169.596 33.1765 169.6 33.1763 169.606 33.1759C169.607 33.1759 169.621 33.1751 169.622 33.1751C169.636 33.1744 169.624 33.175 169.638 33.1743C169.646 33.1739 169.646 33.1738 169.654 33.1734C169.66 33.1731 169.663 33.1729 169.67 33.1726C169.684 33.1718 169.671 33.1725 169.686 33.1718C169.745 33.1686 169.634 33.1745 169.693 33.1713C169.699 33.171 169.696 33.1712 169.701 33.1709C169.709 33.1705 169.71 33.1705 169.717 33.1701C169.723 33.1698 169.727 33.1696 169.733 33.1693C169.748 33.1685 169.734 33.1692 169.749 33.1684C169.762 33.1677 169.752 33.1683 169.765 33.1676C169.773 33.1672 169.773 33.1672 169.781 33.1668C169.787 33.1664 169.79 33.1662 169.797 33.1659C169.811 33.1651 169.798 33.1659 169.812 33.1651C169.865 33.1623 169.767 33.1675 169.82 33.1647C169.826 33.1644 169.823 33.1646 169.828 33.1643C169.836 33.1639 169.837 33.1638 169.844 33.1634C169.85 33.1631 169.854 33.1629 169.86 33.1626C169.861 33.1626 169.875 33.1618 169.876 33.1617C169.889 33.161 169.878 33.1616 169.892 33.1609C169.899 33.1605 169.9 33.1605 169.908 33.1601C169.914 33.1597 169.917 33.1596 169.923 33.1592C169.938 33.1585 169.925 33.1592 169.939 33.1584C169.999 33.1553 169.887 33.1611 169.947 33.158C169.953 33.1577 169.949 33.1579 169.955 33.1576C169.963 33.1572 169.963 33.1571 169.971 33.1567C169.977 33.1564 169.981 33.1562 169.987 33.1559C170.002 33.1551 169.988 33.1558 170.003 33.1551C170.016 33.1544 170.005 33.1549 170.019 33.1542C170.027 33.1538 170.027 33.1538 170.035 33.1534C170.041 33.1531 170.044 33.1529 170.05 33.1526C170.065 33.1518 170.052 33.1525 170.066 33.1517C170.119 33.1489 170.021 33.1541 170.074 33.1513C170.08 33.151 170.076 33.1512 170.082 33.1509C170.09 33.1505 170.09 33.1505 170.098 33.1501C170.104 33.1497 170.108 33.1495 170.114 33.1492C170.114 33.1492 170.129 33.1484 170.13 33.1484C170.143 33.1477 170.132 33.1483 170.146 33.1476C170.153 33.1472 170.154 33.1471 170.161 33.1467C170.168 33.1464 170.171 33.1462 170.177 33.1459C170.192 33.1451 170.179 33.1458 170.193 33.145C170.253 33.1419 170.141 33.1478 170.201 33.1446C170.207 33.1443 170.203 33.1445 170.209 33.1442C170.217 33.1438 170.217 33.1438 170.225 33.1434C170.231 33.1431 170.235 33.1429 170.241 33.1425C170.255 33.1418 170.242 33.1425 170.257 33.1417C170.27 33.141 170.259 33.1416 170.272 33.1409C170.28 33.1405 170.28 33.1405 170.288 33.14C170.294 33.1397 170.298 33.1395 170.304 33.1392C170.319 33.1384 170.305 33.1391 170.32 33.1384C170.373 33.1356 170.275 33.1407 170.328 33.138C170.334 33.1376 170.33 33.1378 170.336 33.1375C170.344 33.1371 170.344 33.1371 170.352 33.1367C170.358 33.1364 170.362 33.1362 170.368 33.1359C170.368 33.1358 170.383 33.1351 170.384 33.135C170.397 33.1343 170.386 33.1349 170.399 33.1342C170.407 33.1338 170.408 33.1338 170.415 33.1334C170.422 33.133 170.425 33.1329 170.431 33.1325C170.446 33.1318 170.432 33.1325 170.447 33.1317C170.507 33.1285 170.395 33.1344 170.455 33.1313C170.461 33.131 170.457 33.1312 170.463 33.1309C170.47 33.1305 170.471 33.1304 170.479 33.13C170.485 33.1297 170.488 33.1295 170.495 33.1292C170.509 33.1284 170.496 33.1291 170.51 33.1283C170.524 33.1277 170.513 33.1282 170.526 33.1275C170.534 33.1271 170.534 33.1271 170.542 33.1267C170.548 33.1264 170.552 33.1262 170.558 33.1258C170.573 33.1251 170.559 33.1258 170.574 33.125C170.627 33.1222 170.529 33.1274 170.582 33.1246C170.588 33.1243 170.584 33.1245 170.59 33.1242C170.597 33.1238 170.598 33.1237 170.606 33.1233C170.612 33.123 170.615 33.1228 170.622 33.1225C170.622 33.1225 170.637 33.1217 170.637 33.1217C170.651 33.121 170.64 33.1215 170.653 33.1208C170.661 33.1204 170.661 33.1204 170.669 33.12C170.676 33.1197 170.678 33.1195 170.685 33.1192C170.7 33.1184 170.686 33.1191 170.701 33.1183C170.761 33.1152 170.649 33.1211 170.709 33.1179C170.714 33.1176 170.711 33.1178 170.717 33.1175C170.724 33.1171 170.725 33.1171 170.733 33.1167C170.739 33.1163 170.742 33.1161 170.748 33.1158C170.763 33.1151 170.75 33.1158 170.764 33.115C170.777 33.1143 170.767 33.1148 170.78 33.1142C170.788 33.1137 170.788 33.1137 170.796 33.1133C170.802 33.113 170.806 33.1128 170.812 33.1125C170.827 33.1117 170.813 33.1124 170.828 33.1116C170.881 33.1089 170.783 33.114 170.836 33.1112C170.841 33.1109 170.838 33.1111 170.844 33.1108C170.851 33.1104 170.852 33.1104 170.859 33.11C170.866 33.1097 170.869 33.1095 170.875 33.1091C170.876 33.1091 170.891 33.1083 170.891 33.1083C170.905 33.1076 170.894 33.1082 170.907 33.1075C170.915 33.1071 170.915 33.107 170.923 33.1066C170.929 33.1063 170.932 33.1061 170.939 33.1058C170.953 33.105 170.94 33.1057 170.955 33.105C171.015 33.1018 170.903 33.1077 170.963 33.1046C170.968 33.1043 170.965 33.1044 170.971 33.1041C170.978 33.1037 170.979 33.1037 170.986 33.1033C170.993 33.103 170.996 33.1028 171.002 33.1025C171.017 33.1017 171.003 33.1024 171.018 33.1016C171.031 33.1009 171.021 33.1015 171.034 33.1008C171.042 33.1004 171.042 33.1004 171.05 33.1C171.056 33.0996 171.06 33.0994 171.066 33.0991C171.08 33.0984 171.067 33.0991 171.082 33.0983C171.134 33.0955 171.037 33.1007 171.09 33.0979C171.095 33.0976 171.092 33.0978 171.097 33.0975C171.105 33.0971 171.106 33.097 171.113 33.0966C171.119 33.0963 171.123 33.0961 171.129 33.0958C171.13 33.0958 171.144 33.095 171.145 33.0949C171.159 33.0942 171.147 33.0948 171.161 33.0941C171.169 33.0937 171.169 33.0937 171.177 33.0933C171.183 33.0929 171.186 33.0928 171.193 33.0924C171.207 33.0917 171.194 33.0924 171.208 33.0916C171.268 33.0885 171.156 33.0943 171.216 33.0912C171.222 33.0909 171.219 33.0911 171.224 33.0908C171.232 33.0904 171.233 33.0903 171.24 33.0899C171.246 33.0896 171.25 33.0894 171.256 33.0891C171.271 33.0883 171.257 33.089 171.272 33.0883C171.285 33.0876 171.275 33.0881 171.288 33.0874C171.296 33.087 171.296 33.087 171.304 33.0866C171.31 33.0863 171.313 33.0861 171.32 33.0858C171.334 33.085 171.321 33.0857 171.335 33.0849C171.388 33.0821 171.29 33.0873 171.343 33.0845C171.349 33.0842 171.346 33.0844 171.351 33.0841C171.359 33.0837 171.36 33.0837 171.367 33.0833C171.373 33.0829 171.377 33.0827 171.383 33.0824C171.384 33.0824 171.398 33.0816 171.399 33.0816C171.412 33.0809 171.401 33.0815 171.415 33.0808C171.422 33.0804 171.423 33.0803 171.431 33.0799C171.437 33.0796 171.44 33.0794 171.446 33.0791C171.461 33.0783 171.448 33.079 171.462 33.0783L171.295 29.891ZM169.264 29.9978C168.589 30.0334 167.895 30.0689 167.184 30.1045L167.343 33.2922C168.057 33.2565 168.753 33.2208 169.432 33.1851L169.264 29.9978ZM168.86 31.6984V29.3471H165.668V31.6984H168.86ZM167.264 30.9429H178.112V27.7512H167.264V30.9429ZM176.516 29.3471V31.1105H179.707V29.3471H176.516ZM178.039 29.5163C176.246 29.5978 174.641 30.0759 173.427 31.1386L175.529 33.5406C176.024 33.107 176.842 32.7658 178.184 32.7047L178.039 29.5163ZM173.402 31.1611C172.286 32.1801 171.43 33.8214 170.728 35.8178L173.739 36.8771C174.39 35.026 175.031 33.9954 175.554 33.5181L173.402 31.1611ZM170.752 35.7548C170.663 35.9757 170.563 36.2593 170.452 36.591L173.48 37.6002C173.583 37.2906 173.661 37.0754 173.715 36.9402L170.752 35.7548ZM170.472 36.5353C170.363 36.825 170.184 37.3098 169.934 37.9867L172.929 39.0901C173.179 38.4133 173.355 37.9362 173.461 37.6559L170.472 36.5353ZM169.934 37.9867C169.681 38.6752 169.321 39.6818 168.857 41.002L171.869 42.06C172.331 40.7438 172.684 39.7554 172.929 39.0901L169.934 37.9867ZM168.862 40.9889C168.401 42.2651 167.762 44.0058 166.943 46.2128L169.936 47.3229C170.756 45.1124 171.399 43.3619 171.864 42.073L168.862 40.9889ZM166.935 46.2342C166.155 48.4324 165.143 51.2028 163.898 54.5474L166.889 55.6611C168.137 52.3081 169.156 49.521 169.943 47.3016L166.935 46.2342ZM163.893 54.5614C162.682 57.9079 161.204 61.9673 159.459 66.74L162.457 67.8362C164.203 63.0613 165.682 58.9981 166.894 55.647L163.893 54.5614ZM160.958 65.6922H159.462V68.884H160.958V65.6922Z" fill="#2C0901"/>
<path d="M39.3516 93.6549C38.9259 89.6537 37.5212 86.5465 35.1376 84.3331C32.7965 82.1197 29.7743 81.013 26.0712 81.013C23.8152 81.013 21.6869 81.5025 19.6863 82.4815C17.7283 83.4179 16.0044 84.78 14.5147 86.5677C13.0249 88.3555 11.8543 90.505 11.003 93.0164C10.1517 95.5278 9.72604 98.3584 9.72604 101.508C9.72604 105.509 10.4922 109.042 12.0246 112.107C13.5569 115.172 15.6214 117.555 18.2178 119.258C20.8143 120.961 23.6875 121.812 26.8373 121.812C29.6041 121.812 32.3283 121.195 35.0099 119.96C37.6915 118.683 39.8836 116.853 41.5862 114.469L43.2463 115.81C41.416 118.322 39.4367 120.258 37.3084 121.62C35.1801 122.982 33.0519 123.898 30.9236 124.366C28.8379 124.877 26.9225 125.132 25.1773 125.132C21.9849 125.132 19.0479 124.557 16.3662 123.408C13.7272 122.259 11.4287 120.663 9.47065 118.619C7.55521 116.534 6.06542 114.129 5.00129 111.405C3.97972 108.638 3.46893 105.658 3.46893 102.466C3.46893 99.4438 3.91587 96.5068 4.80974 93.6549C5.74618 90.803 7.12956 88.2278 8.95987 85.9293C10.7902 83.6307 13.0887 81.8004 15.8555 80.4383C18.6648 79.0762 21.921 78.3952 25.6242 78.3952C28.0079 78.3952 30.2638 78.7144 32.3921 79.3529C34.5204 79.9914 36.5635 80.9704 38.5215 82.2899L38.2023 78.8421H41.6501V93.6549H39.3516ZM47.985 122.195C49.3045 122.195 50.2197 121.876 50.7305 121.237C51.2413 120.556 51.5392 119.641 51.6243 118.492C51.7095 117.3 51.752 115.938 51.752 114.406V99.8481C51.752 99.1671 51.752 98.486 51.752 97.805C51.7946 97.124 51.8797 96.4216 52.0074 95.698C51.2413 95.7406 50.4751 95.7831 49.7089 95.8257C48.9853 95.8257 48.2404 95.847 47.4742 95.8896V93.2718H49.4535C51.2838 93.2718 52.5395 93.1015 53.2206 92.761C53.9442 92.3779 54.5401 91.9735 55.0083 91.5479H56.8599C56.945 92.2289 57.0089 93.0802 57.0514 94.1018C57.094 95.0808 57.1366 96.3365 57.1791 97.8689C57.8176 96.8047 58.6902 95.7619 59.7969 94.7403C60.9036 93.7187 62.138 92.8674 63.5001 92.1864C64.9047 91.5053 66.3733 91.1648 67.9056 91.1648C69.0974 91.1648 70.1403 91.484 71.0342 92.1225C71.928 92.761 72.375 93.7826 72.375 95.1872C72.375 95.5278 72.2686 95.9534 72.0557 96.4642C71.8429 96.9324 71.5024 97.3581 71.0342 97.7412C70.5659 98.0817 69.9487 98.2519 69.1826 98.2519C68.2461 98.2094 67.5012 97.8476 66.9479 97.1665C66.3945 96.4429 66.1817 95.6129 66.3094 94.6764C65.2453 94.6339 64.1386 94.9106 62.9893 95.5065C61.8826 96.1024 60.8398 96.9324 59.8608 97.9965C58.8817 99.0181 58.0092 100.231 57.243 101.636L57.3068 117.343C57.3068 118.194 57.2855 118.96 57.243 119.641C57.243 120.28 57.1791 120.961 57.0514 121.684C57.7325 121.642 58.3922 121.62 59.0307 121.62C59.7118 121.578 60.3928 121.535 61.0739 121.493V124.11H47.985V122.195ZM94.5801 124.11C94.4524 123.387 94.3673 122.748 94.3247 122.195C94.2822 121.642 94.2183 121.067 94.1332 120.471C92.686 121.918 91.1111 123.068 89.4084 123.919C87.7484 124.728 85.9819 125.132 84.1091 125.132C80.8741 125.132 78.4691 124.408 76.8942 122.961C75.3193 121.471 74.5318 119.662 74.5318 117.534C74.5318 115.576 75.1278 113.895 76.3196 112.49C77.554 111.043 79.1289 109.872 81.0443 108.978C83.0024 108.042 85.1093 107.361 87.3653 106.935C89.6638 106.467 91.8772 106.254 94.0055 106.297V102.338C94.0055 100.848 93.8778 99.4438 93.6224 98.1242C93.367 96.8047 92.8137 95.7193 91.9624 94.868C91.1111 94.0167 89.749 93.5697 87.8761 93.5272C86.6417 93.4846 85.3647 93.7187 84.0452 94.2295C82.7682 94.7403 81.8318 95.6129 81.2359 96.8473C81.5764 97.1878 81.7892 97.5922 81.8744 98.0604C82.0021 98.486 82.0659 98.8904 82.0659 99.2735C82.0659 99.7843 81.8531 100.38 81.4274 101.061C81.0018 101.7 80.2569 101.998 79.1928 101.955C78.2989 101.955 77.6178 101.657 77.1496 101.061C76.6814 100.423 76.4473 99.6779 76.4473 98.8266C76.4473 97.3794 76.9794 96.0811 78.0435 94.9318C79.1502 93.7826 80.6613 92.8674 82.5767 92.1864C84.4921 91.5053 86.663 91.1648 89.0892 91.1648C92.6647 91.1648 95.3038 92.1225 97.0064 94.038C98.709 95.9108 99.539 98.8904 99.4964 102.977C99.4964 104.552 99.4964 106.148 99.4964 107.765C99.4964 109.34 99.4752 110.936 99.4326 112.554C99.4326 114.129 99.4326 115.725 99.4326 117.343C99.4326 118.024 99.4113 118.705 99.3687 119.386C99.3262 120.067 99.2623 120.833 99.1772 121.684C99.9434 121.642 100.688 121.599 101.412 121.556C102.178 121.514 102.944 121.471 103.71 121.429V124.11H94.5801ZM94.0055 108.468C92.5583 108.51 91.0259 108.702 89.4084 109.042C87.8335 109.34 86.365 109.808 85.0029 110.447C83.6834 111.085 82.598 111.937 81.7467 113.001C80.9379 114.022 80.5548 115.278 80.5974 116.768C80.6825 118.343 81.1933 119.535 82.1298 120.343C83.1088 121.11 84.258 121.493 85.5776 121.493C87.3227 121.493 88.8338 121.173 90.1108 120.535C91.4303 119.854 92.7285 118.917 94.0055 117.726C93.9629 117.257 93.9417 116.747 93.9417 116.193C93.9417 115.64 93.9417 115.065 93.9417 114.469C93.9417 114.257 93.9417 113.575 93.9417 112.426C93.9842 111.277 94.0055 109.957 94.0055 108.468ZM112.114 90.8456C112.114 86.1208 112.966 82.3963 114.668 79.6721C116.414 76.948 119.393 75.5859 123.607 75.5859C124.544 75.5859 125.523 75.7561 126.544 76.0967C127.608 76.3946 128.523 76.9054 129.29 77.629C130.056 78.3101 130.439 79.2039 130.439 80.3106C130.439 81.1194 130.205 81.8004 129.736 82.3538C129.311 82.9071 128.672 83.1838 127.821 83.1838C126.799 83.2264 126.076 82.9284 125.65 82.2899C125.267 81.6089 125.076 81.0342 125.076 80.566C125.076 80.3106 125.097 80.0552 125.139 79.7998C125.182 79.5445 125.267 79.2678 125.395 78.9698C125.097 78.5867 124.671 78.3101 124.118 78.1398C123.607 77.9695 123.118 77.8844 122.649 77.8844C121.33 77.8844 120.308 78.2675 119.585 79.0337C118.861 79.7998 118.35 80.7576 118.052 81.9068C117.754 83.0561 117.605 84.2479 117.605 85.4823V92.1864H126.225V94.6764L117.605 94.868L117.669 117.343C117.669 118.194 117.648 118.96 117.605 119.641C117.605 120.28 117.542 120.961 117.414 121.684C118.095 121.642 118.755 121.62 119.393 121.62C120.074 121.578 120.755 121.535 121.436 121.493V124.11H108.411V122.195C109.731 122.195 110.646 121.876 111.157 121.237C111.667 120.556 111.965 119.641 112.051 118.492C112.136 117.3 112.178 115.938 112.178 114.406L112.114 94.9318L106.879 95.0595V92.1864H112.114V90.8456ZM142.417 125.132C141.438 125.132 140.438 124.983 139.416 124.685C138.395 124.43 137.437 123.898 136.543 123.089C135.692 122.28 135.011 121.11 134.5 119.577C133.989 118.002 133.734 115.938 133.734 113.384L133.862 94.868L128.945 94.9318V92.1864C130.052 92.1438 131.18 91.7394 132.329 90.9733C133.479 90.1645 134.5 89.0791 135.394 87.717C136.33 86.3549 136.969 84.8651 137.309 83.2476H139.48V92.1864H150.207V94.6764L139.48 94.8041L139.353 112.554C139.353 114.469 139.502 116.108 139.8 117.47C140.14 118.79 140.672 119.79 141.396 120.471C142.119 121.152 143.056 121.493 144.205 121.493C145.397 121.493 146.504 121.152 147.525 120.471C148.589 119.79 149.526 118.854 150.334 117.662L152.058 119.066C151.122 120.471 150.185 121.578 149.249 122.387C148.355 123.195 147.483 123.791 146.631 124.174C145.78 124.6 144.993 124.855 144.269 124.94C143.545 125.068 142.928 125.132 142.417 125.132ZM168.194 125.132C166.066 125.132 164.172 124.834 162.511 124.238C160.851 123.685 159.489 123.046 158.425 122.323L158.681 124.557H155.999L155.616 113.575H157.595C157.68 115.321 158.17 116.896 159.064 118.3C159.958 119.662 161.107 120.726 162.511 121.493C163.916 122.259 165.427 122.642 167.045 122.642C168.151 122.642 169.237 122.472 170.301 122.131C171.365 121.748 172.259 121.195 172.983 120.471C173.706 119.705 174.068 118.747 174.068 117.598C174.068 116.406 173.706 115.427 172.983 114.661C172.302 113.852 171.386 113.15 170.237 112.554C169.088 111.958 167.853 111.405 166.534 110.894C165.257 110.383 163.98 109.851 162.703 109.298C161.426 108.744 160.234 108.085 159.128 107.318C158.063 106.552 157.212 105.616 156.574 104.509C155.935 103.402 155.616 102.04 155.616 100.423C155.616 99.5289 155.786 98.5499 156.127 97.4858C156.467 96.4216 157.042 95.4213 157.851 94.4849C158.659 93.5059 159.766 92.7184 161.171 92.1225C162.575 91.484 164.363 91.1648 166.534 91.1648C167.683 91.1648 168.96 91.3563 170.365 91.7394C171.769 92.1225 173.132 92.8461 174.451 93.9103L174.323 91.484H177.005V102.657H174.962C174.877 101.168 174.536 99.7417 173.94 98.3796C173.344 96.975 172.472 95.8257 171.323 94.9318C170.173 93.9954 168.683 93.5272 166.853 93.5272C164.895 93.5272 163.363 94.0167 162.256 94.9957C161.149 95.9747 160.596 97.1027 160.596 98.3796C160.596 99.6992 161 100.806 161.809 101.7C162.66 102.551 163.746 103.296 165.065 103.934C166.385 104.573 167.79 105.19 169.279 105.786C170.897 106.467 172.472 107.212 174.004 108.021C175.537 108.829 176.792 109.851 177.771 111.085C178.75 112.277 179.24 113.831 179.24 115.746C179.24 117.875 178.686 119.641 177.58 121.046C176.516 122.45 175.132 123.472 173.43 124.11C171.769 124.791 170.024 125.132 168.194 125.132ZM196.791 124.302L187.661 103.487C186.98 101.87 186.448 100.487 186.064 99.3374C185.681 98.1881 185.405 97.2304 185.234 96.4642C185.107 95.698 185.022 95.0808 184.979 94.6126L182.234 94.8041V92.1864H193.982V94.1018C192.705 94.1018 191.875 94.4423 191.492 95.1234C191.151 95.7619 191.108 96.6345 191.364 97.7412C191.619 98.8053 192.002 99.9546 192.513 101.189L197.429 112.426C197.77 113.15 198.089 113.916 198.387 114.725C198.728 115.491 199.047 116.3 199.345 117.151H199.409C199.622 116.512 199.856 115.831 200.111 115.108C200.409 114.384 200.664 113.682 200.877 113.001L205.985 99.0181C206.326 97.9965 206.687 97.1027 207.07 96.3365C207.454 95.5703 207.73 94.9957 207.9 94.6126L203.814 94.8041V92.1864H213.902V94.1018C212.966 94.1018 212.178 94.4211 211.54 95.0595C210.901 95.698 210.284 96.6557 209.688 97.9327C209.135 99.2097 208.475 100.806 207.709 102.721L199.345 124.302H196.791ZM216.896 122.195C218.215 122.195 219.13 121.876 219.641 121.237C220.152 120.556 220.45 119.641 220.535 118.492C220.62 117.3 220.663 115.938 220.663 114.406V99.8481C220.663 99.1671 220.684 98.5286 220.726 97.9327C220.769 97.2942 220.833 96.5493 220.918 95.698C220.152 95.7406 219.386 95.7831 218.619 95.8257C217.896 95.8683 217.151 95.9108 216.385 95.9534V93.2718C218.258 93.2718 219.705 93.1867 220.726 93.0164C221.748 92.8461 222.514 92.6333 223.025 92.3779C223.578 92.1225 224.004 91.8458 224.302 91.5479H226.154V117.343C226.154 118.194 226.132 118.96 226.09 119.641C226.09 120.28 226.026 120.961 225.898 121.684C226.579 121.642 227.239 121.62 227.877 121.62C228.559 121.578 229.24 121.535 229.921 121.493V124.11H216.896V122.195ZM223.089 85.2269C222.195 85.2269 221.408 84.8651 220.726 84.1415C220.045 83.4179 219.705 82.524 219.705 81.4599C219.705 80.3958 220.045 79.5019 220.726 78.7783C221.45 78.0121 222.259 77.629 223.153 77.629C224.132 77.629 224.94 78.0121 225.579 78.7783C226.26 79.5019 226.6 80.3958 226.6 81.4599C226.6 82.524 226.239 83.4179 225.515 84.1415C224.834 84.8651 224.025 85.2269 223.089 85.2269ZM234.214 122.195C235.534 122.195 236.449 121.876 236.96 121.237C237.471 120.556 237.769 119.641 237.854 118.492C237.939 117.3 237.981 115.938 237.981 114.406V84.2054C237.981 83.5243 237.981 82.8858 237.981 82.2899C238.024 81.6514 238.088 80.9065 238.173 80.0552C237.407 80.0978 236.641 80.1404 235.874 80.1829C235.151 80.2255 234.406 80.2681 233.64 80.3106V77.629C235.513 77.629 236.96 77.5439 237.981 77.3736C239.046 77.2034 239.833 76.9905 240.344 76.7351C240.897 76.4797 241.323 76.2031 241.621 75.9051H243.472L243.536 117.343C243.536 118.194 243.515 118.96 243.472 119.641C243.43 120.28 243.345 120.961 243.217 121.684C243.898 121.642 244.558 121.62 245.196 121.62C245.877 121.578 246.558 121.535 247.239 121.493V124.11H234.214V122.195ZM251.611 122.195C252.93 122.195 253.845 121.876 254.356 121.237C254.867 120.556 255.165 119.641 255.25 118.492C255.335 117.3 255.378 115.938 255.378 114.406V84.2054C255.378 83.5243 255.378 82.8858 255.378 82.2899C255.42 81.6514 255.484 80.9065 255.569 80.0552C254.803 80.0978 254.037 80.1404 253.271 80.1829C252.547 80.2255 251.802 80.2681 251.036 80.3106V77.629C252.909 77.629 254.356 77.5439 255.378 77.3736C256.442 77.2034 257.229 76.9905 257.74 76.7351C258.293 76.4797 258.719 76.2031 259.017 75.9051H260.868L260.932 117.343C260.932 118.194 260.911 118.96 260.868 119.641C260.826 120.28 260.741 120.961 260.613 121.684C261.294 121.642 261.954 121.62 262.592 121.62C263.273 121.578 263.954 121.535 264.636 121.493V124.11H251.611V122.195ZM285.096 125.132C282.159 125.132 279.499 124.451 277.115 123.089C274.774 121.684 272.923 119.726 271.561 117.215C270.198 114.661 269.517 111.66 269.517 108.212C269.517 105.233 270.177 102.445 271.497 99.8481C272.859 97.2517 274.753 95.166 277.179 93.591C279.605 91.9735 282.415 91.1648 285.607 91.1648C287.395 91.1648 289.055 91.4628 290.587 92.0587C292.162 92.612 293.546 93.4846 294.737 94.6764C295.929 95.8257 296.866 97.2942 297.547 99.082C298.228 100.827 298.568 102.892 298.568 105.275L276.094 105.658C276.094 108.893 276.434 111.745 277.115 114.214C277.839 116.64 278.988 118.534 280.563 119.896C282.138 121.216 284.16 121.876 286.629 121.876C287.948 121.876 289.289 121.642 290.651 121.173C292.056 120.705 293.354 120.067 294.546 119.258C295.738 118.449 296.695 117.555 297.419 116.576L298.951 117.853C297.802 119.641 296.419 121.067 294.801 122.131C293.184 123.195 291.524 123.961 289.821 124.43C288.118 124.898 286.544 125.132 285.096 125.132ZM276.285 102.977H292.567C292.567 101.444 292.332 99.9758 291.864 98.5712C291.439 97.124 290.715 95.9534 289.693 95.0595C288.672 94.1231 287.331 93.6549 285.671 93.6549C283.202 93.6549 281.138 94.3998 279.478 95.8896C277.86 97.3368 276.796 99.6992 276.285 102.977Z" fill="#F2C672"/>
</svg>
