<svg width="207" height="43" viewBox="0 0 207 43" fill="none" xmlns="http://www.w3.org/2000/svg">
<g clip-path="url(#clip0_3_124)">
<path d="M10.8347 42.8488C9.18206 42.8303 7.54494 42.5272 5.99522 41.9528C4.86356 41.5345 3.83968 40.8685 2.99845 40.0037C2.13124 39.1641 1.46432 38.14 1.04724 37.0073C0.473248 35.4576 0.170567 33.8207 0.152478 32.1682C0.0255526 29.4211 0 28.5971 0 21.6364C0 14.6756 0.028066 13.8546 0.151221 11.1054C0.171505 9.45356 0.474558 7.81744 1.04724 6.26796C1.46635 5.1361 2.13233 4.11182 2.99677 3.26951C3.83696 2.40308 4.86132 1.73678 5.99397 1.31997C7.54368 0.745507 9.1808 0.4424 10.8335 0.423957C13.5814 0.298288 14.4066 0.272736 21.3636 0.272736C28.3206 0.272736 29.1454 0.300802 31.8947 0.423957C33.5469 0.444097 35.1834 0.747153 36.7333 1.31997C37.8655 1.73733 38.8895 2.4034 39.7301 3.26909C40.596 4.10991 41.2624 5.13426 41.68 6.2667C42.2546 7.81639 42.5579 9.45351 42.5765 11.1062C42.7021 13.8554 42.7277 14.6785 42.7277 21.6372C42.7277 28.5959 42.7021 29.419 42.5765 32.1682C42.5565 33.8206 42.2533 35.4574 41.68 37.0073C41.2464 38.1313 40.5822 39.152 39.7302 40.0037C38.8783 40.8555 37.8574 41.5194 36.7333 41.9528C35.1836 42.5274 33.5465 42.8306 31.8938 42.8492C29.1471 42.9749 28.3215 43.0004 21.3628 43.0004C14.4041 43.0004 13.581 42.9761 10.8343 42.8492" fill="url(#paint0_radial_3_124)"/>
<path d="M10.8347 42.8488C9.18206 42.8303 7.54494 42.5272 5.99522 41.9528C4.86356 41.5345 3.83968 40.8685 2.99845 40.0037C2.13124 39.1641 1.46432 38.14 1.04724 37.0073C0.473248 35.4576 0.170567 33.8207 0.152478 32.1682C0.0255526 29.4211 0 28.5971 0 21.6364C0 14.6756 0.028066 13.8546 0.151221 11.1054C0.171505 9.45356 0.474558 7.81744 1.04724 6.26796C1.46635 5.1361 2.13233 4.11182 2.99677 3.26951C3.83696 2.40308 4.86132 1.73678 5.99397 1.31997C7.54368 0.745507 9.1808 0.4424 10.8335 0.423957C13.5814 0.298288 14.4066 0.272736 21.3636 0.272736C28.3206 0.272736 29.1454 0.300802 31.8947 0.423957C33.5469 0.444097 35.1834 0.747153 36.7333 1.31997C37.8655 1.73733 38.8895 2.4034 39.7301 3.26909C40.596 4.10991 41.2624 5.13426 41.68 6.2667C42.2546 7.81639 42.5579 9.45351 42.5765 11.1062C42.7021 13.8554 42.7277 14.6785 42.7277 21.6372C42.7277 28.5959 42.7021 29.419 42.5765 32.1682C42.5565 33.8206 42.2533 35.4574 41.68 37.0073C41.2464 38.1313 40.5822 39.152 39.7302 40.0037C38.8783 40.8555 37.8574 41.5194 36.7333 41.9528C35.1836 42.5274 33.5465 42.8306 31.8938 42.8492C29.1471 42.9749 28.3215 43.0004 21.3628 43.0004C14.4041 43.0004 13.581 42.9761 10.8343 42.8492" fill="url(#paint1_radial_3_124)"/>
<path d="M16.1179 21.7273C16.118 20.6808 16.4284 19.6578 17.0098 18.7877C17.5913 17.9177 18.4177 17.2396 19.3846 16.8392C20.3515 16.4388 21.4154 16.3341 22.4417 16.5384C23.4681 16.7427 24.4108 17.2467 25.1507 17.9868C25.8906 18.7268 26.3944 19.6697 26.5985 20.6961C26.8025 21.7225 26.6976 22.7864 26.297 23.7532C25.8963 24.7199 25.218 25.5462 24.3478 26.1275C23.4776 26.7087 22.4546 27.0189 21.4081 27.0187C20.0049 27.0185 18.6592 26.4609 17.6671 25.4686C16.675 24.4762 16.1178 23.1305 16.1179 21.7273ZM13.2572 21.7273C13.2572 23.3393 13.7353 24.9152 14.6309 26.2556C15.5265 27.596 16.7995 28.6408 18.2889 29.2577C19.7783 29.8746 21.4171 30.036 22.9982 29.7215C24.5794 29.407 26.0317 28.6307 27.1716 27.4908C28.3115 26.3509 29.0878 24.8985 29.4023 23.3174C29.7168 21.7363 29.5554 20.0974 28.9385 18.6081C28.3216 17.1187 27.2769 15.8457 25.9365 14.9501C24.5961 14.0544 23.0202 13.5764 21.4081 13.5764C20.3377 13.5763 19.2778 13.7871 18.2888 14.1967C17.2999 14.6063 16.4013 15.2067 15.6444 15.9636C14.8876 16.7205 14.2872 17.6191 13.8776 18.608C13.468 19.5969 13.2572 20.6569 13.2572 21.7273ZM27.9768 13.2534C27.9766 13.6302 28.0882 13.9985 28.2973 14.3118C28.5065 14.6251 28.8038 14.8694 29.1518 15.0137C29.4998 15.158 29.8828 15.1959 30.2523 15.1226C30.6218 15.0492 30.9613 14.868 31.2277 14.6017C31.4942 14.3354 31.6758 13.9961 31.7494 13.6267C31.8231 13.2572 31.7856 12.8743 31.6415 12.5261C31.4975 12.178 31.2535 11.8805 30.9404 11.671C30.6273 11.4616 30.259 11.3497 29.8823 11.3496C29.3774 11.3498 28.8932 11.5504 28.536 11.9074C28.1789 12.2644 27.9781 12.7485 27.9776 13.2534M14.9961 34.6481C13.9895 34.637 12.9924 34.4528 12.0483 34.1035C11.3637 33.8396 10.7418 33.4353 10.2229 32.9166C9.70395 32.3978 9.29937 31.7762 9.03519 31.0917C8.68574 30.1476 8.50153 29.1505 8.49063 28.1439C8.41356 26.4708 8.39848 25.9682 8.39848 21.7294C8.39848 17.4906 8.41523 16.9891 8.49063 15.3144C8.50285 14.308 8.68701 13.311 9.03519 12.3666C9.29906 11.6818 9.70353 11.0598 10.2225 10.5408C10.7415 10.0219 11.3634 9.6174 12.0483 9.35352C12.9923 9.00408 13.9895 8.81987 14.9961 8.80897C16.6691 8.73189 17.1718 8.71681 21.4089 8.71681C25.646 8.71681 26.1491 8.73315 27.8239 8.80939C28.8303 8.8216 29.8273 9.00577 30.7717 9.35395C31.4565 9.61784 32.0785 10.0223 32.5974 10.5413C33.1164 11.0603 33.5209 11.6822 33.7848 12.3671C34.1342 13.3111 34.3184 14.3083 34.3293 15.3148C34.4064 16.9904 34.4215 17.4906 34.4215 21.7298C34.4215 25.969 34.406 26.47 34.3293 28.1447C34.3176 29.1512 34.1334 30.1482 33.7848 31.0925C33.5206 31.777 33.116 32.3987 32.5971 32.9174C32.0781 33.4361 31.4563 33.8405 30.7717 34.1043C29.8276 34.4538 28.8305 34.638 27.8239 34.6489C26.1508 34.726 25.6481 34.7411 21.4089 34.7411C17.1697 34.7411 16.6687 34.7256 14.9961 34.6489M14.8645 5.95085C13.5475 5.97674 12.2443 6.22603 11.0107 6.68809C9.95614 7.09583 8.99841 7.71944 8.19892 8.51893C7.39944 9.31842 6.77583 10.2761 6.36809 11.3307C5.90608 12.5644 5.6568 13.8675 5.63084 15.1845C5.55251 16.8769 5.53491 17.4181 5.53491 21.7289C5.53491 26.0398 5.55293 26.5806 5.63084 28.2733C5.65679 29.5904 5.90608 30.8935 6.36809 32.1272C6.77585 33.1817 7.39946 34.1394 8.19895 34.9389C8.99843 35.7384 9.95615 36.362 11.0107 36.7698C12.2444 37.2316 13.5475 37.4809 14.8645 37.507C16.5577 37.5841 17.0981 37.603 21.4089 37.603C25.7198 37.603 26.2606 37.5849 27.9533 37.507C29.2704 37.481 30.5735 37.2317 31.8072 36.7698C32.8617 36.362 33.8194 35.7384 34.6189 34.9389C35.4184 34.1394 36.042 33.1817 36.4498 32.1272C36.9124 30.8937 37.1617 29.5905 37.187 28.2733C37.2641 26.5797 37.2817 26.0398 37.2817 21.7289C37.2817 17.4181 37.2637 16.8773 37.187 15.1845C37.1611 13.8675 36.9118 12.5643 36.4498 11.3307C36.042 10.2763 35.4186 9.31876 34.6193 8.5193C33.8201 7.71984 32.8627 7.09612 31.8084 6.68809C30.5749 6.22573 29.2717 5.97644 27.9546 5.95085C26.2618 5.87335 25.721 5.85492 21.411 5.85492C17.101 5.85492 16.559 5.87293 14.8654 5.95085" fill="white"/>
</g>
<path d="M53.2547 25.9239C53.2547 23.4044 53.766 21.1221 54.7886 19.0768C55.8261 17.0316 57.2711 15.4162 59.1236 14.2306C60.9762 13.0449 63.0806 12.4521 65.4371 12.4521C67.0229 12.4521 68.4382 12.7856 69.6831 13.4525C70.9429 14.1046 71.9284 15.0605 72.6398 16.3202C73.3512 17.58 73.7069 19.0768 73.7069 20.8108C73.7069 22.6782 73.3215 24.2936 72.5509 25.6571C71.7802 27.0058 70.8614 28.0358 69.7943 28.7472C68.7272 29.4437 67.7639 29.792 66.9043 29.792C66.4745 29.792 66.1114 29.6067 65.815 29.2362C65.5186 28.8657 65.3704 28.3544 65.3704 27.7023C65.3704 26.9761 65.4816 25.998 65.7039 24.7679C65.1703 26.2351 64.5256 27.4652 63.7698 28.4582C63.014 29.4511 62.1988 29.9476 61.3244 29.9476C60.8205 29.9476 60.3241 29.7698 59.835 29.4141C59.3459 29.0436 58.9458 28.5174 58.6345 27.8357C58.3381 27.154 58.1899 26.3611 58.1899 25.457C58.1899 24.2862 58.427 23.1302 58.9013 21.9891C59.3904 20.8331 60.0721 19.892 60.9465 19.1658C61.8357 18.4247 62.8509 18.0542 63.9921 18.0542C64.4071 18.0542 64.8443 18.1135 65.3037 18.2321C65.7631 18.3358 66.1855 18.484 66.5709 18.6767C66.6153 18.5285 66.6968 18.3951 66.8154 18.2765C66.9488 18.158 67.0822 18.1135 67.2155 18.1432L67.9269 18.3877L68.7939 18.6767C68.4234 20.3959 68.1196 21.8927 67.8825 23.1673C67.6602 24.427 67.549 25.5015 67.549 26.3907C67.549 26.865 67.5935 27.2429 67.6824 27.5245C67.7861 27.8061 67.8973 27.9469 68.0158 27.9469C68.6531 27.9469 69.2756 27.6801 69.8832 27.1466C70.5057 26.613 71.0096 25.8572 71.3949 24.879C71.7802 23.9009 71.9729 22.7894 71.9729 21.5444C71.9729 18.9212 71.2615 17.0316 69.8388 15.8756C68.4308 14.7196 66.6746 14.1416 64.5701 14.1416C62.7768 14.1416 61.1762 14.6307 59.7683 15.6089C58.3752 16.5722 57.2785 17.9134 56.4782 19.6326C55.6927 21.3518 55.2999 23.3081 55.2999 25.5015C55.2999 27.2948 55.6112 28.8139 56.2336 30.0588C56.8709 31.3037 57.7231 32.2374 58.7901 32.8598C59.8572 33.4971 61.0428 33.8157 62.347 33.8157C63.2066 33.8157 64.0736 33.7194 64.948 33.5267C65.8372 33.3341 66.4968 33.0895 66.9265 32.7931L67.3267 33.7268C66.7339 34.2307 65.9484 34.6309 64.9703 34.9273C63.9921 35.2237 62.9547 35.3719 61.858 35.3719C60.2129 35.3719 58.7383 34.9865 57.4341 34.2159C56.1299 33.4452 55.1073 32.3411 54.3663 30.9035C53.6252 29.4808 53.2547 27.8209 53.2547 25.9239ZM60.6353 24.7456C60.6353 25.4274 60.7464 26.0721 60.9687 26.6797C61.2059 27.2873 61.5393 27.5912 61.9691 27.5912C62.4434 27.5912 62.9991 27.1243 63.6364 26.1906C64.2885 25.257 64.8295 24.1751 65.2592 22.945C65.6001 21.9372 65.8076 21.1517 65.8817 20.5885C65.7039 20.3959 65.3482 20.2106 64.8146 20.0328C64.2811 19.8401 63.8587 19.7438 63.5475 19.7438C62.9399 19.7438 62.4137 19.9809 61.9691 20.4551C61.5245 20.9294 61.191 21.5519 60.9687 22.3225C60.7464 23.0784 60.6353 23.8861 60.6353 24.7456ZM75.3077 33.9047V32.3485H94.3148V33.9047H75.3077ZM94.803 23.523C94.803 22.2484 95.055 21.1146 95.5589 20.1217C96.0776 19.1287 96.8112 18.3581 97.7597 17.8097C98.723 17.2465 99.842 16.9649 101.117 16.9649C101.709 16.9649 102.221 17.0094 102.65 17.0983C103.08 17.1872 103.562 17.3058 104.095 17.454L104.74 17.6319L104.607 21.4333H102.673L102.117 18.9879C102.028 18.6026 101.591 18.4099 100.805 18.4099C99.9754 18.4099 99.3233 18.773 98.849 19.4992C98.3896 20.2254 98.1524 21.3592 98.1376 22.9005C98.1376 24.5308 98.4192 25.7831 98.9824 26.6575C99.5456 27.5171 100.294 27.9469 101.228 27.9469C102.354 27.9469 103.391 27.643 104.34 27.0354L104.851 28.1914C104.466 28.6064 103.873 28.9917 103.073 29.3474C102.287 29.7031 101.435 29.8809 100.516 29.8809C98.6193 29.8809 97.1891 29.2955 96.2258 28.1247C95.2773 26.9539 94.803 25.42 94.803 23.523ZM106.62 28.3248L108.087 28.1469V19.3881L106.664 18.9879V17.454L110.11 16.9872H110.177L110.732 17.4318V17.9209L110.666 19.7215H110.732C110.836 19.4251 111.081 19.062 111.466 18.6322C111.851 18.1876 112.333 17.8023 112.911 17.4762C113.504 17.1354 114.141 16.9649 114.823 16.9649C115.149 16.9649 115.431 17.0094 115.668 17.0983V20.4329C115.223 20.1217 114.682 19.9661 114.045 19.9661C112.963 19.9661 112.022 20.2551 111.222 20.8331V28.1247L113.8 28.3248V29.6364H106.62V28.3248ZM116.839 26.1684C116.839 24.8198 117.514 23.8046 118.862 23.1228C120.226 22.4411 121.982 22.0928 124.131 22.078V21.5667C124.131 20.959 124.064 20.4848 123.931 20.1439C123.812 19.803 123.583 19.5511 123.242 19.3881C122.916 19.2102 122.434 19.1213 121.797 19.1213C121.071 19.1213 120.418 19.2176 119.84 19.4103C119.262 19.5881 118.662 19.8253 118.04 20.1217L117.351 18.6989C117.573 18.5063 117.943 18.2765 118.462 18.0098C118.996 17.743 119.626 17.5133 120.352 17.3206C121.078 17.1131 121.826 17.0094 122.597 17.0094C123.738 17.0094 124.627 17.1576 125.265 17.454C125.917 17.7504 126.384 18.2247 126.665 18.8768C126.947 19.5289 127.088 20.4033 127.088 21.5V28.3025H128.288V29.5475C127.992 29.6216 127.569 29.6957 127.021 29.7698C126.473 29.8439 125.991 29.8809 125.576 29.8809C125.072 29.8809 124.731 29.8068 124.553 29.6586C124.39 29.5104 124.309 29.2066 124.309 28.7472V28.1469C123.909 28.5915 123.39 28.9917 122.753 29.3474C122.115 29.7031 121.397 29.8809 120.596 29.8809C119.915 29.8809 119.285 29.7401 118.707 29.4585C118.143 29.1621 117.691 28.7397 117.351 28.1914C117.01 27.6282 116.839 26.9539 116.839 26.1684ZM122.019 28.0358C122.33 28.0358 122.686 27.9469 123.086 27.769C123.486 27.5763 123.835 27.3466 124.131 27.0799V23.434C122.797 23.434 121.797 23.6638 121.13 24.1232C120.478 24.5678 120.152 25.1458 120.152 25.8572C120.152 26.5686 120.315 27.1095 120.641 27.48C120.982 27.8505 121.441 28.0358 122.019 28.0358ZM131.209 19.0102H129.342V17.7652L131.209 17.3206V16.3425C131.209 15.3792 131.461 14.4973 131.965 13.697C132.484 12.8967 133.173 12.2669 134.033 11.8074C134.892 11.3332 135.804 11.0961 136.767 11.0961C137.271 11.0961 137.745 11.1702 138.19 11.3184V14.1639C138.042 14.0157 137.745 13.8675 137.3 13.7193C136.871 13.5711 136.419 13.497 135.944 13.497C135.366 13.497 134.951 13.6452 134.7 13.9416C134.462 14.2232 134.344 14.7122 134.344 15.4088V17.2984H137.167V19.0102H134.344V28.1247L136.678 28.3025V29.6364H129.453V28.3025L131.209 28.1025V19.0102ZM142.485 29.8365C141.551 29.8365 140.862 29.6216 140.417 29.1918C139.973 28.762 139.75 28.0802 139.75 27.1466V18.9879H138.305V17.8319C138.424 17.7875 138.639 17.7134 138.95 17.6096C139.261 17.4911 139.498 17.3947 139.661 17.3206C139.913 17.128 140.128 16.7945 140.306 16.3202C140.44 16.009 140.684 15.2384 141.04 14.0083H142.818L142.907 17.2762H146.308V18.9879H142.929V25.2347C142.929 26.0647 142.952 26.6501 142.996 26.9909C143.041 27.3318 143.137 27.5541 143.285 27.6579C143.433 27.7468 143.693 27.7912 144.063 27.7912C144.434 27.7912 144.819 27.7542 145.219 27.6801C145.619 27.5912 145.953 27.4874 146.219 27.3689L146.642 28.6138C146.227 28.925 145.619 29.2066 144.819 29.4585C144.019 29.7105 143.241 29.8365 142.485 29.8365ZM150.292 27.8135C150.411 27.9913 150.678 28.1618 151.092 28.3248C151.522 28.473 151.952 28.5471 152.382 28.5471C153.078 28.5471 153.597 28.4063 153.938 28.1247C154.294 27.8283 154.472 27.443 154.472 26.9687C154.472 26.4796 154.257 26.0869 153.827 25.7905C153.397 25.4793 152.671 25.1013 151.648 24.6567L151.026 24.39C150.003 23.9602 149.24 23.4415 148.736 22.8338C148.232 22.2262 147.98 21.4407 147.98 20.4774C147.98 19.8105 148.18 19.2176 148.58 18.6989C148.981 18.1654 149.544 17.7504 150.27 17.454C150.996 17.1576 151.834 17.0094 152.782 17.0094C153.479 17.0094 154.071 17.0539 154.56 17.1428C155.064 17.2317 155.59 17.3503 156.139 17.4985C156.435 17.6022 156.658 17.6615 156.806 17.6763V20.5885H155.05L154.538 18.899C154.449 18.7508 154.249 18.6174 153.938 18.4988C153.627 18.3803 153.271 18.321 152.871 18.321C152.263 18.321 151.774 18.4544 151.404 18.7212C151.048 18.9731 150.87 19.3288 150.87 19.7882C150.87 20.2032 150.996 20.5515 151.248 20.8331C151.5 21.0998 151.774 21.3073 152.071 21.4555C152.367 21.6037 152.915 21.8483 153.716 22.1891C154.516 22.53 155.176 22.856 155.694 23.1673C156.228 23.4785 156.665 23.8861 157.006 24.39C157.362 24.879 157.539 25.4793 157.539 26.1906C157.539 27.2873 157.11 28.1766 156.25 28.8583C155.39 29.5401 154.153 29.8809 152.537 29.8809C151.782 29.8809 151.1 29.8142 150.492 29.6808C149.899 29.5475 149.21 29.3696 148.425 29.1473L147.936 28.9917V26.0573H149.781L150.292 27.8135ZM158.219 17.2762H164.088V18.5655L162.62 18.8545L164.643 24.9013L165.355 27.2577L165.955 24.968L167.933 18.8545L166.533 18.5655V17.2762H171.424V18.5655L170.268 18.8545L166.133 29.8142H163.554L159.13 18.8545L158.219 18.5655V17.2762ZM174.698 15.2532C174.164 15.2532 173.742 15.0976 173.431 14.7863C173.12 14.4751 172.964 14.075 172.964 13.5859C172.964 13.0227 173.142 12.5559 173.497 12.1854C173.853 11.8148 174.327 11.6296 174.92 11.6296C175.513 11.6296 175.965 11.7926 176.276 12.1187C176.588 12.4299 176.743 12.8226 176.743 13.2969C176.743 13.8897 176.565 14.364 176.21 14.7196C175.854 15.0753 175.357 15.2532 174.72 15.2532H174.698ZM173.52 19.3881L171.941 18.9657V17.4762L176.01 16.9872H176.054L176.676 17.4318V28.1247L178.166 28.3025V29.6364H171.964V28.3025L173.52 28.1025V19.3881ZM181.049 13.3858L179.404 13.0968V11.8964L183.516 11.4073H183.561L184.161 11.8297V28.1247L185.784 28.3025V29.6364H179.493V28.3025L181.049 28.1025V13.3858ZM188.604 13.3858L186.959 13.0968V11.8964L191.071 11.4073H191.116L191.716 11.8297V28.1247L193.339 28.3025V29.6364H187.048V28.3025L188.604 28.1025V13.3858ZM200.471 29.8809C198.515 29.8809 197.055 29.3103 196.092 28.1692C195.143 27.0132 194.669 25.4422 194.669 23.4563C194.669 22.1224 194.914 20.9664 195.403 19.9883C195.907 19.0102 196.611 18.2617 197.515 17.743C198.419 17.2243 199.464 16.9649 200.649 16.9649C202.131 16.9649 203.272 17.3577 204.073 18.1432C204.873 18.9138 205.288 20.0179 205.318 21.4555C205.318 22.4337 205.258 23.1599 205.14 23.6341H197.915C197.974 24.9828 198.293 26.035 198.871 26.7909C199.449 27.5319 200.271 27.9024 201.338 27.9024C201.916 27.9024 202.509 27.8061 203.117 27.6134C203.739 27.4207 204.228 27.191 204.584 26.9242L205.14 28.1469C204.74 28.5767 204.088 28.9769 203.184 29.3474C202.294 29.7031 201.39 29.8809 200.471 29.8809ZM202.205 22.3003C202.235 21.8853 202.25 21.5667 202.25 21.3444C202.25 19.3733 201.59 18.3877 200.271 18.3877C199.545 18.3877 198.982 18.6767 198.582 19.2547C198.182 19.8327 197.959 20.8479 197.915 22.3003H202.205Z" fill="#FFCA6C"/>
<defs>
<radialGradient id="paint0_radial_3_124" cx="0" cy="0" r="1" gradientUnits="userSpaceOnUse" gradientTransform="translate(2.76512 42.0642) scale(54.2477)">
<stop offset="0.09" stop-color="#FA8F21"/>
<stop offset="0.78" stop-color="#D82D7E"/>
</radialGradient>
<radialGradient id="paint1_radial_3_124" cx="0" cy="0" r="1" gradientUnits="userSpaceOnUse" gradientTransform="translate(29.5958 40.6919) scale(47.7385)">
<stop offset="0.64" stop-color="#8C3AAA" stop-opacity="0"/>
<stop offset="1" stop-color="#8C3AAA"/>
</radialGradient>
<clipPath id="clip0_3_124">
<rect width="42.7273" height="42.7273" fill="white" transform="translate(0 0.272736)"/>
</clipPath>
</defs>
</svg>
