<svg width="362" height="362" viewBox="0 0 362 362" fill="none" xmlns="http://www.w3.org/2000/svg">
<circle cx="181.195" cy="181.281" r="180.663" fill="#D9D9D9"/>
<circle cx="181.195" cy="181.281" r="157.782" fill="#0A2332"/>
<path d="M123.364 132.259L119.334 131.774V129.461H130.976L135.416 145.506L136.461 149.872L137.356 145.506L141.76 129.461H153.29V131.774L149.222 132.259L152.207 154.536L155.23 154.946V157.185H143.327V154.946L146.61 154.573L144.969 138.23L144.26 131.401L142.879 137.147L137.468 156.028H133.513L127.991 138.118L126.088 131.401L125.528 138.23L124.11 154.573L127.879 154.946V157.185H117.505V154.946L120.64 154.573L123.364 132.259ZM159.73 132.259L156.745 131.774V129.461H176.633L177.119 135.73H174.507L173.275 132.035L165.215 131.7V141.737L170.402 141.625L170.999 138.565H173.387V147.595H170.999L170.402 144.386L165.215 144.274V154.797L174.245 154.349L176.41 149.573L179.208 150.357L178.238 157.185H156.782V154.946L159.73 154.573V132.259ZM184.218 132.259L181.271 131.774V129.461H189.741L200.861 146.252L202.95 150.506V132.259L199.741 131.774V129.461H208.995V131.774L206.122 132.259V157.185H201.607L190.002 139.536L187.39 134.61V154.573L191.159 154.946V157.185H181.271V154.946L184.218 154.573V132.259ZM213.612 141.065V140.543C213.911 140.269 214.259 139.722 214.657 138.901C215.08 138.055 215.441 137.073 215.739 135.953C216.038 134.809 216.187 133.69 216.187 132.595C216.187 132.272 216.1 131.986 215.926 131.737C215.751 131.488 215.49 131.177 215.142 130.804C214.694 130.356 214.346 129.946 214.097 129.573C213.873 129.2 213.761 128.714 213.761 128.117C213.761 127.371 213.998 126.762 214.47 126.289C214.968 125.816 215.59 125.58 216.336 125.58C217.082 125.58 217.766 125.841 218.388 126.364C219.01 126.886 219.495 127.595 219.844 128.491C220.217 129.361 220.403 130.319 220.403 131.364C220.403 133.006 220.105 134.598 219.508 136.14C218.936 137.657 218.214 138.963 217.344 140.058C216.498 141.128 215.702 141.861 214.955 142.26L213.612 141.065ZM235.207 157.596C233.864 157.596 232.658 157.484 231.588 157.26C230.518 157.036 229.324 156.737 228.006 156.364C227.135 156.116 226.551 155.979 226.252 155.954L226.588 149.051H229.61L230.431 153.864C230.755 154.212 231.327 154.523 232.148 154.797C232.993 155.071 233.951 155.208 235.021 155.208C236.688 155.208 237.931 154.847 238.752 154.125C239.598 153.379 240.021 152.347 240.021 151.028C240.021 150.158 239.772 149.411 239.275 148.789C238.777 148.143 238.093 147.571 237.222 147.073C236.352 146.551 235.158 145.954 233.64 145.282C231.576 144.337 229.859 143.217 228.491 141.924C227.148 140.605 226.476 138.827 226.476 136.588C226.476 135.195 226.837 133.938 227.558 132.819C228.279 131.675 229.349 130.779 230.767 130.132C232.21 129.461 233.964 129.125 236.028 129.125C237.247 129.125 238.317 129.212 239.237 129.386C240.183 129.56 241.203 129.797 242.297 130.095C242.944 130.269 243.429 130.381 243.752 130.431L243.529 136.961H240.543L239.76 132.371C239.536 132.147 239.088 131.936 238.416 131.737C237.745 131.513 236.999 131.401 236.178 131.401C234.685 131.401 233.553 131.749 232.782 132.446C232.036 133.118 231.663 134.026 231.663 135.17C231.663 136.09 231.936 136.886 232.483 137.558C233.056 138.23 233.74 138.802 234.536 139.274C235.332 139.722 236.588 140.369 238.305 141.215C239.698 141.886 240.892 142.546 241.887 143.192C242.882 143.839 243.74 144.685 244.461 145.73C245.183 146.75 245.543 147.956 245.543 149.349C245.543 150.717 245.195 152.023 244.499 153.267C243.827 154.511 242.708 155.543 241.14 156.364C239.598 157.185 237.62 157.596 235.207 157.596ZM69.2226 165.461H80.4168V167.774L77.1705 168.259L81.8721 185.088L82.7303 189.23L83.5885 185.088L87.5812 171.431L86.5364 168.259L84.0736 167.774V165.461H95.753V167.774L92.1708 168.259L96.8351 185.088L97.8426 189.566L98.6262 185.088L102.88 168.259L99.5217 167.774V165.461H108.514V167.774L106.126 168.259L99.0366 193.372H94.1112L88.9618 175.946L84.0363 193.372H79.1855L71.4987 168.297L69.2226 167.774V165.461ZM118.015 165.311H123.724L132.343 190.573L134.508 190.946V193.185H123.5V190.946L126.298 190.573L124.843 185.722H115.179L113.724 190.611L116.746 190.946V193.185H107.231L107.194 190.946L109.432 190.573L118.015 165.311ZM120.589 171.618L119.918 168.707L119.209 171.655L115.888 183.11H124.097L120.589 171.618ZM135.483 190.946L138.431 190.573V168.259L135.633 167.737V165.461H141.043C141.516 165.461 142.038 165.448 142.61 165.423C143.182 165.399 143.618 165.374 143.916 165.349C145.21 165.249 146.28 165.2 147.125 165.2C149.688 165.2 151.74 165.461 153.282 165.983C154.824 166.506 155.944 167.302 156.64 168.371C157.337 169.441 157.685 170.846 157.685 172.588C157.685 174.304 157.225 175.896 156.305 177.364C155.384 178.832 154.053 179.839 152.312 180.386C153.307 180.809 154.19 181.58 154.961 182.7C155.732 183.819 156.553 185.275 157.424 187.066C158.046 188.285 158.519 189.168 158.842 189.715C159.19 190.237 159.526 190.536 159.849 190.611L161.081 190.984V193.185H154.737C154.339 193.185 153.917 192.787 153.469 191.991C153.046 191.17 152.486 189.889 151.79 188.148C150.969 186.108 150.26 184.516 149.663 183.372C149.066 182.227 148.431 181.518 147.76 181.245H143.916V190.573L147.349 190.946V193.185H135.483V190.946ZM147.349 178.968C148.767 178.968 149.874 178.459 150.67 177.439C151.466 176.419 151.864 174.889 151.864 172.849C151.864 171.033 151.466 169.69 150.67 168.819C149.899 167.948 148.556 167.513 146.64 167.513C145.944 167.513 145.347 167.55 144.849 167.625C144.377 167.675 144.066 167.7 143.916 167.7V178.894C144.215 178.944 144.936 178.968 146.081 178.968H147.349ZM165.324 168.259L162.525 167.774V165.461H167.973C168.794 165.461 169.901 165.411 171.294 165.311C171.617 165.287 172.102 165.262 172.749 165.237C173.421 165.212 174.018 165.2 174.54 165.2C179.117 165.2 182.538 166.344 184.802 168.632C187.09 170.921 188.235 174.167 188.235 178.371C188.235 181.307 187.662 183.919 186.518 186.207C185.399 188.496 183.794 190.287 181.705 191.581C179.615 192.849 177.177 193.484 174.391 193.484C173.67 193.484 172.538 193.434 170.995 193.334C169.553 193.235 168.57 193.185 168.048 193.185H162.376V190.946L165.324 190.573V168.259ZM170.734 190.685C171.58 190.909 172.762 191.021 174.279 191.021C176.767 190.971 178.719 189.976 180.137 188.036C181.555 186.071 182.264 183.135 182.264 179.23C182.264 175.523 181.568 172.662 180.175 170.647C178.782 168.608 176.617 167.588 173.682 167.588C173.06 167.588 172.463 167.625 171.891 167.7C171.344 167.774 170.958 167.824 170.734 167.849V190.685ZM190.762 190.946L193.71 190.573V168.259L190.912 167.737V165.461H196.322C196.795 165.461 197.317 165.448 197.889 165.423C198.461 165.399 198.897 165.374 199.195 165.349C200.489 165.249 201.559 165.2 202.404 165.2C204.967 165.2 207.019 165.461 208.561 165.983C210.103 166.506 211.223 167.302 211.919 168.371C212.616 169.441 212.964 170.846 212.964 172.588C212.964 174.304 212.504 175.896 211.584 177.364C210.663 178.832 209.332 179.839 207.591 180.386C208.586 180.809 209.469 181.58 210.24 182.7C211.011 183.819 211.832 185.275 212.703 187.066C213.325 188.285 213.798 189.168 214.121 189.715C214.469 190.237 214.805 190.536 215.128 190.611L216.36 190.984V193.185H210.016C209.618 193.185 209.195 192.787 208.748 191.991C208.325 191.17 207.765 189.889 207.069 188.148C206.248 186.108 205.539 184.516 204.942 183.372C204.345 182.227 203.71 181.518 203.039 181.245H199.195V190.573L202.628 190.946V193.185H190.762V190.946ZM202.628 178.968C204.046 178.968 205.153 178.459 205.949 177.439C206.745 176.419 207.143 174.889 207.143 172.849C207.143 171.033 206.745 169.69 205.949 168.819C205.178 167.948 203.835 167.513 201.919 167.513C201.223 167.513 200.626 167.55 200.128 167.625C199.655 167.675 199.345 167.7 199.195 167.7V178.894C199.494 178.944 200.215 178.968 201.359 178.968H202.628ZM229.446 193.596C225.391 193.596 222.356 192.327 220.341 189.79C218.326 187.252 217.319 183.794 217.319 179.416C217.319 176.555 217.841 174.043 218.886 171.879C219.956 169.715 221.448 168.048 223.364 166.879C225.279 165.709 227.481 165.125 229.968 165.125C234.073 165.125 237.145 166.344 239.185 168.782C241.25 171.195 242.282 174.578 242.282 178.931C242.282 181.817 241.735 184.379 240.64 186.618C239.571 188.832 238.066 190.548 236.125 191.767C234.185 192.986 231.959 193.596 229.446 193.596ZM229.819 167.401C227.779 167.401 226.187 168.409 225.043 170.424C223.899 172.438 223.326 175.424 223.326 179.379C223.326 183.284 223.874 186.257 224.968 188.297C226.088 190.312 227.68 191.319 229.745 191.319C231.76 191.319 233.339 190.262 234.483 188.148C235.628 186.008 236.2 182.936 236.2 178.931C236.2 175.05 235.653 172.165 234.558 170.274C233.464 168.359 231.884 167.401 229.819 167.401ZM247.75 168.259L244.84 167.774V165.461H250.399C251.245 165.461 252.34 165.411 253.683 165.311C254.006 165.287 254.392 165.262 254.84 165.237C255.288 165.212 255.81 165.2 256.407 165.2C260.163 165.2 262.788 165.734 264.28 166.804C265.798 167.849 266.556 169.416 266.556 171.506C266.556 173.346 265.997 174.889 264.877 176.133C263.783 177.352 262.34 178.098 260.549 178.371C263.012 178.347 264.94 178.906 266.333 180.051C267.751 181.195 268.459 182.787 268.459 184.827C268.459 187.414 267.552 189.491 265.736 191.058C263.92 192.625 260.885 193.409 256.631 193.409C255.511 193.409 254.479 193.372 253.534 193.297C253.285 193.297 252.862 193.272 252.265 193.223C251.668 193.198 251.059 193.185 250.437 193.185H244.802V190.946L247.75 190.573V168.259ZM253.161 177.551C253.434 177.575 253.994 177.588 254.84 177.588H256.594C258.111 177.588 259.243 177.115 259.989 176.17C260.735 175.225 261.109 173.894 261.109 172.177C261.109 170.535 260.723 169.341 259.952 168.595C259.181 167.849 257.9 167.476 256.108 167.476C255.636 167.476 254.653 167.525 253.161 167.625V177.551ZM253.161 190.722C253.733 190.946 254.827 191.058 256.444 191.058C258.559 191.058 260.089 190.561 261.034 189.566C261.979 188.571 262.452 187.128 262.452 185.237C262.452 183.421 262.017 182.128 261.146 181.357C260.3 180.561 258.944 180.163 257.079 180.163C254.989 180.163 253.683 180.187 253.161 180.237V190.722ZM274.06 168.259L271.074 167.774V165.461H290.963L291.448 171.73H288.836L287.605 168.035L279.545 167.7V177.737L284.731 177.625L285.328 174.565H287.717V183.595H285.328L284.731 180.386L279.545 180.274V190.797L288.575 190.349L290.739 185.573L293.538 186.357L292.567 193.185H271.112V190.946L274.06 190.573V168.259ZM67.3009 204.259L64.3158 203.774V201.461H84.2042L84.6893 207.73H82.0773L80.846 204.035L72.7861 203.7V213.737L77.9728 213.625L78.5698 210.565H80.9579V219.595H78.5698L77.9728 216.386L72.7861 216.274V226.797L81.8161 226.349L83.9803 221.573L86.7789 222.357L85.8087 229.185H64.3531V226.946L67.3009 226.573V204.259ZM98.4312 229.596C97.0878 229.596 95.8813 229.484 94.8117 229.26C93.742 229.036 92.5479 228.737 91.2295 228.364C90.3588 228.116 89.7743 227.979 89.4757 227.954L89.8116 221.051H92.834L93.6549 225.864C93.9783 226.212 94.5505 226.523 95.3714 226.797C96.2172 227.071 97.1749 227.208 98.2446 227.208C99.9113 227.208 101.155 226.847 101.976 226.125C102.822 225.379 103.245 224.347 103.245 223.028C103.245 222.158 102.996 221.411 102.498 220.789C102.001 220.143 101.317 219.571 100.446 219.073C99.5755 218.551 98.3814 217.954 96.864 217.282C94.7992 216.337 93.0828 215.217 91.7146 213.924C90.3713 212.605 89.6996 210.827 89.6996 208.588C89.6996 207.195 90.0603 205.938 90.7817 204.819C91.5031 203.675 92.5728 202.779 93.9908 202.132C95.4336 201.461 97.1873 201.125 99.2521 201.125C100.471 201.125 101.541 201.212 102.461 201.386C103.406 201.56 104.426 201.797 105.521 202.095C106.168 202.269 106.653 202.381 106.976 202.431L106.752 208.961H103.767L102.983 204.371C102.76 204.147 102.312 203.936 101.64 203.737C100.969 203.513 100.222 203.401 99.4013 203.401C97.9088 203.401 96.7769 203.749 96.0057 204.446C95.2594 205.118 94.8863 206.026 94.8863 207.17C94.8863 208.09 95.1599 208.886 95.7072 209.558C96.2794 210.23 96.9635 210.802 97.7595 211.274C98.5555 211.722 99.8118 212.369 101.528 213.215C102.921 213.886 104.115 214.546 105.11 215.192C106.105 215.839 106.964 216.685 107.685 217.73C108.406 218.75 108.767 219.956 108.767 221.349C108.767 222.717 108.419 224.023 107.722 225.267C107.051 226.511 105.931 227.543 104.364 228.364C102.822 229.185 100.844 229.596 98.4312 229.596ZM120.914 229.596C119.571 229.596 118.365 229.484 117.295 229.26C116.225 229.036 115.031 228.737 113.713 228.364C112.842 228.116 112.258 227.979 111.959 227.954L112.295 221.051H115.317L116.138 225.864C116.462 226.212 117.034 226.523 117.855 226.797C118.7 227.071 119.658 227.208 120.728 227.208C122.395 227.208 123.638 226.847 124.459 226.125C125.305 225.379 125.728 224.347 125.728 223.028C125.728 222.158 125.479 221.411 124.982 220.789C124.484 220.143 123.8 219.571 122.929 219.073C122.059 218.551 120.865 217.954 119.347 217.282C117.283 216.337 115.566 215.217 114.198 213.924C112.855 212.605 112.183 210.827 112.183 208.588C112.183 207.195 112.544 205.938 113.265 204.819C113.986 203.675 115.056 202.779 116.474 202.132C117.917 201.461 119.671 201.125 121.735 201.125C122.954 201.125 124.024 201.212 124.944 201.386C125.89 201.56 126.91 201.797 128.004 202.095C128.651 202.269 129.136 202.381 129.459 202.431L129.235 208.961H126.25L125.467 204.371C125.243 204.147 124.795 203.936 124.123 203.737C123.452 203.513 122.706 203.401 121.885 203.401C120.392 203.401 119.26 203.749 118.489 204.446C117.743 205.118 117.37 206.026 117.37 207.17C117.37 208.09 117.643 208.886 118.19 209.558C118.763 210.23 119.447 210.802 120.243 211.274C121.039 211.722 122.295 212.369 124.012 213.215C125.405 213.886 126.599 214.546 127.594 215.192C128.589 215.839 129.447 216.685 130.168 217.73C130.89 218.75 131.25 219.956 131.25 221.349C131.25 222.717 130.902 224.023 130.206 225.267C129.534 226.511 128.415 227.543 126.847 228.364C125.305 229.185 123.327 229.596 120.914 229.596ZM136.718 204.259L133.733 203.774V201.461H153.622L154.107 207.73H151.495L150.264 204.035L142.204 203.7V213.737L147.39 213.625L147.987 210.565H150.375V219.595H147.987L147.39 216.386L142.204 216.274V226.797L151.234 226.349L153.398 221.573L156.196 222.357L155.226 229.185H133.771V226.946L136.718 226.573V204.259ZM161.207 204.259L158.259 203.774V201.461H166.729L177.849 218.252L179.939 222.506V204.259L176.729 203.774V201.461H185.983V203.774L183.11 204.259V229.185H178.595L166.99 211.536L164.378 206.61V226.573L168.147 226.946V229.185H158.259V226.946L161.207 226.573V204.259ZM197.242 203.923L191.906 204.11L190.451 212.245H187.317L187.951 201.461H212.019L212.467 212.245H209.519L208.064 204.11L202.802 203.923V226.573L208.026 226.946V229.185H192.466V226.946L197.242 226.573V203.923ZM218.172 204.259L215.001 203.774V201.461H226.941V203.774L223.658 204.259V226.573L226.941 226.984V229.185H215.001V226.946L218.172 226.573V204.259ZM238.812 201.311H244.521L253.141 226.573L255.305 226.946V229.185H244.297V226.946L247.096 226.573L245.641 221.722H235.976L234.521 226.611L237.544 226.946V229.185H228.028L227.991 226.946L230.23 226.573L238.812 201.311ZM241.387 207.618L240.715 204.707L240.006 207.655L236.685 219.11H244.894L241.387 207.618ZM259.266 204.259L256.393 203.774V201.461H268.333V203.774L264.751 204.259V226.536L272.736 226.2L275.087 219.222L278.11 219.633L276.953 229.185H256.318V226.946L259.266 226.573V204.259ZM289.703 229.596C288.36 229.596 287.153 229.484 286.083 229.26C285.014 229.036 283.82 228.737 282.501 228.364C281.631 228.116 281.046 227.979 280.748 227.954L281.083 221.051H284.106L284.927 225.864C285.25 226.212 285.822 226.523 286.643 226.797C287.489 227.071 288.447 227.208 289.516 227.208C291.183 227.208 292.427 226.847 293.248 226.125C294.094 225.379 294.516 224.347 294.516 223.028C294.516 222.158 294.268 221.411 293.77 220.789C293.273 220.143 292.589 219.571 291.718 219.073C290.847 218.551 289.653 217.954 288.136 217.282C286.071 216.337 284.355 215.217 282.986 213.924C281.643 212.605 280.971 210.827 280.971 208.588C280.971 207.195 281.332 205.938 282.054 204.819C282.775 203.675 283.845 202.779 285.263 202.132C286.705 201.461 288.459 201.125 290.524 201.125C291.743 201.125 292.812 201.212 293.733 201.386C294.678 201.56 295.698 201.797 296.793 202.095C297.439 202.269 297.925 202.381 298.248 202.431L298.024 208.961H295.039L294.255 204.371C294.031 204.147 293.584 203.936 292.912 203.737C292.24 203.513 291.494 203.401 290.673 203.401C289.181 203.401 288.049 203.749 287.278 204.446C286.531 205.118 286.158 206.026 286.158 207.17C286.158 208.09 286.432 208.886 286.979 209.558C287.551 210.23 288.235 210.802 289.031 211.274C289.827 211.722 291.084 212.369 292.8 213.215C294.193 213.886 295.387 214.546 296.382 215.192C297.377 215.839 298.235 216.685 298.957 217.73C299.678 218.75 300.039 219.956 300.039 221.349C300.039 222.717 299.691 224.023 298.994 225.267C298.323 226.511 297.203 227.543 295.636 228.364C294.094 229.185 292.116 229.596 289.703 229.596Z" fill="#F2C672"/>
</svg>
