<svg width="488" height="108" viewBox="0 0 488 108" fill="none" xmlns="http://www.w3.org/2000/svg">
<path d="M13.6175 25.8887C10.1235 25.8887 7.50863 25.0433 5.7729 23.3527C4.03718 21.6621 3.16932 19.0134 3.16932 15.4067V3.33554L1.07293 2.86216V0.495266H11.9945V2.86216L9.15418 3.36935V15.8801C9.15418 20.9745 10.9237 23.5218 14.4628 23.5218C16.2211 23.5218 17.5059 22.8568 18.3174 21.5268C19.1515 20.1743 19.5685 18.3146 19.5685 15.9477V3.33554L16.6606 2.86216V0.495266H25.4519V2.86216L23.2203 3.33554V15.6434C23.2203 19.1599 22.3524 21.7522 20.6167 23.4203C18.9035 25.0659 16.5705 25.8887 13.6175 25.8887ZM29.5134 3.33554L27.0113 2.86216V0.495266H32.5228C32.8834 0.495266 33.5822 0.472724 34.6192 0.427639C35.9266 0.337473 37.11 0.29239 38.1695 0.29239C40.604 0.29239 42.5201 0.585433 43.9177 1.17152C45.3153 1.75761 46.3071 2.60293 46.8932 3.70748C47.4793 4.78949 47.7723 6.16454 47.7723 7.83264C47.7723 10.718 46.8932 12.9609 45.1349 14.5614C43.3767 16.1619 40.8745 16.9621 37.6285 16.9621C36.6141 16.9621 35.8364 16.9283 35.2954 16.8607V23.0146L39.7587 23.3865V25.6182H26.9099V23.3865L29.5134 23.0484V3.33554ZM35.2616 14.5276C35.7124 14.6403 36.4563 14.6966 37.4933 14.6966C40.4237 14.6966 41.8889 12.4537 41.8889 7.96789C41.8889 6.09692 41.517 4.73314 40.7731 3.87654C40.0518 2.99741 38.9585 2.55785 37.4933 2.55785C36.8621 2.55785 36.3662 2.59166 36.0055 2.65928C35.6448 2.70437 35.3969 2.73818 35.2616 2.76072V14.5276ZM61.2964 25.9901C58.7717 25.9901 56.6077 25.4378 54.8043 24.3333C53.001 23.2287 51.6372 21.7184 50.713 19.8024C49.7888 17.8863 49.3267 15.711 49.3267 13.2765C49.3267 10.4813 49.8564 8.10314 50.9159 6.142C51.9753 4.18086 53.4856 2.70437 55.4468 1.71253C57.4305 0.698143 59.7748 0.190951 62.4798 0.190951C64.0352 0.190951 65.5793 0.30366 67.1122 0.529078C68.645 0.754496 69.9412 0.991186 71.0007 1.23915L70.5949 7.76502H66.5374L65.5906 3.30173C65.3877 3.07631 65.0158 2.8847 64.4748 2.72691C63.9563 2.54657 63.2463 2.45641 62.3446 2.45641C60.3384 2.45641 58.783 3.34681 57.6784 5.12762C56.5739 6.88588 56.0216 9.44438 56.0216 12.8031C56.0216 16.1393 56.4837 18.788 57.4079 20.7491C58.3547 22.6877 59.8199 23.657 61.8036 23.657C62.6151 23.657 63.3477 23.5556 64.0014 23.3527C64.6777 23.1273 65.1849 22.8455 65.523 22.5074V15.4405L62.3784 15.1024V12.6341H72.928V15.1024L71.2374 15.3729V24.2657C70.8541 24.2882 69.9637 24.4685 68.5661 24.8067C67.1911 25.1673 65.9513 25.4491 64.8467 25.652C63.7422 25.8774 62.5587 25.9901 61.2964 25.9901ZM74.7224 23.3865L77.326 23.0484V3.30173L74.8577 2.82835V0.495266H80.0649C80.4932 0.495266 80.9553 0.483995 81.4512 0.461453C81.9697 0.438911 82.3641 0.416368 82.6346 0.393827C83.8519 0.303659 84.8888 0.258575 85.7454 0.258575C88.1574 0.258575 90.0735 0.495265 91.4936 0.968645C92.9137 1.41948 93.9394 2.14082 94.5706 3.13266C95.2243 4.10196 95.5511 5.38685 95.5511 6.98732C95.5511 8.52017 95.1454 9.95157 94.3339 11.2815C93.5224 12.6115 92.3276 13.5245 90.7497 14.0204C91.7866 14.4036 92.6545 15.1249 93.3533 16.1844C94.0746 17.2213 94.8185 18.5513 95.5849 20.1743C96.0358 21.1211 96.3964 21.8311 96.6669 22.3045C96.9374 22.7553 97.2192 23.0146 97.5123 23.0822L98.4928 23.3865V25.6182H92.0684C91.7303 25.6182 91.3809 25.2575 91.0202 24.5362C90.6595 23.8148 90.1974 22.6877 89.6339 21.1549C88.9351 19.2839 88.3265 17.8412 87.808 16.8268C87.3121 15.7899 86.7598 15.1587 86.1512 14.9333H83.108V23.0484L86.1174 23.3865V25.6182H74.7224V23.3865ZM85.7116 12.7355C86.8838 12.7355 87.7967 12.2847 88.4504 11.383C89.1042 10.4588 89.431 9.07244 89.431 7.22401C89.431 5.601 89.1042 4.41755 88.4504 3.67367C87.8193 2.90724 86.7485 2.52403 85.2382 2.52403C84.4267 2.52403 83.7167 2.58039 83.108 2.6931V12.6341C83.4011 12.7017 83.8857 12.7355 84.562 12.7355C85.2382 12.7355 85.6214 12.7355 85.7116 12.7355ZM107.164 0.393827H113.25L120.824 23.0484L122.684 23.3865V25.6182H112.033V23.3865L114.434 23.0484L113.284 18.9909H105.203L104.053 23.0822L106.691 23.3865V25.6182H97.6964L97.6626 23.3865L99.6237 23.0146L107.164 0.393827ZM109.666 6.27725L109.159 3.91036L108.618 6.31106L105.879 16.3873H112.574L109.666 6.27725ZM125.965 3.33554L123.497 2.86216V0.495266H128.771C129.515 0.495266 130.518 0.450182 131.781 0.360014C132.074 0.337473 132.513 0.314931 133.099 0.29239C133.708 0.269847 134.249 0.258575 134.722 0.258575C138.825 0.258575 141.913 1.28423 143.987 3.33554C146.061 5.38685 147.098 8.32856 147.098 12.1607C147.098 14.7981 146.591 17.1537 145.576 19.2275C144.562 21.3014 143.108 22.9357 141.214 24.1304C139.321 25.3026 137.089 25.8887 134.52 25.8887C133.821 25.8887 132.773 25.8436 131.375 25.7534C130.068 25.6632 129.222 25.6182 128.839 25.6182H123.361V23.3865L125.965 23.0146V3.33554ZM131.679 23.116C132.468 23.364 133.37 23.4654 134.384 23.4203C136.413 23.3978 137.98 22.5412 139.084 20.8506C140.211 19.1374 140.775 16.5225 140.775 13.006C140.775 9.75997 140.223 7.22401 139.118 5.39812C138.036 3.54969 136.323 2.62547 133.979 2.62547C133.438 2.62547 132.953 2.65928 132.525 2.72691C132.096 2.79453 131.815 2.83962 131.679 2.86216V23.116ZM151.754 3.33554L149.116 2.86216V0.495266H167.612L168.052 6.48013H165.38L164.197 3.06504L157.536 2.72691V11.5182L161.661 11.4168L162.27 8.64415H164.603V17.1312H162.27L161.695 14.1894L157.536 14.088V23.2851L164.941 22.8117L167.003 18.4499L169.877 19.2614L169.066 25.6182H149.15V23.3865L151.754 23.0484V3.33554ZM186.464 15.542L179.464 3.30173L177.605 2.86216V0.495266H188.256V2.86216L186.058 3.33554L189.913 11.0787L190.758 13.2765L191.637 11.0787L195.12 3.33554L192.55 2.86216V0.495266H201.172V2.86216L199.11 3.2341L192.618 15.5081V23.0146L196.202 23.3865V25.6182H182.981V23.3865L186.464 23.0146V15.542ZM212.508 25.9901C208.721 25.9901 205.914 24.8517 204.089 22.575C202.263 20.2757 201.35 17.1199 201.35 13.1074C201.35 10.5151 201.823 8.24966 202.77 6.31106C203.739 4.34992 205.092 2.83962 206.827 1.78015C208.563 0.720684 210.592 0.190951 212.914 0.190951C216.791 0.190951 219.642 1.27296 221.468 3.43698C223.317 5.57845 224.241 8.64415 224.241 12.6341C224.241 15.2715 223.756 17.6045 222.787 19.6333C221.818 21.6395 220.443 23.2062 218.662 24.3333C216.904 25.4378 214.852 25.9901 212.508 25.9901ZM212.812 2.42259C211.189 2.42259 209.927 3.313 209.025 5.0938C208.146 6.87461 207.707 9.53455 207.707 13.0736C207.707 16.6803 208.146 19.3628 209.025 21.1211C209.904 22.8568 211.155 23.7246 212.778 23.7246C214.379 23.7246 215.619 22.7779 216.498 20.8844C217.4 18.9683 217.85 16.2295 217.85 12.6679C217.85 9.06117 217.422 6.45759 216.565 4.85711C215.709 3.2341 214.458 2.42259 212.812 2.42259ZM238.255 25.8887C234.761 25.8887 232.146 25.0433 230.41 23.3527C228.674 21.6621 227.806 19.0134 227.806 15.4067V3.33554L225.71 2.86216V0.495266H236.632V2.86216L233.791 3.36935V15.8801C233.791 20.9745 235.561 23.5218 239.1 23.5218C240.858 23.5218 242.143 22.8568 242.955 21.5268C243.789 20.1743 244.206 18.3146 244.206 15.9477V3.33554L241.298 2.86216V0.495266H250.089V2.86216L247.857 3.33554V15.6434C247.857 19.1599 246.99 21.7522 245.254 23.4203C243.541 25.0659 241.208 25.8887 238.255 25.8887ZM251.513 23.3865L254.117 23.0484V3.30173L251.648 2.82835V0.495266H256.856C257.284 0.495266 257.746 0.483995 258.242 0.461453C258.76 0.438911 259.155 0.416368 259.425 0.393827C260.643 0.303659 261.679 0.258575 262.536 0.258575C264.948 0.258575 266.864 0.495265 268.284 0.968645C269.704 1.41948 270.73 2.14082 271.361 3.13266C272.015 4.10196 272.342 5.38685 272.342 6.98732C272.342 8.52017 271.936 9.95157 271.125 11.2815C270.313 12.6115 269.118 13.5245 267.54 14.0204C268.577 14.4036 269.445 15.1249 270.144 16.1844C270.865 17.2213 271.609 18.5513 272.376 20.1743C272.826 21.1211 273.187 21.8311 273.458 22.3045C273.728 22.7553 274.01 23.0146 274.303 23.0822L275.284 23.3865V25.6182H268.859C268.521 25.6182 268.172 25.2575 267.811 24.5362C267.45 23.8148 266.988 22.6877 266.425 21.1549C265.726 19.2839 265.117 17.8412 264.599 16.8268C264.103 15.7899 263.55 15.1587 262.942 14.9333H259.899V23.0484L262.908 23.3865V25.6182H251.513V23.3865ZM262.502 12.7355C263.674 12.7355 264.587 12.2847 265.241 11.383C265.895 10.4588 266.222 9.07244 266.222 7.22401C266.222 5.601 265.895 4.41755 265.241 3.67367C264.61 2.90724 263.539 2.52403 262.029 2.52403C261.217 2.52403 260.507 2.58039 259.899 2.6931V12.6341C260.192 12.7017 260.676 12.7355 261.353 12.7355C262.029 12.7355 262.412 12.7355 262.502 12.7355ZM282.511 0.495266H293.297V2.86216L290.491 3.33554L294.515 18.247L295.157 21.3916L295.732 18.247L299.181 6.20963L298.2 3.33554L296.07 2.86216V0.495266H307.363V2.86216L304.151 3.33554L308.175 18.247L308.919 21.6621L309.494 18.247L313.112 3.33554L310.237 2.86216V0.495266H318.454V2.86216L316.358 3.33554L310.102 25.7872H304.929L300.567 10.7405L296.442 25.7872H291.336L284.472 3.33554L282.511 2.86216V0.495266ZM326.716 0.393827H332.802L340.376 23.0484L342.236 23.3865V25.6182H331.585V23.3865L333.986 23.0484L332.836 18.9909H324.755L323.605 23.0822L326.243 23.3865V25.6182H317.248L317.215 23.3865L319.176 23.0146L326.716 0.393827ZM329.218 6.27725L328.711 3.91036L328.17 6.31106L325.431 16.3873H332.126L329.218 6.27725ZM342.913 23.3865L345.517 23.0484V3.30173L343.049 2.82835V0.495266H348.256C348.684 0.495266 349.146 0.483995 349.642 0.461453C350.16 0.438911 350.555 0.416368 350.825 0.393827C352.043 0.303659 353.08 0.258575 353.936 0.258575C356.348 0.258575 358.264 0.495265 359.684 0.968645C361.105 1.41948 362.13 2.14082 362.761 3.13266C363.415 4.10196 363.742 5.38685 363.742 6.98732C363.742 8.52017 363.336 9.95157 362.525 11.2815C361.713 12.6115 360.518 13.5245 358.941 14.0204C359.977 14.4036 360.845 15.1249 361.544 16.1844C362.265 17.2213 363.009 18.5513 363.776 20.1743C364.227 21.1211 364.587 21.8311 364.858 22.3045C365.128 22.7553 365.41 23.0146 365.703 23.0822L366.684 23.3865V25.6182H360.259C359.921 25.6182 359.572 25.2575 359.211 24.5362C358.85 23.8148 358.388 22.6877 357.825 21.1549C357.126 19.2839 356.517 17.8412 355.999 16.8268C355.503 15.7899 354.951 15.1587 354.342 14.9333H351.299V23.0484L354.308 23.3865V25.6182H342.913V23.3865ZM353.902 12.7355C355.075 12.7355 355.988 12.2847 356.641 11.383C357.295 10.4588 357.622 9.07244 357.622 7.22401C357.622 5.601 357.295 4.41755 356.641 3.67367C356.01 2.90724 354.939 2.52403 353.429 2.52403C352.618 2.52403 351.907 2.58039 351.299 2.6931V12.6341C351.592 12.7017 352.077 12.7355 352.753 12.7355C353.429 12.7355 353.812 12.7355 353.902 12.7355ZM370.249 3.33554L367.781 2.86216V0.495266H373.056C373.799 0.495266 374.803 0.450182 376.065 0.360014C376.358 0.337473 376.797 0.314931 377.384 0.29239C377.992 0.269847 378.533 0.258575 379.007 0.258575C383.109 0.258575 386.197 1.28423 388.271 3.33554C390.345 5.38685 391.382 8.32856 391.382 12.1607C391.382 14.7981 390.875 17.1537 389.86 19.2275C388.846 21.3014 387.392 22.9357 385.499 24.1304C383.605 25.3026 381.373 25.8887 378.804 25.8887C378.105 25.8887 377.057 25.8436 375.659 25.7534C374.352 25.6632 373.506 25.6182 373.123 25.6182H367.645V23.3865L370.249 23.0146V3.33554ZM375.963 23.116C376.752 23.364 377.654 23.4654 378.668 23.4203C380.697 23.3978 382.264 22.5412 383.368 20.8506C384.496 19.1374 385.059 16.5225 385.059 13.006C385.059 9.75997 384.507 7.22401 383.402 5.39812C382.32 3.54969 380.607 2.62547 378.263 2.62547C377.722 2.62547 377.237 2.65928 376.809 2.72691C376.38 2.79453 376.099 2.83962 375.963 2.86216V23.116ZM393.434 23.3865L396.038 23.0484V3.30173L393.57 2.82835V0.495266H398.777C399.205 0.495266 399.667 0.483995 400.163 0.461453C400.682 0.438911 401.076 0.416368 401.347 0.393827C402.564 0.303659 403.601 0.258575 404.457 0.258575C406.869 0.258575 408.785 0.495265 410.205 0.968645C411.626 1.41948 412.651 2.14082 413.282 3.13266C413.936 4.10196 414.263 5.38685 414.263 6.98732C414.263 8.52017 413.857 9.95157 413.046 11.2815C412.234 12.6115 411.04 13.5245 409.462 14.0204C410.499 14.4036 411.366 15.1249 412.065 16.1844C412.787 17.2213 413.53 18.5513 414.297 20.1743C414.748 21.1211 415.108 21.8311 415.379 22.3045C415.649 22.7553 415.931 23.0146 416.224 23.0822L417.205 23.3865V25.6182H410.78C410.442 25.6182 410.093 25.2575 409.732 24.5362C409.371 23.8148 408.909 22.6877 408.346 21.1549C407.647 19.2839 407.038 17.8412 406.52 16.8268C406.024 15.7899 405.472 15.1587 404.863 14.9333H401.82V23.0484L404.829 23.3865V25.6182H393.434V23.3865ZM404.423 12.7355C405.596 12.7355 406.509 12.2847 407.162 11.383C407.816 10.4588 408.143 9.07244 408.143 7.22401C408.143 5.601 407.816 4.41755 407.162 3.67367C406.531 2.90724 405.46 2.52403 403.95 2.52403C403.139 2.52403 402.429 2.58039 401.82 2.6931V12.6341C402.113 12.7017 402.598 12.7355 403.274 12.7355C403.95 12.7355 404.333 12.7355 404.423 12.7355ZM429.088 25.9901C425.301 25.9901 422.495 24.8517 420.669 22.575C418.843 20.2757 417.93 17.1199 417.93 13.1074C417.93 10.5151 418.403 8.24966 419.35 6.31106C420.319 4.34992 421.672 2.83962 423.408 1.78015C425.143 0.720684 427.172 0.190951 429.494 0.190951C433.371 0.190951 436.223 1.27296 438.048 3.43698C439.897 5.57845 440.821 8.64415 440.821 12.6341C440.821 15.2715 440.336 17.6045 439.367 19.6333C438.398 21.6395 437.023 23.2062 435.242 24.3333C433.484 25.4378 431.432 25.9901 429.088 25.9901ZM429.392 2.42259C427.769 2.42259 426.507 3.313 425.605 5.0938C424.726 6.87461 424.287 9.53455 424.287 13.0736C424.287 16.6803 424.726 19.3628 425.605 21.1211C426.484 22.8568 427.736 23.7246 429.359 23.7246C430.959 23.7246 432.199 22.7779 433.078 20.8844C433.98 18.9683 434.43 16.2295 434.43 12.6679C434.43 9.06117 434.002 6.45759 433.146 4.85711C432.289 3.2341 431.038 2.42259 429.392 2.42259ZM445.502 3.33554L442.966 2.86216V0.495266H448.309C449.075 0.495266 450.09 0.450182 451.352 0.360014C451.622 0.337473 451.961 0.314931 452.366 0.29239C452.772 0.269847 453.245 0.258575 453.786 0.258575C456.244 0.258575 458.171 0.483994 459.568 0.934832C460.966 1.38567 461.935 2.02811 462.476 2.86216C463.04 3.69621 463.322 4.74441 463.322 6.00675C463.322 7.69739 462.792 9.09498 461.732 10.1995C460.696 11.3041 459.366 11.9691 457.743 12.1945C459.997 12.1945 461.766 12.7017 463.051 13.7161C464.359 14.7304 465.012 16.1619 465.012 18.0103C465.012 20.4223 464.178 22.3271 462.51 23.7246C460.865 25.1222 458.058 25.821 454.091 25.821C453.46 25.821 452.851 25.7985 452.265 25.7534C451.679 25.7309 451.262 25.7196 451.014 25.7196C450.202 25.652 449.323 25.6182 448.376 25.6182H442.899V23.3865L445.502 23.0146V3.33554ZM451.217 11.3492C451.622 11.3943 452.535 11.4168 453.956 11.4168C455.195 11.4168 456.108 10.9998 456.694 10.1657C457.28 9.30913 457.573 8.11441 457.573 6.58157C457.573 5.16143 457.258 4.1245 456.627 3.47079C455.996 2.81708 454.97 2.49022 453.55 2.49022C453.212 2.49022 452.817 2.51276 452.366 2.55785C451.915 2.58039 451.532 2.6142 451.217 2.65928V11.3492ZM451.217 23.2175C451.668 23.3978 452.558 23.488 453.888 23.488C455.556 23.488 456.762 23.0484 457.506 22.1693C458.272 21.2901 458.656 20.0165 458.656 18.3484C458.656 16.7705 458.306 15.6434 457.607 14.9671C456.909 14.2909 455.804 13.9528 454.294 13.9528C453.054 13.9528 452.028 13.9753 451.217 14.0204V23.2175ZM469.739 3.33554L467.102 2.86216V0.495266H485.597L486.037 6.48013H483.366L482.182 3.06504L475.521 2.72691V11.5182L479.646 11.4168L480.255 8.64415H482.588V17.1312H480.255L479.68 14.1894L475.521 14.088V23.2851L482.926 22.8117L484.989 18.4499L487.863 19.2614L487.051 25.6182H467.136V23.3865L469.739 23.0484V3.33554ZM0.430483 49.8521H7.76786V51.2384L5.06283 51.6441L8.07217 62.1599L9.18799 66.8599L10.3038 62.1261L13.6851 49.8521H16.4916L19.8728 62.1261L20.9548 66.8937L22.1721 62.1599L25.1476 51.678L22.544 51.2384V49.8521H29.1714V51.2384L27.3116 51.678L22.0369 68.8887H19.298L15.6124 56.3103L14.6657 52.0499L13.8542 56.3103L10.3038 68.8887H7.63261L2.22256 51.6441L0.430483 51.2384V49.8521ZM34.341 46.3017C33.1237 46.3017 32.5151 45.6593 32.5151 44.3744C32.5151 43.7207 32.7067 43.1909 33.0899 42.7852C33.4731 42.3569 33.9916 42.1428 34.6453 42.1428C35.3216 42.1428 35.8062 42.3344 36.0993 42.7176C36.3923 43.0782 36.5388 43.5291 36.5388 44.0701C36.5388 44.7689 36.3472 45.3212 35.964 45.7269C35.6033 46.1101 35.0736 46.3017 34.3748 46.3017H34.341ZM33.259 52.0837L30.6216 51.5089V49.9873L35.254 49.4463H35.3216L35.9978 49.9873V66.9275L38.9395 67.1642V68.6182H30.2835V67.1642L33.259 66.8937V52.0837ZM47.1973 68.9901C46.0025 68.9901 45.1009 68.7196 44.4922 68.1786C43.8836 67.6151 43.5793 66.6232 43.5793 65.2031V51.847H41.0095V50.5283C42.1366 50.2804 42.7903 50.1 42.9707 49.9873C43.3088 49.807 43.5567 49.4576 43.7145 48.9391C43.8498 48.601 44.0301 47.9924 44.2555 47.1132C44.481 46.2341 44.65 45.5466 44.7627 45.0507H46.3181V49.8521H52.303V51.847H46.3181V62.8024C46.3181 64.1098 46.3632 65.034 46.4534 65.575C46.5435 66.0935 46.7239 66.4316 46.9944 66.5894C47.2649 66.7472 47.7383 66.8261 48.4145 66.8261C49.0682 66.8261 49.8008 66.7359 50.6124 66.5556C51.4239 66.3752 52.0325 66.1836 52.4382 65.9808L52.8778 67.2657C52.3593 67.6714 51.5028 68.0659 50.308 68.4491C49.1133 68.8098 48.0764 68.9901 47.1973 68.9901ZM57.0452 43.0557L54.0359 42.7514V41.5003L59.0402 40.9255H59.1078L59.7503 41.3651V49.4125L59.6826 52.219C60.404 51.5653 61.4184 50.9341 62.7258 50.3254C64.0332 49.7168 65.3181 49.4125 66.5804 49.4125C68.0006 49.4125 69.1051 49.683 69.8941 50.224C70.6831 50.765 71.2353 51.6103 71.5509 52.76C71.8665 53.8871 72.0243 55.4199 72.0243 57.3585V66.8937L74.4926 67.1642V68.6182H66.9186V67.1642L69.2855 66.8937V57.3247C69.2855 55.882 69.184 54.7549 68.9811 53.9434C68.8008 53.1319 68.4289 52.5233 67.8653 52.1175C67.3018 51.7118 66.479 51.5089 65.397 51.5089C64.4953 51.5089 63.526 51.7343 62.4891 52.1852C61.4522 52.6134 60.5392 53.1319 59.7503 53.7405V66.8937L62.2524 67.1642V68.6182H54.915V67.1642L57.0452 66.9275V43.0557ZM91.0152 68.9901C89.8205 68.9901 88.9188 68.7196 88.3102 68.1786C87.7015 67.6151 87.3972 66.6232 87.3972 65.2031V51.847H84.8275V50.5283C85.9545 50.2804 86.6083 50.1 86.7886 49.9873C87.1267 49.807 87.3747 49.4576 87.5325 48.9391C87.6677 48.601 87.8481 47.9924 88.0735 47.1132C88.2989 46.2341 88.468 45.5466 88.5807 45.0507H90.1361V49.8521H96.1209V51.847H90.1361V62.8024C90.1361 64.1098 90.1811 65.034 90.2713 65.575C90.3615 66.0935 90.5418 66.4316 90.8123 66.5894C91.0828 66.7472 91.5562 66.8261 92.2325 66.8261C92.8862 66.8261 93.6188 66.7359 94.4303 66.5556C95.2418 66.3752 95.8504 66.1836 96.2562 65.9808L96.6957 67.2657C96.1773 67.6714 95.3207 68.0659 94.126 68.4491C92.9312 68.8098 91.8943 68.9901 91.0152 68.9901ZM100.863 43.0557L97.8538 42.7514V41.5003L102.858 40.9255H102.926L103.568 41.3651V49.4125L103.501 52.219C104.222 51.5653 105.236 50.9341 106.544 50.3254C107.851 49.7168 109.136 49.4125 110.398 49.4125C111.819 49.4125 112.923 49.683 113.712 50.224C114.501 50.765 115.053 51.6103 115.369 52.76C115.684 53.8871 115.842 55.4199 115.842 57.3585V66.8937L118.311 67.1642V68.6182H110.736V67.1642L113.103 66.8937V57.3247C113.103 55.882 113.002 54.7549 112.799 53.9434C112.619 53.1319 112.247 52.5233 111.683 52.1175C111.12 51.7118 110.297 51.5089 109.215 51.5089C108.313 51.5089 107.344 51.7343 106.307 52.1852C105.27 52.6134 104.357 53.1319 103.568 53.7405V66.8937L106.07 67.1642V68.6182H98.733V67.1642L100.863 66.9275V43.0557ZM129.176 68.9901C126.561 68.9901 124.544 68.0997 123.124 66.3189C121.726 64.5155 121.027 62.1261 121.027 59.1506C121.027 57.2345 121.399 55.5326 122.143 54.0449C122.887 52.5571 123.913 51.4075 125.22 50.5959C126.55 49.7619 128.038 49.3449 129.683 49.3449C131.69 49.3449 133.245 49.9197 134.349 51.0693C135.477 52.219 136.085 53.8758 136.175 56.0398C136.175 57.4374 136.108 58.4292 135.972 59.0153H123.935C123.935 61.3822 124.465 63.3208 125.524 64.8311C126.606 66.3189 128.117 67.0628 130.055 67.0628C131.002 67.0628 131.971 66.8937 132.963 66.5556C133.955 66.2175 134.721 65.8117 135.262 65.3383L135.803 66.5894C135.15 67.2657 134.192 67.8405 132.929 68.3138C131.69 68.7647 130.438 68.9901 129.176 68.9901ZM133.132 57.4261C133.2 56.9528 133.234 56.4568 133.234 55.9384C133.211 54.4506 132.85 53.2672 132.152 52.388C131.475 51.5089 130.427 51.0693 129.007 51.0693C125.919 51.0693 124.239 53.1883 123.969 57.4261H133.132ZM150.016 43.0557L147.142 42.7514V41.5003L152.079 40.9255H152.113L152.755 41.3651V66.9275L155.934 67.1642V68.6182H147.041V67.1642L150.016 66.8937V43.0557ZM158.574 63.6815C158.574 61.4949 159.656 59.917 161.82 58.9477C163.985 57.9559 166.678 57.4261 169.902 57.3585V56.3103C169.902 55.1607 169.778 54.259 169.53 53.6053C169.304 52.929 168.899 52.4444 168.313 52.1513C167.726 51.8358 166.904 51.678 165.844 51.678C164.695 51.678 163.646 51.8583 162.7 52.219C161.775 52.5571 160.874 52.9741 159.995 53.47L159.251 51.9823C159.499 51.7569 160.017 51.4413 160.806 51.0355C161.595 50.6298 162.497 50.2691 163.511 49.9535C164.526 49.6379 165.506 49.4801 166.453 49.4801C167.986 49.4801 169.192 49.6943 170.071 50.1226C170.972 50.5509 171.615 51.2384 171.998 52.1852C172.404 53.1319 172.607 54.4055 172.607 56.006V67.1642H174.703V68.4153C173.463 68.7534 172.415 68.9225 171.559 68.9225C171.018 68.9225 170.646 68.8323 170.443 68.652C170.24 68.4942 170.138 68.111 170.138 67.5023V66.2513C169.327 66.9726 168.437 67.6151 167.467 68.1786C166.52 68.7196 165.438 68.9901 164.221 68.9901C162.598 68.9901 161.246 68.5393 160.164 67.6376C159.104 66.7359 158.574 65.4172 158.574 63.6815ZM165.236 66.9952C165.867 66.9952 166.622 66.7923 167.501 66.3865C168.38 65.9808 169.18 65.4961 169.902 64.9326V58.9477C167.174 58.9702 165.1 59.376 163.68 60.165C162.283 60.9539 161.584 62.0134 161.584 63.3434C161.584 64.6283 161.911 65.5637 162.564 66.1498C163.218 66.7134 164.108 66.9952 165.236 66.9952ZM183.043 68.9901C181.848 68.9901 180.946 68.7196 180.338 68.1786C179.729 67.6151 179.425 66.6232 179.425 65.2031V51.847H176.855V50.5283C177.982 50.2804 178.636 50.1 178.816 49.9873C179.154 49.807 179.402 49.4576 179.56 48.9391C179.695 48.601 179.876 47.9924 180.101 47.1132C180.326 46.2341 180.496 45.5466 180.608 45.0507H182.164V49.8521H188.148V51.847H182.164V62.8024C182.164 64.1098 182.209 65.034 182.299 65.575C182.389 66.0935 182.569 66.4316 182.84 66.5894C183.11 66.7472 183.584 66.8261 184.26 66.8261C184.914 66.8261 185.646 66.7359 186.458 66.5556C187.269 66.3752 187.878 66.1836 188.284 65.9808L188.723 67.2657C188.205 67.6714 187.348 68.0659 186.154 68.4491C184.959 68.8098 183.922 68.9901 183.043 68.9901ZM199.146 68.9901C196.531 68.9901 194.514 68.0997 193.094 66.3189C191.696 64.5155 190.997 62.1261 190.997 59.1506C190.997 57.2345 191.369 55.5326 192.113 54.0449C192.857 52.5571 193.883 51.4075 195.19 50.5959C196.52 49.7619 198.008 49.3449 199.653 49.3449C201.66 49.3449 203.215 49.9197 204.319 51.0693C205.447 52.219 206.055 53.8758 206.145 56.0398C206.145 57.4374 206.078 58.4292 205.942 59.0153H193.905C193.905 61.3822 194.435 63.3208 195.494 64.8311C196.576 66.3189 198.087 67.0628 200.025 67.0628C200.972 67.0628 201.941 66.8937 202.933 66.5556C203.925 66.2175 204.691 65.8117 205.232 65.3383L205.773 66.5894C205.12 67.2657 204.162 67.8405 202.899 68.3138C201.66 68.7647 200.408 68.9901 199.146 68.9901ZM203.102 57.4261C203.17 56.9528 203.204 56.4568 203.204 55.9384C203.181 54.4506 202.82 53.2672 202.122 52.388C201.445 51.5089 200.397 51.0693 198.977 51.0693C195.889 51.0693 194.209 53.1883 193.939 57.4261H203.102ZM211.962 65.947C212.21 66.3302 212.729 66.6683 213.518 66.9613C214.307 67.2544 215.152 67.4009 216.054 67.4009C218.804 67.4009 220.179 66.3865 220.179 64.3578C220.179 63.4335 219.796 62.6897 219.029 62.1261C218.263 61.54 216.955 60.8976 215.107 60.1988C213.281 59.5451 211.951 58.7674 211.117 57.8657C210.283 56.964 209.866 55.758 209.866 54.2477C209.866 53.2784 210.159 52.4331 210.745 51.7118C211.354 50.9904 212.154 50.4382 213.146 50.0549C214.16 49.6492 215.254 49.4463 216.426 49.4463C217.575 49.4463 218.533 49.5478 219.3 49.7506C220.089 49.9535 220.866 50.2015 221.633 50.4945V54.5182H219.976L219.367 52.0499C219.21 51.7569 218.804 51.5089 218.15 51.306C217.519 51.1031 216.82 51.0017 216.054 51.0017C214.972 51.0017 214.093 51.2497 213.416 51.7456C212.74 52.219 212.402 52.8614 212.402 53.6729C212.402 54.3943 212.571 54.9916 212.909 55.465C213.247 55.9384 213.664 56.3216 214.16 56.6146C214.656 56.8851 215.344 57.2007 216.223 57.5614L216.865 57.8319C218.15 58.3278 219.187 58.8012 219.976 59.252C220.765 59.6803 221.419 60.2551 221.937 60.9765C222.456 61.6753 222.715 62.5544 222.715 63.6139C222.715 65.282 222.072 66.6007 220.788 67.57C219.525 68.5167 217.835 68.9901 215.716 68.9901C214.746 68.9901 213.642 68.8323 212.402 68.5167C211.162 68.2011 210.238 67.8856 209.629 67.57V63.3096H211.455L211.962 65.947ZM231.814 68.9901C230.619 68.9901 229.717 68.7196 229.109 68.1786C228.5 67.6151 228.196 66.6232 228.196 65.2031V51.847H225.626V50.5283C226.753 50.2804 227.407 50.1 227.587 49.9873C227.925 49.807 228.173 49.4576 228.331 48.9391C228.466 48.601 228.647 47.9924 228.872 47.1132C229.097 46.2341 229.266 45.5466 229.379 45.0507H230.935V49.8521H236.919V51.847H230.935V62.8024C230.935 64.1098 230.98 65.034 231.07 65.575C231.16 66.0935 231.34 66.4316 231.611 66.5894C231.881 66.7472 232.355 66.8261 233.031 66.8261C233.685 66.8261 234.417 66.7359 235.229 66.5556C236.04 66.3752 236.649 66.1836 237.055 65.9808L237.494 67.2657C236.976 67.6714 236.119 68.0659 234.924 68.4491C233.73 68.8098 232.693 68.9901 231.814 68.9901ZM250.666 51.8808H247.251V50.5283L250.666 49.8859V48.2291C250.666 46.8765 251.016 45.6367 251.714 44.5096C252.413 43.36 253.315 42.4471 254.419 41.7708C255.547 41.0946 256.719 40.7564 257.936 40.7564C258.657 40.7564 259.288 40.8466 259.829 41.0269V43.7996C259.649 43.6643 259.277 43.5291 258.714 43.3938C258.173 43.2586 257.541 43.191 256.82 43.191C255.625 43.191 254.758 43.5065 254.217 44.1377C253.676 44.7689 253.405 45.8396 253.405 47.3499V49.8859H258.308V51.8808H253.405V66.9275L257.26 67.1642V68.6182H247.691V67.1642L250.666 66.8937V51.8808ZM261.268 63.6815C261.268 61.4949 262.35 59.917 264.514 58.9477C266.678 57.9559 269.371 57.4261 272.595 57.3585V56.3103C272.595 55.1607 272.471 54.259 272.223 53.6053C271.997 52.929 271.592 52.4444 271.006 52.1513C270.42 51.8358 269.597 51.678 268.537 51.678C267.388 51.678 266.339 51.8583 265.393 52.219C264.469 52.5571 263.567 52.9741 262.688 53.47L261.944 51.9823C262.192 51.7569 262.71 51.4413 263.499 51.0355C264.288 50.6298 265.19 50.2691 266.204 49.9535C267.219 49.6379 268.199 49.4801 269.146 49.4801C270.679 49.4801 271.885 49.6943 272.764 50.1226C273.666 50.5509 274.308 51.2384 274.691 52.1852C275.097 53.1319 275.3 54.4055 275.3 56.006V67.1642H277.396V68.4153C276.156 68.7534 275.108 68.9225 274.252 68.9225C273.711 68.9225 273.339 68.8323 273.136 68.652C272.933 68.4942 272.832 68.111 272.832 67.5023V66.2513C272.02 66.9726 271.13 67.6151 270.16 68.1786C269.214 68.7196 268.132 68.9901 266.914 68.9901C265.291 68.9901 263.939 68.5393 262.857 67.6376C261.797 66.7359 261.268 65.4172 261.268 63.6815ZM267.929 66.9952C268.56 66.9952 269.315 66.7923 270.194 66.3865C271.073 65.9808 271.874 65.4961 272.595 64.9326V58.9477C269.867 58.9702 267.793 59.376 266.373 60.165C264.976 60.9539 264.277 62.0134 264.277 63.3434C264.277 64.6283 264.604 65.5637 265.257 66.1498C265.911 66.7134 266.802 66.9952 267.929 66.9952ZM282.659 65.947C282.907 66.3302 283.425 66.6683 284.214 66.9613C285.003 67.2544 285.849 67.4009 286.75 67.4009C289.5 67.4009 290.875 66.3865 290.875 64.3578C290.875 63.4335 290.492 62.6897 289.726 62.1261C288.959 61.54 287.652 60.8976 285.803 60.1988C283.978 59.5451 282.648 58.7674 281.814 57.8657C280.98 56.964 280.563 55.758 280.563 54.2477C280.563 53.2784 280.856 52.4331 281.442 51.7118C282.05 50.9904 282.851 50.4382 283.842 50.0549C284.857 49.6492 285.95 49.4463 287.122 49.4463C288.272 49.4463 289.23 49.5478 289.996 49.7506C290.785 49.9535 291.563 50.2015 292.329 50.4945V54.5182H290.673L290.064 52.0499C289.906 51.7569 289.5 51.5089 288.847 51.306C288.215 51.1031 287.517 51.0017 286.75 51.0017C285.668 51.0017 284.789 51.2497 284.113 51.7456C283.437 52.219 283.098 52.8614 283.098 53.6729C283.098 54.3943 283.268 54.9916 283.606 55.465C283.944 55.9384 284.361 56.3216 284.857 56.6146C285.353 56.8851 286.04 57.2007 286.919 57.5614L287.562 57.8319C288.847 58.3278 289.884 58.8012 290.673 59.252C291.462 59.6803 292.115 60.2551 292.634 60.9765C293.152 61.6753 293.411 62.5544 293.411 63.6139C293.411 65.282 292.769 66.6007 291.484 67.57C290.222 68.5167 288.531 68.9901 286.412 68.9901C285.443 68.9901 284.338 68.8323 283.098 68.5167C281.859 68.2011 280.934 67.8856 280.326 67.57V63.3096H282.152L282.659 65.947ZM298.622 43.0557L295.612 42.7514V41.5003L300.617 40.9255H300.684L301.327 41.3651V49.4125L301.259 52.219C301.98 51.5653 302.995 50.9341 304.302 50.3254C305.61 49.7168 306.895 49.4125 308.157 49.4125C309.577 49.4125 310.682 49.683 311.471 50.224C312.26 50.765 312.812 51.6103 313.127 52.76C313.443 53.8871 313.601 55.4199 313.601 57.3585V66.8937L316.069 67.1642V68.6182H308.495V67.1642L310.862 66.8937V57.3247C310.862 55.882 310.76 54.7549 310.558 53.9434C310.377 53.1319 310.005 52.5233 309.442 52.1175C308.878 51.7118 308.055 51.5089 306.973 51.5089C306.072 51.5089 305.102 51.7343 304.066 52.1852C303.029 52.6134 302.116 53.1319 301.327 53.7405V66.8937L303.829 67.1642V68.6182H296.491V67.1642L298.622 66.9275V43.0557ZM322.674 46.3017C321.457 46.3017 320.848 45.6593 320.848 44.3744C320.848 43.7207 321.04 43.1909 321.423 42.7852C321.806 42.3569 322.325 42.1428 322.979 42.1428C323.655 42.1428 324.139 42.3344 324.432 42.7176C324.726 43.0782 324.872 43.5291 324.872 44.0701C324.872 44.7689 324.68 45.3212 324.297 45.7269C323.937 46.1101 323.407 46.3017 322.708 46.3017H322.674ZM321.592 52.0837L318.955 51.5089V49.9873L323.587 49.4463H323.655L324.331 49.9873V66.9275L327.273 67.1642V68.6182H318.617V67.1642L321.592 66.8937V52.0837ZM329.681 59.1168C329.681 57.1556 330.087 55.4312 330.898 53.9434C331.732 52.4557 332.814 51.3173 334.144 50.5283C335.497 49.7394 336.906 49.3449 338.371 49.3449C341.211 49.3449 343.307 50.2691 344.66 52.1175C346.035 53.966 346.723 56.3329 346.723 59.2182C346.723 61.1794 346.305 62.9038 345.471 64.3916C344.66 65.8793 343.578 67.0177 342.225 67.8067C340.895 68.5956 339.498 68.9901 338.033 68.9901C335.192 68.9901 333.085 68.0659 331.71 66.2175C330.357 64.369 329.681 62.0021 329.681 59.1168ZM338.202 67.2318C339.937 67.2318 341.279 66.5669 342.225 65.2369C343.172 63.9069 343.646 61.9683 343.646 59.4211C343.646 56.9866 343.206 54.9916 342.327 53.4362C341.448 51.8808 340.084 51.1031 338.236 51.1031C336.5 51.1031 335.147 51.7681 334.178 53.0981C333.231 54.4281 332.758 56.3667 332.758 58.9139C332.758 61.371 333.197 63.3772 334.077 64.9326C334.978 66.4654 336.353 67.2318 338.202 67.2318ZM351.92 52.0837L349.317 51.5089V49.9873L353.611 49.4463H353.713L354.355 49.9873V51.4751L354.321 52.3204C355.155 51.5991 356.26 50.9341 357.635 50.3254C359.01 49.7168 360.283 49.4125 361.456 49.4125C362.898 49.4125 364.003 49.6943 364.769 50.2578C365.558 50.7988 366.099 51.6441 366.392 52.7938C366.708 53.9209 366.866 55.4424 366.866 57.3585V66.9275L369.402 67.1642V68.6182H361.861V67.1642L364.127 66.9275V57.3247C364.127 55.9046 364.025 54.7887 363.823 53.9772C363.642 53.1657 363.27 52.5571 362.707 52.1513C362.166 51.723 361.365 51.5089 360.306 51.5089C359.404 51.5089 358.424 51.7343 357.364 52.1852C356.327 52.636 355.426 53.1657 354.659 53.7744V66.8937L357.128 67.1642V68.6182H349.655V67.1642L351.92 66.8937V52.0837ZM385.754 68.9901C384.56 68.9901 383.658 68.7196 383.049 68.1786C382.441 67.6151 382.136 66.6232 382.136 65.2031V51.847H379.567V50.5283C380.694 50.2804 381.347 50.1 381.528 49.9873C381.866 49.807 382.114 49.4576 382.272 48.9391C382.407 48.601 382.587 47.9924 382.813 47.1132C383.038 46.2341 383.207 45.5466 383.32 45.0507H384.875V49.8521H390.86V51.847H384.875V62.8024C384.875 64.1098 384.92 65.034 385.01 65.575C385.101 66.0935 385.281 66.4316 385.551 66.5894C385.822 66.7472 386.295 66.8261 386.972 66.8261C387.625 66.8261 388.358 66.7359 389.169 66.5556C389.981 66.3752 390.59 66.1836 390.995 65.9808L391.435 67.2657C390.916 67.6714 390.06 68.0659 388.865 68.4491C387.67 68.8098 386.633 68.9901 385.754 68.9901ZM393.776 67.198L396.481 66.9952V52.0837L393.878 51.5089V49.9873L398.172 49.4463H398.24L398.882 49.9873V50.5283L398.815 53.0981H398.882C398.927 53.053 399.22 52.7149 399.761 52.0837C400.325 51.43 401.148 50.8101 402.23 50.224C403.334 49.6379 404.439 49.3449 405.543 49.3449C405.904 49.3449 406.242 49.39 406.558 49.4801V52.4557C406.467 52.388 406.265 52.3204 405.949 52.2528C405.656 52.1852 405.34 52.1513 405.002 52.1513C403.717 52.1513 402.624 52.3429 401.722 52.7262C400.821 53.1094 399.987 53.5827 399.22 54.1463V66.9613L403.717 67.2318V68.6182H393.776V67.198ZM417.08 68.9901C414.465 68.9901 412.448 68.0997 411.028 66.3189C409.63 64.5155 408.931 62.1261 408.931 59.1506C408.931 57.2345 409.303 55.5326 410.047 54.0449C410.791 52.5571 411.817 51.4075 413.124 50.5959C414.454 49.7619 415.942 49.3449 417.587 49.3449C419.593 49.3449 421.149 49.9197 422.253 51.0693C423.38 52.219 423.989 53.8758 424.079 56.0398C424.079 57.4374 424.012 58.4292 423.876 59.0153H411.839C411.839 61.3822 412.369 63.3208 413.428 64.8311C414.51 66.3189 416.021 67.0628 417.959 67.0628C418.906 67.0628 419.875 66.8937 420.867 66.5556C421.859 66.2175 422.625 65.8117 423.166 65.3383L423.707 66.5894C423.054 67.2657 422.096 67.8405 420.833 68.3138C419.593 68.7647 418.342 68.9901 417.08 68.9901ZM421.036 57.4261C421.104 56.9528 421.138 56.4568 421.138 55.9384C421.115 54.4506 420.754 53.2672 420.056 52.388C419.379 51.5089 418.331 51.0693 416.911 51.0693C413.823 51.0693 412.143 53.1883 411.873 57.4261H421.036ZM429.254 52.0837L426.65 51.5089V49.9873L430.945 49.4463H431.046L431.688 49.9873V51.4751L431.655 52.3204C432.489 51.5991 433.593 50.9341 434.968 50.3254C436.343 49.7168 437.617 49.4125 438.789 49.4125C440.232 49.4125 441.336 49.6943 442.103 50.2578C442.892 50.7988 443.433 51.6441 443.726 52.7938C444.041 53.9209 444.199 55.4424 444.199 57.3585V66.9275L446.735 67.1642V68.6182H439.195V67.1642L441.46 66.9275V57.3247C441.46 55.9046 441.359 54.7887 441.156 53.9772C440.976 53.1657 440.604 52.5571 440.04 52.1513C439.499 51.723 438.699 51.5089 437.64 51.5089C436.738 51.5089 435.757 51.7343 434.698 52.1852C433.661 52.636 432.759 53.1657 431.993 53.7744V66.8937L434.461 67.1642V68.6182H426.988V67.1642L429.254 66.8937V52.0837ZM456.653 68.9901C455.323 68.9901 454.095 68.652 452.968 67.9757C451.84 67.2769 450.939 66.2287 450.263 64.8311C449.586 63.4335 449.248 61.7204 449.248 59.6916C449.248 57.753 449.643 56.006 450.432 54.4506C451.221 52.8727 452.336 51.6329 453.779 50.7312C455.244 49.807 456.946 49.3449 458.885 49.3449C460.125 49.3449 461.319 49.4801 462.469 49.7506V43.0557L458.952 42.7176V41.5003L464.498 40.9255H464.565L465.208 41.3989V67.0966H467.27V68.4153C467.158 68.4378 466.774 68.528 466.121 68.6858C465.467 68.8436 464.768 68.9225 464.024 68.9225C463.506 68.9225 463.134 68.8323 462.909 68.652C462.706 68.4716 462.604 68.0772 462.604 67.4685V66.2851C461.905 67.0515 461.049 67.6939 460.034 68.2124C459.043 68.7309 457.915 68.9901 456.653 68.9901ZM457.769 66.8599C458.738 66.8599 459.651 66.6345 460.508 66.1836C461.387 65.7103 462.041 65.1918 462.469 64.6283V52.1852C462.289 51.8696 461.815 51.5991 461.049 51.3736C460.305 51.1482 459.505 51.0355 458.648 51.0355C456.709 51.0355 455.154 51.7343 453.982 53.1319C452.81 54.507 452.224 56.6034 452.224 59.4211C452.224 61.9458 452.742 63.8167 453.779 65.034C454.816 66.2513 456.146 66.8599 457.769 66.8599ZM472.889 65.947C473.137 66.3302 473.655 66.6683 474.444 66.9613C475.233 67.2544 476.079 67.4009 476.98 67.4009C479.73 67.4009 481.105 66.3865 481.105 64.3578C481.105 63.4335 480.722 62.6897 479.956 62.1261C479.189 61.54 477.882 60.8976 476.033 60.1988C474.208 59.5451 472.878 58.7674 472.044 57.8657C471.209 56.964 470.792 55.758 470.792 54.2477C470.792 53.2784 471.085 52.4331 471.672 51.7118C472.28 50.9904 473.08 50.4382 474.072 50.0549C475.087 49.6492 476.18 49.4463 477.352 49.4463C478.502 49.4463 479.46 49.5478 480.226 49.7506C481.015 49.9535 481.793 50.2015 482.559 50.4945V54.5182H480.902L480.294 52.0499C480.136 51.7569 479.73 51.5089 479.077 51.306C478.445 51.1031 477.747 51.0017 476.98 51.0017C475.898 51.0017 475.019 51.2497 474.343 51.7456C473.667 52.219 473.328 52.8614 473.328 53.6729C473.328 54.3943 473.497 54.9916 473.836 55.465C474.174 55.9384 474.591 56.3216 475.087 56.6146C475.583 56.8851 476.27 57.2007 477.149 57.5614L477.792 57.8319C479.077 58.3278 480.113 58.8012 480.902 59.252C481.691 59.6803 482.345 60.2551 482.864 60.9765C483.382 61.6753 483.641 62.5544 483.641 63.6139C483.641 65.282 482.999 66.6007 481.714 67.57C480.452 68.5167 478.761 68.9901 476.642 68.9901C475.673 68.9901 474.568 68.8323 473.328 68.5167C472.089 68.2011 471.164 67.8856 470.556 67.57V63.3096H472.382L472.889 65.947ZM4.59921 92.3658H1.48712V91.1333L4.59921 90.5479V89.0381C4.59921 87.8055 4.91761 86.6757 5.5544 85.6486C6.1912 84.601 7.01288 83.7691 8.01943 83.1528C9.04652 82.5366 10.1147 82.2284 11.224 82.2284C11.8813 82.2284 12.4565 82.3106 12.9495 82.4749V85.0016C12.7851 84.8783 12.4462 84.7551 11.9327 84.6318C11.4396 84.5086 10.8645 84.447 10.2071 84.447C9.11842 84.447 8.32756 84.7345 7.83455 85.3097C7.34155 85.8849 7.09504 86.8606 7.09504 88.2369V90.5479H11.5629V92.3658H7.09504V106.078L10.6077 106.293V107.618H1.88768V106.293L4.59921 106.047V92.3658ZM14.0751 98.9598C14.0751 97.1726 14.4449 95.6012 15.1844 94.2454C15.9444 92.8897 16.9304 91.8523 18.1424 91.1333C19.3749 90.4144 20.6588 90.0549 21.994 90.0549C24.5823 90.0549 26.4927 90.8971 27.7252 92.5815C28.9782 94.266 29.6047 96.4229 29.6047 99.0522C29.6047 100.839 29.2247 102.411 28.4647 103.767C27.7252 105.122 26.7392 106.16 25.5066 106.879C24.2947 107.598 23.0211 107.957 21.6859 107.957C19.0976 107.957 17.1769 107.115 15.9239 105.43C14.6914 103.746 14.0751 101.589 14.0751 98.9598ZM21.8399 106.355C23.4216 106.355 24.6439 105.749 25.5066 104.537C26.3694 103.325 26.8008 101.558 26.8008 99.2371C26.8008 97.0186 26.4002 95.2006 25.5991 93.7832C24.798 92.3658 23.5552 91.6571 21.8707 91.6571C20.289 91.6571 19.0565 92.2631 18.1732 93.4751C17.3104 94.6871 16.8791 96.4537 16.8791 98.7749C16.8791 101.014 17.2796 102.842 18.0808 104.26C18.9024 105.656 20.1555 106.355 21.8399 106.355ZM32.5235 106.324L34.9886 106.139V92.5507L32.616 92.0269V90.6403L36.5292 90.1473H36.5908L37.1763 90.6403V91.1333L37.1146 93.4751H37.1763C37.2173 93.434 37.4844 93.1259 37.9774 92.5507C38.4909 91.955 39.2407 91.3901 40.2267 90.856C41.2333 90.3219 42.2398 90.0549 43.2464 90.0549C43.5751 90.0549 43.8832 90.096 44.1708 90.1781V92.8897C44.0886 92.828 43.9037 92.7664 43.6161 92.7048C43.3491 92.6432 43.0615 92.6123 42.7534 92.6123C41.5825 92.6123 40.5862 92.7869 39.7645 93.1362C38.9429 93.4854 38.1828 93.9167 37.4844 94.4303V106.108L41.5825 106.355V107.618H32.5235V106.324ZM53.5533 106.293L55.5253 106.047V92.5507L53.1527 92.0269V90.6403L57.0659 90.1473L57.7438 90.6403V91.9961L57.713 92.7664C58.473 92.1091 59.4693 91.5031 60.7018 90.9484C61.9343 90.3938 63.0539 90.1165 64.0604 90.1165C65.1697 90.1165 66.053 90.3014 66.7103 90.6711C67.3882 91.0409 67.9017 91.6161 68.251 92.3966C68.8878 91.8626 69.8121 91.349 71.0241 90.856C72.2566 90.363 73.3864 90.1165 74.4135 90.1165C75.7076 90.1165 76.7039 90.363 77.4024 90.856C78.1213 91.349 78.6246 92.1091 78.9122 93.1362C79.1998 94.1632 79.3436 95.5498 79.3436 97.2959V106.047L81.6853 106.293V107.618H74.7833V106.293L76.8785 106.047V97.3883C76.8785 96.0942 76.7861 95.0671 76.6012 94.307C76.4163 93.547 76.0569 92.9718 75.5228 92.5815C74.9887 92.1912 74.2081 91.9961 73.181 91.9961C72.421 91.9961 71.6198 92.1707 70.7776 92.5199C69.9559 92.8486 69.2472 93.2286 68.6515 93.66C68.8569 94.6049 68.9596 95.8374 68.9596 97.3575V106.047L71.3014 106.293V107.618H64.2453V106.293L66.4638 106.047V97.3267C66.4638 96.012 66.3816 94.9849 66.2173 94.2454C66.0735 93.5059 65.7551 92.9513 65.2621 92.5815C64.7691 92.2118 64.0399 92.0269 63.0744 92.0269C62.2733 92.0269 61.4002 92.2323 60.4553 92.6432C59.5309 93.0334 58.7195 93.5059 58.0211 94.0605V106.047L60.2088 106.293V107.618H53.5533V106.293ZM91.4029 107.957C89.0201 107.957 87.1816 107.146 85.8874 105.523C84.6138 103.88 83.977 101.702 83.977 98.9906C83.977 97.2445 84.316 95.6936 84.9938 94.3379C85.6717 92.9821 86.6064 91.9345 87.7978 91.1949C89.0098 90.4349 90.3655 90.0549 91.8651 90.0549C93.6933 90.0549 95.1107 90.5787 96.1173 91.6263C97.1444 92.674 97.699 94.1838 97.7812 96.1558C97.7812 97.4294 97.7195 98.3332 97.5963 98.8673H86.6269C86.6269 101.024 87.1097 102.791 88.0751 104.167C89.0611 105.523 90.4374 106.201 92.204 106.201C93.0668 106.201 93.9501 106.047 94.8539 105.739C95.7578 105.43 96.4562 105.061 96.9492 104.629L97.4422 105.769C96.8465 106.386 95.9735 106.909 94.8231 107.341C93.6933 107.752 92.5532 107.957 91.4029 107.957ZM95.008 97.4191C95.0696 96.9878 95.1004 96.5358 95.1004 96.0634C95.0799 94.7076 94.7512 93.6292 94.1144 92.828C93.4982 92.0269 92.543 91.6263 91.2488 91.6263C88.4346 91.6263 86.9042 93.5573 86.6577 97.4191H95.008ZM102.497 92.5507L100.124 92.0269V90.6403L104.037 90.1473H104.13L104.715 90.6403V91.9961L104.684 92.7664C105.444 92.1091 106.451 91.5031 107.704 90.9484C108.957 90.3938 110.118 90.1165 111.186 90.1165C112.501 90.1165 113.507 90.3733 114.206 90.8868C114.925 91.3798 115.418 92.1501 115.685 93.1978C115.972 94.2249 116.116 95.6114 116.116 97.3575V106.078L118.427 106.293V107.618H111.556V106.293L113.62 106.078V97.3267C113.62 96.0326 113.528 95.0157 113.343 94.2762C113.178 93.5367 112.84 92.9821 112.326 92.6123C111.833 92.222 111.104 92.0269 110.138 92.0269C109.317 92.0269 108.423 92.2323 107.458 92.6432C106.513 93.054 105.691 93.5367 104.993 94.0914V106.047L107.242 106.293V107.618H100.432V106.293L102.497 106.047V92.5507Z" fill="#F2C672"/>
</svg>
